<svg xmlns="http://www.w3.org/2000/svg" xmlns:xlink="http://www.w3.org/1999/xlink" width="400" height="341" viewBox="0 0 400 341">
  <defs>
    <clipPath id="clip-path">
      <rect id="Rectángulo_415783" data-name="Rectángulo 415783" width="400" height="341" fill="#fff" stroke="#707070" stroke-width="1" opacity="0.38"/>
    </clipPath>
    <clipPath id="clip-path-2">
      <rect id="Rectángulo_415782" data-name="Rectángulo 415782" width="400" height="341.228" fill="none"/>
    </clipPath>
    <clipPath id="clip-path-4">
      <rect id="Rectángulo_415757" data-name="Rectángulo 415757" width="298.075" height="206.768" fill="none"/>
    </clipPath>
    <clipPath id="clip-path-5">
      <rect id="Rectángulo_415758" data-name="Rectángulo 415758" width="38.098" height="101.886" fill="none"/>
    </clipPath>
    <clipPath id="clip-path-6">
      <rect id="Rectángulo_415759" data-name="Rectángulo 415759" width="24.829" height="87.054" fill="none"/>
    </clipPath>
    <clipPath id="clip-path-7">
      <rect id="Rectángulo_415760" data-name="Rectángulo 415760" width="11.374" height="14.413" fill="none"/>
    </clipPath>
    <clipPath id="clip-path-8">
      <rect id="Rectángulo_415761" data-name="Rectángulo 415761" width="11.373" height="14.413" fill="none"/>
    </clipPath>
    <clipPath id="clip-path-9">
      <rect id="Rectángulo_415762" data-name="Rectángulo 415762" width="6.34" height="11.321" fill="none"/>
    </clipPath>
    <clipPath id="clip-path-10">
      <rect id="Rectángulo_415763" data-name="Rectángulo 415763" width="12.53" height="6.527" fill="none"/>
    </clipPath>
    <clipPath id="clip-path-12">
      <rect id="Rectángulo_415765" data-name="Rectángulo 415765" width="42.096" height="63.408" fill="none"/>
    </clipPath>
    <clipPath id="clip-path-13">
      <rect id="Rectángulo_415771" data-name="Rectángulo 415771" width="20.295" height="24.435" fill="none"/>
    </clipPath>
    <clipPath id="clip-path-14">
      <rect id="Rectángulo_415772" data-name="Rectángulo 415772" width="36.379" height="24.435" fill="none"/>
    </clipPath>
    <clipPath id="clip-path-15">
      <rect id="Rectángulo_415773" data-name="Rectángulo 415773" width="94.728" height="24.435" fill="none"/>
    </clipPath>
    <clipPath id="clip-path-16">
      <rect id="Rectángulo_415774" data-name="Rectángulo 415774" width="32.019" height="3.072" fill="none"/>
    </clipPath>
    <clipPath id="clip-path-17">
      <rect id="Rectángulo_415775" data-name="Rectángulo 415775" width="25.691" height="17.257" fill="none"/>
    </clipPath>
    <clipPath id="clip-path-18">
      <rect id="Rectángulo_415776" data-name="Rectángulo 415776" width="25.301" height="16.994" fill="none"/>
    </clipPath>
    <clipPath id="clip-path-19">
      <rect id="Rectángulo_415777" data-name="Rectángulo 415777" width="33.714" height="16.995" fill="none"/>
    </clipPath>
    <clipPath id="clip-path-20">
      <rect id="Rectángulo_415779" data-name="Rectángulo 415779" width="24.426" height="61.617" fill="none"/>
    </clipPath>
    <clipPath id="clip-path-21">
      <rect id="Rectángulo_415780" data-name="Rectángulo 415780" width="145.727" height="12.872" fill="none"/>
    </clipPath>
  </defs>
  <g id="Enmascarar_grupo_1098744" data-name="Enmascarar grupo 1098744" clip-path="url(#clip-path)">
    <g id="Grupo_1176435" data-name="Grupo 1176435" transform="translate(0 -0.062)">
      <g id="Grupo_1176434" data-name="Grupo 1176434" clip-path="url(#clip-path-2)">
        <rect id="Rectángulo_415756" data-name="Rectángulo 415756" width="307.747" height="218.5" transform="translate(55.674 26.813)" fill="#fff2e3"/>
        <path id="Trazado_1034156" data-name="Trazado 1034156" d="M0,0H298.074V206.768H0Z" transform="translate(60.511 32.68)" fill="#2c4556"/>
        <g id="Grupo_1176433" data-name="Grupo 1176433">
          <g id="Grupo_1176432" data-name="Grupo 1176432" clip-path="url(#clip-path-2)">
            <g id="Grupo_1176380" data-name="Grupo 1176380" transform="translate(60.511 32.332)" opacity="0.46">
              <g id="Grupo_1176379" data-name="Grupo 1176379">
                <g id="Grupo_1176378" data-name="Grupo 1176378" clip-path="url(#clip-path-4)">
                  <path id="Trazado_1034157" data-name="Trazado 1034157" d="M342.423,34.623S105.961,39.877,78.149,56.314s8.061,17.876,35.734,41.443S47.839,193.234,44.349,241.391V34.623Z" transform="translate(-44.349 -34.623)" fill="#1a2d38"/>
                </g>
              </g>
            </g>
            <path id="Trazado_1034158" data-name="Trazado 1034158" d="M35.6,272.2h313.8A4.708,4.708,0,0,0,354.1,267.5v-.1a4.708,4.708,0,0,0-4.708-4.707H35.6A4.708,4.708,0,0,0,30.89,267.4v.1A4.708,4.708,0,0,0,35.6,272.2" transform="translate(17.053 -17.38)" fill="#b5aaa0"/>
            <path id="Trazado_1034159" data-name="Trazado 1034159" d="M115.94,186.956v17.211l-14.9,8.6-14.9-8.6V186.956l14.9-8.605Z" transform="translate(203.628 -11.8)" fill="#2c4556"/>
            <path id="Trazado_1034160" data-name="Trazado 1034160" d="M115.94,186.956v17.211l-14.9,8.6-14.9-8.6V186.956l14.9-8.605Z" transform="translate(203.628 -11.8)" fill="none" stroke="#d3cabe" stroke-miterlimit="10" stroke-width="1"/>
            <line id="Línea_955" data-name="Línea 955" x1="13.601" y2="9.334" transform="translate(276.157 192.366)" fill="#2c4556"/>
            <line id="Línea_956" data-name="Línea 956" x1="13.601" y2="9.334" transform="translate(276.157 192.366)" fill="none" stroke="#d3cabe" stroke-miterlimit="10" stroke-width="1"/>
            <line id="Línea_957" data-name="Línea 957" y1="9.005" x2="15.043" transform="translate(319.568 166.151)" fill="#2c4556"/>
            <line id="Línea_958" data-name="Línea 958" y1="9.005" x2="15.043" transform="translate(319.568 166.151)" fill="none" stroke="#d3cabe" stroke-miterlimit="10" stroke-width="1"/>
            <line id="Línea_959" data-name="Línea 959" y2="19.542" transform="translate(304.663 200.971)" fill="#2c4556"/>
            <line id="Línea_960" data-name="Línea 960" y2="19.542" transform="translate(304.663 200.971)" fill="none" stroke="#d3cabe" stroke-miterlimit="10" stroke-width="1"/>
            <path id="Trazado_1034161" data-name="Trazado 1034161" d="M69.829,175.006a2.724,2.724,0,1,0,2.724,2.724,2.724,2.724,0,0,0-2.724-2.724" transform="translate(264.782 -11.579)" fill="#2c4556"/>
            <path id="Trazado_1034162" data-name="Trazado 1034162" d="M69.829,175.006a2.724,2.724,0,1,0,2.724,2.724A2.724,2.724,0,0,0,69.829,175.006Z" transform="translate(264.782 -11.579)" fill="none" stroke="#d3cabe" stroke-miterlimit="10" stroke-width="1"/>
            <path id="Trazado_1034163" data-name="Trazado 1034163" d="M85.939,184.146a2.724,2.724,0,1,0,2.723,2.724,2.724,2.724,0,0,0-2.723-2.724" transform="translate(233.629 -12.184)" fill="#2c4556"/>
            <path id="Trazado_1034164" data-name="Trazado 1034164" d="M85.939,184.146a2.724,2.724,0,1,0,2.723,2.724A2.724,2.724,0,0,0,85.939,184.146Z" transform="translate(233.629 -12.184)" fill="none" stroke="#d3cabe" stroke-miterlimit="10" stroke-width="1"/>
            <path id="Trazado_1034165" data-name="Trazado 1034165" d="M101.909,233.221a2.724,2.724,0,1,0,2.724,2.723,2.724,2.724,0,0,0-2.724-2.723" transform="translate(202.744 -15.43)" fill="#2c4556"/>
            <path id="Trazado_1034166" data-name="Trazado 1034166" d="M101.909,233.221a2.724,2.724,0,1,0,2.724,2.723A2.724,2.724,0,0,0,101.909,233.221Z" transform="translate(202.744 -15.43)" fill="none" stroke="#d3cabe" stroke-miterlimit="10" stroke-width="1"/>
            <path id="Trazado_1034167" data-name="Trazado 1034167" d="M101.448,212.293a2.724,2.724,0,1,0,2.724,2.724,2.724,2.724,0,0,0-2.724-2.724" transform="translate(203.636 -14.046)" fill="#2c4556"/>
            <path id="Trazado_1034168" data-name="Trazado 1034168" d="M101.448,212.293a2.724,2.724,0,1,0,2.724,2.724A2.724,2.724,0,0,0,101.448,212.293Z" transform="translate(203.636 -14.046)" fill="none" stroke="#d3cabe" stroke-miterlimit="10" stroke-width="1"/>
            <path id="Trazado_1034169" data-name="Trazado 1034169" d="M117.514,202.842a2.724,2.724,0,1,0,2.724,2.724,2.724,2.724,0,0,0-2.724-2.724" transform="translate(172.567 -13.421)" fill="#2c4556"/>
            <path id="Trazado_1034170" data-name="Trazado 1034170" d="M117.514,202.842a2.724,2.724,0,1,0,2.724,2.724A2.724,2.724,0,0,0,117.514,202.842Z" transform="translate(172.567 -13.421)" fill="none" stroke="#d3cabe" stroke-miterlimit="10" stroke-width="1"/>
            <path id="Trazado_1034171" data-name="Trazado 1034171" d="M132.647,213.227a2.724,2.724,0,1,0,2.724,2.724,2.724,2.724,0,0,0-2.724-2.724" transform="translate(143.302 -14.108)" fill="#2c4556"/>
            <path id="Trazado_1034172" data-name="Trazado 1034172" d="M132.647,213.227a2.724,2.724,0,1,0,2.724,2.724A2.724,2.724,0,0,0,132.647,213.227Z" transform="translate(143.302 -14.108)" fill="none" stroke="#d3cabe" stroke-miterlimit="10" stroke-width="1"/>
            <path id="Trazado_1034173" data-name="Trazado 1034173" d="M321.365,159.454l.2,29.141a20.115,20.115,0,1,1-13.8.047l-.473-29.14" transform="translate(-209.968 -10.55)" fill="none" stroke="#d3cabe" stroke-miterlimit="10" stroke-width="1"/>
            <path id="Trazado_1034174" data-name="Trazado 1034174" d="M331.8,207.346a17.314,17.314,0,1,1-33.768.115" transform="translate(-210.161 -13.719)" fill="none" stroke="#d3cabe" stroke-miterlimit="10" stroke-width="1"/>
            <path id="Trazado_1034175" data-name="Trazado 1034175" d="M298.083,207.309c.006,1.23,7.648,2.2,17.071,2.169s17.059-1.055,17.056-2.285-7.647-2.2-17.071-2.169S298.079,206.079,298.083,207.309Z" transform="translate(-210.571 -13.565)" fill="none" stroke="#d3cabe" stroke-miterlimit="10" stroke-width="1"/>
            <path id="Trazado_1034176" data-name="Trazado 1034176" d="M306.278,156.544a2.6,2.6,0,0,0,2.607,2.59l14.074-.049a2.6,2.6,0,1,0-.018-5.2l-14.074.048A2.6,2.6,0,0,0,306.278,156.544Z" transform="translate(-211.563 -10.182)" fill="none" stroke="#d3cabe" stroke-miterlimit="10" stroke-width="1"/>
            <path id="Trazado_1034177" data-name="Trazado 1034177" d="M309.7,217.63a1.831,1.831,0,1,0,.765-2.473A1.829,1.829,0,0,0,309.7,217.63Z" transform="translate(-202.152 -14.221)" fill="none" stroke="#d3cabe" stroke-miterlimit="10" stroke-width="1"/>
            <path id="Trazado_1034178" data-name="Trazado 1034178" d="M322.5,216.975a1.831,1.831,0,1,0,.765-2.474A1.831,1.831,0,0,0,322.5,216.975Z" transform="translate(-226.911 -14.178)" fill="none" stroke="#d3cabe" stroke-miterlimit="10" stroke-width="1"/>
            <path id="Trazado_1034179" data-name="Trazado 1034179" d="M316.272,224.578a1.831,1.831,0,1,0,.765-2.474A1.832,1.832,0,0,0,316.272,224.578Z" transform="translate(-214.871 -14.681)" fill="none" stroke="#d3cabe" stroke-miterlimit="10" stroke-width="1"/>
            <path id="Trazado_1034180" data-name="Trazado 1034180" d="M302.376,83.891h19.3l9.652,16.718-9.652,16.718h-19.3l-9.652-16.718Z" transform="translate(-204.69 -5.55)" fill="none" stroke="#d3cabe" stroke-miterlimit="10" stroke-width="1"/>
            <path id="Trazado_1034181" data-name="Trazado 1034181" d="M293.806,70.893h14.015l7.008,12.137-7.008,12.137H293.806L286.8,83.03Z" transform="translate(-182.652 -4.69)" fill="none" stroke="#d3cabe" stroke-miterlimit="10" stroke-width="1"/>
            <path id="Trazado_1034182" data-name="Trazado 1034182" d="M63.695,147.893a2.825,2.825,0,1,0,2.826-2.826A2.826,2.826,0,0,0,63.695,147.893Z" transform="translate(271.174 -9.598)" fill="none" stroke="#d3cabe" stroke-miterlimit="10" stroke-width="0.5"/>
            <path id="Trazado_1034183" data-name="Trazado 1034183" d="M335.886,57.662a9.014,9.014,0,1,0,9.014-9.014A9.014,9.014,0,0,0,335.886,57.662Z" transform="translate(-267.577 -3.219)" fill="none" stroke="#d3cabe" stroke-miterlimit="10" stroke-width="1.268"/>
            <path id="Trazado_1034184" data-name="Trazado 1034184" d="M270.771,53.156a4.507,4.507,0,1,0,4.507-4.507A4.507,4.507,0,0,0,270.771,53.156Z" transform="translate(-132.642 -3.219)" fill="none" stroke="#d3cabe" stroke-miterlimit="10" stroke-width="0.634"/>
            <path id="Trazado_1034185" data-name="Trazado 1034185" d="M124.81,50.495a2.811,2.811,0,1,0,2.811-2.811A2.811,2.811,0,0,0,124.81,50.495Z" transform="translate(153.015 -3.155)" fill="none" stroke="#d3cabe" stroke-miterlimit="10" stroke-width="0.634"/>
            <path id="Trazado_1034186" data-name="Trazado 1034186" d="M340.711,137.853a4.507,4.507,0,1,0,4.507-4.507A4.507,4.507,0,0,0,340.711,137.853Z" transform="translate(-267.894 -8.823)" fill="none" stroke="#d3cabe" stroke-miterlimit="10" stroke-width="1"/>
            <path id="Trazado_1034187" data-name="Trazado 1034187" d="M162.062,254.3l40.3,1.372,40.3-1.372s30.716,63.4,1.169,101.886H160.893c-29.547-38.491,1.169-101.886,1.169-101.886" transform="translate(5.069 -16.825)" fill="#2c4556"/>
            <g id="Grupo_1176383" data-name="Grupo 1176383" transform="translate(223.641 237.474)" opacity="0.45">
              <g id="Grupo_1176382" data-name="Grupo 1176382">
                <g id="Grupo_1176381" data-name="Grupo 1176381" clip-path="url(#clip-path-5)">
                  <path id="Trazado_1034188" data-name="Trazado 1034188" d="M173.319,356.185H161.98c20.942-38.572-13.923-101.066-13.923-101.066l24.093-.82s30.716,63.4,1.169,101.886" transform="translate(-148.057 -254.299)" fill="#1b2e38"/>
                </g>
              </g>
            </g>
            <path id="Trazado_1034189" data-name="Trazado 1034189" d="M138.473,147.59c1.812-12.83,8.3-27.019,21.283-31.4,5.744-1.937,21.735-7.546,29.548-14.641s3.66-20.529,3.66-20.529h17.509s-4.152,13.434,3.66,20.529,23.8,12.7,29.548,14.641c12.981,4.378,19.471,18.567,21.283,31.4,1.178,8.349,1.654,49.169,1.842,76.664a19.258,19.258,0,0,1-24.537,18.652l-.249-.071s-20.83,11.321-40.3,11.321-40.3-11.321-40.3-11.321l-24.905,7.094s.15-89.509,1.962-102.339" transform="translate(5.714 -5.361)" fill="#4b72b7"/>
            <path id="Trazado_1034190" data-name="Trazado 1034190" d="M248.515,150.062c1.812-12.83,8.3-27.019,21.283-31.4.254-.085.535-.181.828-.281,1.955,15.264,6.19,55.026-.828,68.01-3.974,7.353-13.548,9.438-22.818,9.524.285-20.654.756-40.341,1.535-45.856" transform="translate(-104.328 -7.833)" fill="#fff2e3"/>
            <path id="Trazado_1034191" data-name="Trazado 1034191" d="M161.917,150.062c-1.812-12.83-8.3-27.019-21.283-31.4-.254-.085-.536-.181-.828-.281-1.956,15.264-6.19,55.026.828,68.01,3.974,7.353,13.548,9.438,22.818,9.524-.285-20.654-.756-40.341-1.535-45.856" transform="translate(108.852 -7.833)" fill="#fff2e3"/>
            <path id="Trazado_1034192" data-name="Trazado 1034192" d="M262.277,214.816l-35.738,13.8s.373,11.321-14.392,4.981l-9.783-2.265s-7.416,44.174-34.22,53.89A164.378,164.378,0,0,1,179.571,249.9L154.666,257s.051-30.473.454-58.407l112.889-10.737Z" transform="translate(-12.442 -12.429)" fill="#2c4556"/>
            <path id="Trazado_1034193" data-name="Trazado 1034193" d="M231.618,121.056s-7.778,16.775-19.776,11.793-1.093-23.668-1.093-23.668Z" transform="translate(-24.186 -7.224)" fill="#fff2e3"/>
            <path id="Trazado_1034194" data-name="Trazado 1034194" d="M179.176,121.033s7.778,16.775,19.776,11.793.52-23.986.52-23.986Z" transform="translate(28.257 -7.201)" fill="#fff2e3"/>
            <path id="Trazado_1034195" data-name="Trazado 1034195" d="M251.32,150.2c1.618-11.466,6.979-24.011,17.365-29.675,1.894,7.582,4.293,21.076,4.824,42.052.9,35.773.755,82.868.755,82.868l-24.905,7.094s.15-89.509,1.962-102.339" transform="translate(-107.133 -7.975)" fill="#e48464"/>
            <path id="Trazado_1034196" data-name="Trazado 1034196" d="M159.465,150.2c-1.618-11.466-6.979-24.011-17.365-29.675-1.894,7.582-4.293,21.076-4.824,42.052-.9,35.773-.755,82.868-.755,82.868l.249.071a19.258,19.258,0,0,0,24.537-18.652c-.188-27.495-.664-68.315-1.842-76.664" transform="translate(111.211 -7.975)" fill="#e48464"/>
            <line id="Línea_961" data-name="Línea 961" y2="134.963" transform="translate(207.432 113.832)" fill="none" stroke="#2c4556" stroke-miterlimit="10" stroke-width="0.776"/>
            <path id="Trazado_1034197" data-name="Trazado 1034197" d="M195.478,147.219a3.357,3.357,0,1,0,3.357-3.357,3.357,3.357,0,0,0-3.357,3.357" transform="translate(15.263 -9.518)" fill="#fff2e3"/>
            <path id="Trazado_1034198" data-name="Trazado 1034198" d="M195.478,179.87a3.357,3.357,0,1,0,3.357-3.357,3.357,3.357,0,0,0-3.357,3.357" transform="translate(15.263 -11.679)" fill="#fff2e3"/>
            <path id="Trazado_1034199" data-name="Trazado 1034199" d="M195.478,212.52a3.357,3.357,0,1,0,3.357-3.357,3.357,3.357,0,0,0-3.357,3.357" transform="translate(15.263 -13.839)" fill="#fff2e3"/>
            <path id="Trazado_1034200" data-name="Trazado 1034200" d="M195.478,245.171a3.357,3.357,0,1,0,3.357-3.357,3.357,3.357,0,0,0-3.357,3.357" transform="translate(15.263 -15.999)" fill="#fff2e3"/>
            <path id="Trazado_1034201" data-name="Trazado 1034201" d="M95.285,241.384s8.51-6.25,16.359-19.231,21.736-59.482,25.962-66.571,16.9-22.805,18.415-29.278c1.359-5.787-1.207-7.486-1.66-8.6-3.169-4.679-5.283-6.943-7.7-6.943,3.924-13.283,3.321-19.439-.906-14.248s-10.566,23.264-11.472,23.586c-5.131-.584-8.778,3.982-9.069,12.718.012,7.83.315,4.509-1.5,9.641S96.942,191.59,90.406,201.588s-12.923,32.288-8.673,42.729c6.666,1.685,9.458.672,13.552-2.933" transform="translate(168.543 -6.264)" fill="#e48464"/>
            <path id="Trazado_1034202" data-name="Trazado 1034202" d="M92.053,121.9s6.34,3.19,8.3,5.454,4.227,4.528,1.962,6.491-5.736.9-7.849,0a16.166,16.166,0,0,1,1.057,10.565" transform="translate(210.774 -8.065)" fill="none" stroke="#a0533f" stroke-miterlimit="10" stroke-width="0.75"/>
            <line id="Línea_962" data-name="Línea 962" x1="5.494" y2="13.509" transform="translate(309.711 104.494)" fill="none" stroke="#a0533f" stroke-miterlimit="10" stroke-width="0.75"/>
            <line id="Línea_963" data-name="Línea 963" x1="6.379" y2="15.188" transform="translate(314.038 108.023)" fill="none" stroke="#a0533f" stroke-miterlimit="10" stroke-width="0.75"/>
            <line id="Línea_964" data-name="Línea 964" x1="6.396" y2="15.335" transform="translate(317.227 112.555)" fill="none" stroke="#a0533f" stroke-miterlimit="10" stroke-width="0.75"/>
            <line id="Línea_965" data-name="Línea 965" x1="5.895" y1="4.566" transform="translate(313.695 125.087)" fill="none" stroke="#a0533f" stroke-miterlimit="10" stroke-width="0.75"/>
            <path id="Trazado_1034203" data-name="Trazado 1034203" d="M249.4,16.428S250.355,3.363,234.6.645s-27.6,3.4-34.018,13.585-1.434,30.717-11.4,46.716,1.133,30.944,1.133,30.944,20.6-11.863,37.811-14.943c19.7-46.415,21.274-60.519,21.274-60.519" transform="translate(-22.207 0)" fill="#7c2e25"/>
            <g id="Grupo_1176386" data-name="Grupo 1176386" transform="translate(162.828 4.835)" opacity="0.17" style="mix-blend-mode: overlay;isolation: isolate">
              <g id="Grupo_1176385" data-name="Grupo 1176385">
                <g id="Grupo_1176384" data-name="Grupo 1176384" clip-path="url(#clip-path-6)">
                  <path id="Trazado_1034204" data-name="Trazado 1034204" d="M242.937,14.572a30.063,30.063,0,0,1,9.28-9.394s-9.958,13.855-9.28,27.926-3.083,22.412-5.433,30.373c-2.486,8.418,1.861,18.537,4.349,23.981-5.516,2.667-9.18,4.774-9.18,4.774s-11.094-14.943-1.133-30.943,4.981-36.529,11.4-46.717" transform="translate(-227.39 -5.178)" fill="#fff"/>
                </g>
              </g>
            </g>
            <path id="Trazado_1034205" data-name="Trazado 1034205" d="M158.457,16.428S157.505,3.363,173.26.645s27.6,3.4,34.018,13.585,1.434,30.717,11.4,46.716-1.133,30.944-1.133,30.944-20.6-11.863-37.811-14.943c-19.7-46.415-21.274-60.519-21.274-60.519" transform="translate(29.211 0)" fill="#872a21"/>
            <path id="Trazado_1034206" data-name="Trazado 1034206" d="M192.931,101.553c7.812-7.094,3.66-20.529,3.66-20.529H214.1s-4.152,13.434,3.66,20.529A43.619,43.619,0,0,0,225.642,107a23.614,23.614,0,0,1-41.164.317,44.884,44.884,0,0,0,8.454-5.765" transform="translate(2.087 -5.361)" fill="#e48464"/>
            <path id="Trazado_1034207" data-name="Trazado 1034207" d="M197.8,86.232a29.056,29.056,0,0,0-.963-5.208h17.509s-2.39,7.747-.12,14.583c-9.126-1.029-15.039-7.66-16.426-9.375" transform="translate(1.842 -5.361)" fill="#380403"/>
            <path id="Trazado_1034208" data-name="Trazado 1034208" d="M229.705,56.572c1.98,4.864,6.746,7.521,10.646,5.934s5.455-6.817,3.475-11.681S237.079,43.3,233.18,44.89s-5.455,6.817-3.475,11.681" transform="translate(-58.39 -2.94)" fill="#e48464"/>
            <path id="Trazado_1034209" data-name="Trazado 1034209" d="M172.469,79.513l1.189-11.724L196.64,54.354l4.792,4.528s4.979,19.812-3.376,30.193c-7.273-3.326-16.628-7.007-25.152-8.532-.149-.351-.288-.683-.434-1.03" transform="translate(36.038 -3.596)" fill="#420e0c"/>
            <g id="Grupo_1176389" data-name="Grupo 1176389" transform="translate(170.456 45.61)" opacity="0.32">
              <g id="Grupo_1176388" data-name="Grupo 1176388">
                <g id="Grupo_1176387" data-name="Grupo 1176387" clip-path="url(#clip-path-7)">
                  <path id="Trazado_1034210" data-name="Trazado 1034210" d="M234.487,56.864a10.549,10.549,0,0,1-.2-7.824c3.733-.965,8.01,1.65,9.859,6.192a10.546,10.546,0,0,1,.2,7.823c-3.733.965-8.01-1.649-9.859-6.191" transform="translate(-233.628 -48.841)" fill="#590a06"/>
                </g>
              </g>
            </g>
            <path id="Trazado_1034211" data-name="Trazado 1034211" d="M181.6,56.572c-1.98,4.864-6.746,7.521-10.646,5.934s-5.455-6.817-3.475-11.681,6.746-7.521,10.646-5.934,5.455,6.817,3.475,11.681" transform="translate(61.953 -2.94)" fill="#e48464"/>
            <path id="Trazado_1034212" data-name="Trazado 1034212" d="M184.769,17.592c1.314,4.034,4.425,11.422,9.954,13.048,5.736.755-2.113-4.227-1.51-9.812C211.2,31.007,222.089,33.907,228.05,33.962c.84,14.191-.983,28.824-4.234,34.994C219.892,76.405,216,82.689,204.533,83.62c-11.471-.931-15.359-7.215-19.283-14.664s-5.774-27.236-3.359-43.686a18.917,18.917,0,0,1,2.877-7.678" transform="translate(2.899 -1.164)" fill="#e48464"/>
            <g id="Grupo_1176392" data-name="Grupo 1176392" transform="translate(233.034 45.61)" opacity="0.32">
              <g id="Grupo_1176391" data-name="Grupo 1176391">
                <g id="Grupo_1176390" data-name="Grupo 1176390" clip-path="url(#clip-path-8)">
                  <path id="Trazado_1034213" data-name="Trazado 1034213" d="M177.13,56.864a10.549,10.549,0,0,0,.2-7.824c-3.733-.965-8.01,1.65-9.859,6.192a10.546,10.546,0,0,0-.2,7.823c3.733.965,8.01-1.649,9.859-6.191" transform="translate(-166.616 -48.841)" fill="#590a06"/>
                </g>
              </g>
            </g>
            <path id="Trazado_1034214" data-name="Trazado 1034214" d="M227.266,52.449c-1.53-2.952-5.907-8.905-14.856-4.366a1.635,1.635,0,0,0-.741,2.124c2.266,5.048,9.366,5.6,14.732,4.192a1.37,1.37,0,0,0,.865-1.951" transform="translate(-24.949 -3.072)" fill="#fff2e3"/>
            <path id="Trazado_1034215" data-name="Trazado 1034215" d="M223.628,47.934a4.782,4.782,0,0,1-2.01,7.128,14.724,14.724,0,0,1-5.062-.788,4.75,4.75,0,0,1,.747-7.739,8.8,8.8,0,0,1,6.325,1.4" transform="translate(-25.172 -3.072)" fill="#651d13"/>
            <path id="Trazado_1034216" data-name="Trazado 1034216" d="M227.094,52.382a4.846,4.846,0,0,0-.212-.785,8.755,8.755,0,0,0-.936-1.94,7.818,7.818,0,0,0-.874-1.171,9.5,9.5,0,0,0-1.182-1.162l-.727-.512a3.7,3.7,0,0,0-.792-.462c-.28-.131-.558-.28-.851-.4l-.913-.267-.46-.12-.472-.052-.938-.084c-.618,0-1.222.1-1.8.158-.561.14-1.093.313-1.589.47a11.348,11.348,0,0,0-1.31.642l-.561.3c-.17.111-.318.239-.463.346-.289.217-.529.422-.726.586-.392.334-.6.536-.6.536s.3-.064.785-.2c.244-.069.539-.148.864-.257a7.585,7.585,0,0,1,1.108-.284c.409-.077.837-.2,1.29-.283.462-.047.941-.09,1.426-.172l1.49.027c.248.037.5.08.747.107l.376.045.363.106.732.194.7.287a11.047,11.047,0,0,1,1.335.665c.389.3.826.514,1.176.819.368.278.706.564,1.017.838.611.556,1.116,1.056,1.456,1.425s.541.59.541.59" transform="translate(-24.776 -3.006)" fill="#590a06"/>
            <path id="Trazado_1034217" data-name="Trazado 1034217" d="M184.031,52.449c1.531-2.952,5.907-8.905,14.857-4.366a1.635,1.635,0,0,1,.74,2.124c-2.265,5.048-9.365,5.6-14.732,4.192a1.371,1.371,0,0,1-.865-1.951" transform="translate(28.517 -3.072)" fill="#fff2e3"/>
            <path id="Trazado_1034218" data-name="Trazado 1034218" d="M188.115,47.934a4.782,4.782,0,0,0,2.01,7.128,14.724,14.724,0,0,0,5.062-.788,4.75,4.75,0,0,0-.747-7.739,8.8,8.8,0,0,0-6.325,1.4" transform="translate(28.293 -3.072)" fill="#651d13"/>
            <path id="Trazado_1034219" data-name="Trazado 1034219" d="M184.237,52.382s.191-.227.541-.59.845-.869,1.456-1.425c.311-.274.649-.559,1.017-.838.349-.305.786-.523,1.176-.819a11.045,11.045,0,0,1,1.335-.665l.7-.287.732-.194.363-.106.376-.045c.25-.027.5-.07.747-.107l1.491-.027c.484.082.963.125,1.425.172.453.082.881.206,1.29.283a7.581,7.581,0,0,1,1.108.284c.325.109.62.188.864.257.489.134.785.2.785.2s-.208-.2-.6-.536c-.2-.164-.437-.37-.727-.586-.145-.107-.293-.235-.463-.346l-.561-.3a11.351,11.351,0,0,0-1.31-.642c-.5-.157-1.028-.33-1.589-.47-.577-.053-1.181-.161-1.8-.158l-.938.084-.472.052-.46.12-.913.267c-.292.116-.571.265-.851.4a3.7,3.7,0,0,0-.792.462l-.727.512a9.5,9.5,0,0,0-1.182,1.162,7.821,7.821,0,0,0-.874,1.171,8.759,8.759,0,0,0-.936,1.94,4.846,4.846,0,0,0-.212.785" transform="translate(28.31 -3.006)" fill="#590a06"/>
            <path id="Trazado_1034220" data-name="Trazado 1034220" d="M225.3,39.346c-3.064-.538-8.308-.812-12.134,2.413,3.953-6.583,7.9-6.735,12.555-6.667a2.123,2.123,0,0,1,2.091,2.121v.049a2.127,2.127,0,0,1-2.511,2.084" transform="translate(-26.866 -2.321)" fill="#651d13"/>
            <path id="Trazado_1034221" data-name="Trazado 1034221" d="M186.089,39.346c3.064-.538,8.308-.812,12.134,2.413-3.953-6.583-7.9-6.735-12.555-6.667a2.123,2.123,0,0,0-2.091,2.121v.049a2.127,2.127,0,0,0,2.511,2.084" transform="translate(30.345 -2.321)" fill="#651d13"/>
            <g id="Grupo_1176395" data-name="Grupo 1176395" transform="translate(203.356 55.286)" opacity="0.62">
              <g id="Grupo_1176394" data-name="Grupo 1176394">
                <g id="Grupo_1176393" data-name="Grupo 1176393" clip-path="url(#clip-path-9)">
                  <path id="Trazado_1034222" data-name="Trazado 1034222" d="M205.6,59.2v9.661l4.528-.755-6.34,2.415Z" transform="translate(-203.787 -59.203)" fill="#651d13"/>
                </g>
              </g>
            </g>
            <path id="Trazado_1034223" data-name="Trazado 1034223" d="M213,73.546s-11.454,1.66-13.736-.6c3.3,4.075,8.755,4.83,13.736.6" transform="translate(0.926 -4.826)" fill="#fff2e3"/>
            <g id="Grupo_1176398" data-name="Grupo 1176398" transform="translate(187.657 55.476)" opacity="0.32">
              <g id="Grupo_1176397" data-name="Grupo 1176397">
                <g id="Grupo_1176396" data-name="Grupo 1176396" clip-path="url(#clip-path-10)">
                  <path id="Trazado_1034224" data-name="Trazado 1034224" d="M213.97,62.67c0-1.8,2.805-3.264,6.265-3.264s6.265,1.461,6.265,3.264-2.8,3.264-6.265,3.264-6.265-1.461-6.265-3.264" transform="translate(-213.97 -59.407)" fill="#af0808"/>
                </g>
              </g>
            </g>
            <g id="Grupo_1176401" data-name="Grupo 1176401" transform="translate(214.677 55.476)" opacity="0.32">
              <g id="Grupo_1176400" data-name="Grupo 1176400">
                <g id="Grupo_1176399" data-name="Grupo 1176399" clip-path="url(#clip-path-10)">
                  <path id="Trazado_1034225" data-name="Trazado 1034225" d="M197.564,62.67c0-1.8-2.8-3.264-6.264-3.264s-6.265,1.461-6.265,3.264,2.8,3.264,6.265,3.264,6.264-1.461,6.264-3.264" transform="translate(-185.034 -59.407)" fill="#af0808"/>
                </g>
              </g>
            </g>
            <g id="Grupo_1176404" data-name="Grupo 1176404" transform="translate(183.708 16.428)" opacity="0.17" style="mix-blend-mode: overlay;isolation: isolate">
              <g id="Grupo_1176403" data-name="Grupo 1176403">
                <g id="Grupo_1176402" data-name="Grupo 1176402" clip-path="url(#clip-path-12)">
                  <path id="Trazado_1034226" data-name="Trazado 1034226" d="M190.5,17.592c1.314,4.034,4.425,11.422,9.954,13.048,5.736.755-2.113-4.227-1.51-9.812,13.485,7.631,22.981,11.172,29.4,12.489.571,14.012,3.056,50.917-27.777,47.455-4.535-2.712-7.059-7.018-9.587-11.816-3.925-7.448-5.774-27.236-3.359-43.686a18.918,18.918,0,0,1,2.877-7.678" transform="translate(-186.537 -17.592)" fill="#fff"/>
                </g>
              </g>
            </g>
            <path id="Trazado_1034227" data-name="Trazado 1034227" d="M160.8,158.607s16.664-12.287,38.332-16.629v8.241Z" transform="translate(50.701 -9.394)" fill="#fff2e3"/>
            <path id="Trazado_1034228" data-name="Trazado 1034228" d="M154.666,161.028v-2.185s29.246-12.161,44.063-13.28l-3.635,37.6-40.429-11.184Z" transform="translate(56.838 -9.631)" fill="#d1beae"/>
            <path id="Trazado_1034229" data-name="Trazado 1034229" d="M201.851,159.785a5.622,5.622,0,0,0,8.9,0v2.185s-.622,7.6-3.936,7.6-4.962-7.6-4.962-7.6Z" transform="translate(0.754 -10.572)" fill="#ececec"/>
            <path id="Trazado_1034230" data-name="Trazado 1034230" d="M249.712,158.607s-16.663-12.287-38.332-16.629v8.241Z" transform="translate(-47.107 -9.394)" fill="#fff2e3"/>
            <path id="Trazado_1034231" data-name="Trazado 1034231" d="M255.443,161.028v-2.185s-29.245-12.161-44.063-13.28l3.635,37.6,40.429-11.184Z" transform="translate(-52.838 -9.631)" fill="#d1beae"/>
            <path id="Trazado_1034232" data-name="Trazado 1034232" d="M206.256,166.086h.089a4.4,4.4,0,0,0,4.383-3.962h.022v57.735a4.405,4.405,0,0,1-4.4,4.4h-.089a4.405,4.405,0,0,1-4.4-4.4V162.124h.023a4.4,4.4,0,0,0,4.382,3.962" transform="translate(0.754 -10.727)" fill="#e5ac3c"/>
            <path id="Trazado_1034233" data-name="Trazado 1034233" d="M263.248,161.238,211.38,148.726l10.009,57.552,41.859,12.694Z" transform="translate(-60.643 -9.84)" fill="#ffcb57"/>
            <path id="Trazado_1034234" data-name="Trazado 1034234" d="M146.308,161.238l51.868-12.512-10.009,57.552-41.859,12.694Z" transform="translate(65.195 -9.84)" fill="#bc8d2f"/>
            <path id="Trazado_1034235" data-name="Trazado 1034235" d="M211.38,148.623l1.348-1.46,50.521,11.786v2.185Z" transform="translate(-60.642 -9.737)" fill="#f9d180"/>
            <path id="Trazado_1034236" data-name="Trazado 1034236" d="M198.177,148.623l-1.348-1.46L146.309,158.95v2.185Z" transform="translate(65.195 -9.737)" fill="#f9d180"/>
            <path id="Trazado_1034237" data-name="Trazado 1034237" d="M217.016,192.523s-4.387-15.7-3.9-22.8c3.352,4.367,8.874,3.1,8.874,3.1l9.4-12.68L231.8,173.5l3.113-6.189s3.075,13.736,2.473,16.817a48.734,48.734,0,0,1-6.945,17.6,45.1,45.1,0,0,0-5.974,13.575l-5.852-1.774Z" transform="translate(-36.443 -10.596)" fill="#2c4556"/>
            <path id="Trazado_1034238" data-name="Trazado 1034238" d="M211.328,254.946s2.123,13.887,12.457,13.736,16.675-11.321,20.75-24.905,11.774-38.793,16.3-43.471,9.811-13.284,10.717-19.17-1.509-4.679-1.509-4.679,2.566-7.4-.151-8c1.057-8,.453-9.67-1.207-8.759s-8.6,15.516-8.6,15.516,5.131-15.209,3.774-17.322-2.717-.765-4.378,1.806-7.094,14.646-7.094,14.646-3.169,1.056-4.377-1.736-4.227-5.057-5.736-5.057-2.967,2.265-.729,5.057,2.843,12.906,2.54,15.17-2.336,13.124-7.961,19.921-23.284,31.1-24.793,47.248" transform="translate(-69.104 -10.377)" fill="#e48464"/>
            <path id="Trazado_1034239" data-name="Trazado 1034239" d="M217.964,169.278s-3.056,8.868-4.64,12.038" transform="translate(-17.174 -11.2)" fill="none" stroke="#a0533f" stroke-miterlimit="10" stroke-width="0.75"/>
            <path id="Trazado_1034240" data-name="Trazado 1034240" d="M215.634,177.845s-1.17,6.189-2.472,8.792" transform="translate(-14.693 -11.767)" fill="none" stroke="#a0533f" stroke-miterlimit="10" stroke-width="0.75"/>
            <path id="Trazado_1034241" data-name="Trazado 1034241" d="M268.064,212.19c-.291-.682-12.354,13.954-17.914,27.662" transform="translate(-101.663 -14.038)" fill="none" stroke="#a0533f" stroke-miterlimit="10" stroke-width="1"/>
            <path id="Trazado_1034242" data-name="Trazado 1034242" d="M260.523,260.582a14.521,14.521,0,0,1,11.5,5.66c-3.606,5.594-8.177,9.218-14.032,9.3-5.383.079-8.534-3.65-10.323-7.243a14.553,14.553,0,0,1,12.85-7.72" transform="translate(-103.314 -17.241)" fill="#c6684f"/>
            <path id="Trazado_1034243" data-name="Trazado 1034243" d="M154.84,186.338s-13.907,19.78-17.379,30.7" transform="translate(116.794 -12.329)" fill="none" stroke="#a0533f" stroke-miterlimit="10" stroke-width="1"/>
            <path id="Trazado_1034244" data-name="Trazado 1034244" d="M147.765,234.985a14.6,14.6,0,0,1,9,3.1,64.271,64.271,0,0,1-11.892,12.58c-3.551,3.126-6.127,4.3-11.1,3.457a14.675,14.675,0,0,1,13.983-19.14" transform="translate(118.95 -15.547)" fill="#c6684f"/>
            <path id="Trazado_1034245" data-name="Trazado 1034245" d="M241.255,261.181s-16.783,54.705-1.547,95.46" transform="translate(-59.133 -17.28)" fill="none" stroke="#fff2e3" stroke-miterlimit="10" stroke-width="0.97"/>
            <path id="Trazado_1034246" data-name="Trazado 1034246" d="M199.09,14.23c2.5,3.978,3.271,9.536,3.869,15.782-2.333-1.849-6-3.9-11.789-5.82-12-3.982-17.911-17.319-20.217-24.165,12.83-.457,22.547,5.325,28.137,14.2" transform="translate(37.399 0)" fill="#541610"/>
            <path id="Trazado_1034247" data-name="Trazado 1034247" d="M116.965,273.422l-2.852-1.848h-79.7L0,338.942H72.679Z" transform="translate(283.035 -17.968)" fill="#b2b2b2"/>
            <rect id="Rectángulo_415766" data-name="Rectángulo 415766" width="122.597" height="7.382" transform="translate(244.287 320.974)" fill="#cecece"/>
            <path id="Trazado_1034248" data-name="Trazado 1034248" d="M33.116,273.553h80.9l-33.116,65.52H0Z" transform="translate(285.979 -18.099)" fill="#cecece"/>
            <path id="Trazado_1034249" data-name="Trazado 1034249" d="M46.359,314.924c3.168,4.345,10.036,4.735,15.341.868s7.039-10.523,3.873-14.869-10.034-4.734-15.339-.868-7.041,10.523-3.874,14.869" transform="translate(291.031 -19.676)" fill="#fff"/>
            <line id="Línea_966" data-name="Línea 966" x1="83.848" transform="translate(283.035 320.974)" fill="none" stroke="#b2b2b2" stroke-miterlimit="10" stroke-width="0.97"/>
            <rect id="Rectángulo_415767" data-name="Rectángulo 415767" width="57.526" height="7.382" transform="translate(225.509 320.974)" fill="#b2b2b2"/>
            <rect id="Rectángulo_415768" data-name="Rectángulo 415768" width="16.642" height="3.169" transform="translate(296.959 323.228)" fill="#b2b2b2"/>
            <rect id="Rectángulo_415769" data-name="Rectángulo 415769" width="8.717" height="3.169" transform="translate(270.356 323.228)" fill="#7a7774"/>
            <rect id="Rectángulo_415770" data-name="Rectángulo 415770" width="8.717" height="3.169" transform="translate(256.998 323.228)" fill="#7a7774"/>
            <path id="Trazado_1034250" data-name="Trazado 1034250" d="M328.726,349.747H285.894a12.217,12.217,0,1,1,0-24.435h42.831Z" transform="translate(-184.296 -21.523)" fill="#af1018"/>
            <path id="Trazado_1034251" data-name="Trazado 1034251" d="M328.726,349.747H285.894a12.217,12.217,0,1,1,0-24.435h42.831Z" transform="translate(-184.296 -21.523)" fill="#db5e1f"/>
            <path id="Trazado_1034252" data-name="Trazado 1034252" d="M226.232,347.956h53.64v-19.4h-53.64a9.206,9.206,0,0,0-9.206,9.206v.988a9.206,9.206,0,0,0,9.206,9.206" transform="translate(-82.538 -21.738)" fill="#fff"/>
            <path id="Trazado_1034253" data-name="Trazado 1034253" d="M226.231,328.556a9.2,9.2,0,0,0-9.2,9.186,9.19,9.19,0,0,1,8.986-7.272H279.87v-1.914Z" transform="translate(-82.537 -21.738)" fill="#d6c7b4"/>
            <g id="Grupo_1176407" data-name="Grupo 1176407" transform="translate(102.784 303.789)" opacity="0.35">
              <g id="Grupo_1176406" data-name="Grupo 1176406">
                <g id="Grupo_1176405" data-name="Grupo 1176405" clip-path="url(#clip-path-13)">
                  <path id="Trazado_1034254" data-name="Trazado 1034254" d="M304.619,337.529h0a12.218,12.218,0,0,1,12.217-12.217h-8.078a12.217,12.217,0,1,0,0,24.435h8.078a12.217,12.217,0,0,1-12.217-12.217" transform="translate(-296.541 -325.312)" fill="#590a06"/>
                </g>
              </g>
            </g>
            <path id="Trazado_1034255" data-name="Trazado 1034255" d="M274.584,341.343l-2.251-.088c-1.432-.037-3.478-.126-5.933-.167s-5.318-.121-8.387-.139l-9.616-.061-9.615.06c-3.069.016-5.933.1-8.388.139s-4.5.131-5.933.167l-2.25.089,2.25.089c1.432.036,3.479.127,5.933.167s5.319.123,8.388.139l9.615.06,9.616-.061c3.069-.018,5.933-.1,8.387-.139s4.5-.13,5.933-.167l2.251-.088" transform="translate(-82.094 -22.554)" fill="#d3cabe"/>
            <path id="Trazado_1034256" data-name="Trazado 1034256" d="M269.735,338.911l-2.251-.088c-1.432-.037-3.478-.126-5.933-.167s-5.318-.121-8.387-.139l-9.616-.06-9.615.059c-3.069.016-5.933.1-8.387.139s-4.5.131-5.933.167l-2.251.089,2.251.089c1.432.036,3.478.127,5.933.167s5.318.123,8.387.139l9.615.06,9.616-.061c3.069-.018,5.933-.1,8.387-.139s4.5-.13,5.933-.167l2.251-.088" transform="translate(-72.717 -22.393)" fill="#d3cabe"/>
            <path id="Trazado_1034257" data-name="Trazado 1034257" d="M272.092,334.312l-2.251-.088c-1.432-.037-3.478-.126-5.933-.167s-5.318-.121-8.388-.139l-9.615-.061-9.615.06c-3.069.015-5.933.1-8.388.139s-4.5.131-5.933.167l-2.25.089,2.25.089c1.432.036,3.479.127,5.933.167s5.319.123,8.388.139l9.615.059,9.615-.06c3.07-.018,5.933-.1,8.388-.139s4.5-.13,5.933-.167l2.251-.088" transform="translate(-77.275 -22.089)" fill="#d3cabe"/>
            <path id="Trazado_1034258" data-name="Trazado 1034258" d="M227.349,346.717a9.188,9.188,0,1,1,0-18.376H281.3v-3.029H227.1a12.217,12.217,0,1,0,0,24.435h54.2v-3.029Z" transform="translate(-81.96 -21.523)" fill="#f27740"/>
            <g id="Grupo_1176410" data-name="Grupo 1176410" transform="translate(89.381 303.789)" opacity="0.2" style="mix-blend-mode: multiply;isolation: isolate">
              <g id="Grupo_1176409" data-name="Grupo 1176409">
                <g id="Grupo_1176408" data-name="Grupo 1176408" clip-path="url(#clip-path-14)">
                  <path id="Trazado_1034259" data-name="Trazado 1034259" d="M330.05,325.312H305.888a12.217,12.217,0,1,0,0,24.435c0-22.7,24.161-24.435,24.161-24.435" transform="translate(-293.671 -325.312)" fill="#560410"/>
                </g>
              </g>
            </g>
            <g id="Grupo_1176413" data-name="Grupo 1176413" transform="translate(89.381 303.789)" opacity="0.16" style="mix-blend-mode: multiply;isolation: isolate">
              <g id="Grupo_1176412" data-name="Grupo 1176412">
                <g id="Grupo_1176411" data-name="Grupo 1176411" clip-path="url(#clip-path-15)">
                  <path id="Trazado_1034260" data-name="Trazado 1034260" d="M321.413,325.312H286.941c-.237,0-.473.008-.706.021v-.021H243.4a12.217,12.217,0,1,0,0,24.435h42.831v-.021c.233.013.469.021.706.021l38.974-24.027Z" transform="translate(-231.186 -325.312)" fill="#1b2942"/>
                </g>
              </g>
            </g>
            <path id="Trazado_1034261" data-name="Trazado 1034261" d="M308.808,306.031H278.56a8.628,8.628,0,1,1,0-17.256h30.248Z" transform="translate(-160.879 -19.106)" fill="#af1018"/>
            <path id="Trazado_1034262" data-name="Trazado 1034262" d="M308.808,306.031H278.56a8.628,8.628,0,1,1,0-17.256h30.248Z" transform="translate(-160.879 -19.106)" fill="#6fb590"/>
            <path id="Trazado_1034263" data-name="Trazado 1034263" d="M236.424,304.766h37.881v-13.7H236.424a6.5,6.5,0,0,0-6.5,6.5v.7a6.5,6.5,0,0,0,6.5,6.5" transform="translate(-89.016 -19.258)" fill="#fff"/>
            <path id="Trazado_1034264" data-name="Trazado 1034264" d="M236.423,291.065a6.5,6.5,0,0,0-6.5,6.487,6.49,6.49,0,0,1,6.346-5.135H274.3v-1.352Z" transform="translate(-89.015 -19.258)" fill="#d6c7b4"/>
            <g id="Grupo_1176416" data-name="Grupo 1176416" transform="translate(109.052 276.858)" opacity="0.49" style="mix-blend-mode: multiply;isolation: isolate">
              <g id="Grupo_1176415" data-name="Grupo 1176415">
                <g id="Grupo_1176414" data-name="Grupo 1176414" clip-path="url(#clip-path-16)">
                  <path id="Trazado_1034265" data-name="Trazado 1034265" d="M277.274,297.912a8.707,8.707,0,0,0,.159,1.633h31.861v-3.072H277.4a8.6,8.6,0,0,0-.13,1.439" transform="translate(-277.274 -296.473)" fill="#1b2942"/>
                </g>
              </g>
            </g>
            <path id="Trazado_1034266" data-name="Trazado 1034266" d="M237.213,303.892a6.489,6.489,0,0,1,0-12.978h38.1v-2.139h-38.28a8.628,8.628,0,0,0,0,17.256h38.28v-2.139Z" transform="translate(-88.608 -19.106)" fill="#2d4f3b"/>
            <g id="Grupo_1176419" data-name="Grupo 1176419" transform="translate(109.052 269.668)" opacity="0.49" style="mix-blend-mode: multiply;isolation: isolate">
              <g id="Grupo_1176418" data-name="Grupo 1176418">
                <g id="Grupo_1176417" data-name="Grupo 1176417" clip-path="url(#clip-path-17)">
                  <path id="Trazado_1034267" data-name="Trazado 1034267" d="M309.743,288.774H292.681a8.628,8.628,0,1,0,0,17.256c0-16.031,17.062-17.256,17.062-17.256" transform="translate(-284.052 -288.774)" fill="#1b2942"/>
                </g>
              </g>
            </g>
            <path id="Trazado_1034268" data-name="Trazado 1034268" d="M269.432,301.7l-1.5-.1c-.952-.043-2.312-.146-3.945-.193s-3.536-.134-5.576-.168-4.216-.052-6.392-.063c-2.176.01-4.352.018-6.392.063s-3.945.121-5.576.167-2.992.152-3.945.194l-1.5.1,1.5.1c.952.043,2.312.148,3.945.194s3.536.136,5.576.167,4.216.052,6.392.063c2.176-.011,4.353-.019,6.392-.063s3.945-.121,5.576-.167,2.993-.151,3.945-.194l1.5-.1" transform="translate(-88.524 -19.927)" fill="#d3cabe"/>
            <path id="Trazado_1034269" data-name="Trazado 1034269" d="M266.659,298.382l-1.5-.044-3.945-.1-5.576-.081-6.392-.035-6.392.035-5.576.08c-3.265.071-5.441.148-5.441.148s2.176.078,5.441.148l5.576.08,6.392.035,6.392-.036,5.576-.08,3.945-.1,1.5-.044" transform="translate(-83.162 -19.724)" fill="#d3cabe"/>
            <path id="Trazado_1034270" data-name="Trazado 1034270" d="M220.985,324.248h29.789a8.5,8.5,0,0,0,0-16.995H220.985Z" transform="translate(-65.636 -20.329)" fill="#af1018"/>
            <path id="Trazado_1034271" data-name="Trazado 1034271" d="M220.985,324.248h29.789a8.5,8.5,0,0,0,0-16.995H220.985Z" transform="translate(-65.636 -20.329)" fill="#fdb03e"/>
            <path id="Trazado_1034272" data-name="Trazado 1034272" d="M291.886,323H254.58V309.51h37.306a6.4,6.4,0,0,1,6.4,6.4v.687a6.4,6.4,0,0,1-6.4,6.4" transform="translate(-136.025 -20.478)" fill="#fff"/>
            <path id="Trazado_1034273" data-name="Trazado 1034273" d="M291.886,309.51a6.4,6.4,0,0,1,6.4,6.388,6.392,6.392,0,0,0-6.25-5.057H254.58V309.51Z" transform="translate(-136.025 -20.478)" fill="#d6c7b4"/>
            <path id="Trazado_1034274" data-name="Trazado 1034274" d="M235.472,315.751h0a8.5,8.5,0,0,0-8.5-8.5h5.618a8.5,8.5,0,1,1,0,16.994h-5.618a8.5,8.5,0,0,0,8.5-8.5" transform="translate(-53.048 -20.329)" fill="#bc8d2f"/>
            <path id="Trazado_1034275" data-name="Trazado 1034275" d="M290.933,322.141a6.39,6.39,0,1,0,0-12.781H253.411v-2.107h37.7a8.5,8.5,0,0,1,0,16.994h-37.7v-2.107Z" transform="translate(-136.251 -20.329)" fill="#bc8d2f"/>
            <g id="Grupo_1176422" data-name="Grupo 1176422" transform="translate(168.335 286.925)" opacity="0.2" style="mix-blend-mode: overlay;isolation: isolate">
              <g id="Grupo_1176421" data-name="Grupo 1176421">
                <g id="Grupo_1176420" data-name="Grupo 1176420" clip-path="url(#clip-path-18)">
                  <path id="Trazado_1034276" data-name="Trazado 1034276" d="M220.985,307.254h16.8a8.5,8.5,0,0,1,0,16.995c0-15.788-16.8-16.995-16.8-16.995" transform="translate(-220.985 -307.254)" fill="#fefefe"/>
                </g>
              </g>
            </g>
            <path id="Trazado_1034277" data-name="Trazado 1034277" d="M296.482,320.057l-1.557-.079c-.992-.034-2.407-.114-4.106-.151s-3.68-.11-5.8-.126l-6.654-.054-6.653.054c-2.124.013-4.105.091-5.8.125s-3.113.119-4.105.151l-1.557.08,1.557.08c.992.033,2.406.115,4.105.151s3.681.112,5.8.125l6.653.054,6.654-.054c2.124-.016,4.105-.092,5.8-.126s3.114-.118,4.106-.151l1.557-.079" transform="translate(-139.507 -21.149)" fill="#d3cabe"/>
            <path id="Trazado_1034278" data-name="Trazado 1034278" d="M294.109,318.164l-1.558-.079c-.991-.034-2.407-.114-4.105-.151s-3.68-.11-5.8-.126l-6.654-.054-6.653.054c-2.124.013-4.105.091-5.8.125s-3.114.119-4.105.151l-1.557.08,1.557.08c.991.033,2.406.115,4.105.151s3.681.112,5.8.125l6.653.054,6.654-.054c2.124-.016,4.105-.092,5.8-.126s3.114-.118,4.105-.151l1.558-.079" transform="translate(-134.918 -21.023)" fill="#d3cabe"/>
            <path id="Trazado_1034279" data-name="Trazado 1034279" d="M297.6,313.641l-1.558-.079c-.991-.034-2.406-.114-4.105-.151s-3.68-.11-5.8-.126l-6.654-.054-6.653.054c-2.124.013-4.105.091-5.8.125s-3.115.119-4.106.151l-1.557.08,1.557.08c.991.033,2.406.115,4.106.151s3.68.112,5.8.125l6.653.054,6.654-.054c2.124-.016,4.105-.092,5.8-.126s3.114-.118,4.105-.151l1.558-.079" transform="translate(-141.675 -20.724)" fill="#d3cabe"/>
            <g id="Grupo_1176425" data-name="Grupo 1176425" transform="translate(117.16 286.925)" opacity="0.16" style="mix-blend-mode: multiply;isolation: isolate">
              <g id="Grupo_1176424" data-name="Grupo 1176424">
                <g id="Grupo_1176423" data-name="Grupo 1176423" clip-path="url(#clip-path-19)">
                  <path id="Trazado_1034280" data-name="Trazado 1034280" d="M266.776,307.254v2.107h1.4v12.781h-1.4v2.108h5.655l28.059-16.995Z" transform="translate(-266.776 -307.254)" fill="#1b2942"/>
                </g>
              </g>
            </g>
            <rect id="Rectángulo_415778" data-name="Rectángulo 415778" width="5.043" height="7.613" transform="translate(173.776 276.305)" fill="#f27740"/>
            <path id="Trazado_1034281" data-name="Trazado 1034281" d="M234.615,295.867s.563.065,1.407.116c.422.017.914.054,1.442.063l1.654.027,1.654-.027c.528-.007,1.02-.046,1.442-.063.844-.049,1.407-.116,1.407-.116s-.563-.066-1.407-.116c-.422-.017-.914-.056-1.442-.063l-1.654-.027-1.654.027c-.528.008-1.02.046-1.442.063-.844.05-1.407.116-1.407.116" transform="translate(-62.713 -19.562)" fill="#d3cabe"/>
            <path id="Trazado_1034282" data-name="Trazado 1034282" d="M368.951,196.222s34.126,41.534,12.259,90.693c-37.951-32.851-12.834-74.477-12.259-90.693" transform="translate(-324.961 -12.983)" fill="#599172"/>
            <path id="Trazado_1034283" data-name="Trazado 1034283" d="M367.4,196.222s16.341,58.561,12.259,90.693" transform="translate(-323.414 -12.983)" fill="none" stroke="#427824" stroke-miterlimit="10" stroke-width="1"/>
            <path id="Trazado_1034284" data-name="Trazado 1034284" d="M387.4,235.645s-8.248-7.032-15.522-8.288" transform="translate(-334.664 -15.043)" fill="none" stroke="#427824" stroke-miterlimit="10" stroke-width="1"/>
            <path id="Trazado_1034285" data-name="Trazado 1034285" d="M388.529,266.05a31.1,31.1,0,0,0-20.5-11.564" transform="translate(-332.206 -16.837)" fill="none" stroke="#427824" stroke-miterlimit="10" stroke-width="1"/>
            <path id="Trazado_1034286" data-name="Trazado 1034286" d="M361.765,248.676s2.435-5.751,7.761-8.1" transform="translate(-307.356 -15.917)" fill="none" stroke="#427824" stroke-miterlimit="10" stroke-width="1"/>
            <path id="Trazado_1034287" data-name="Trazado 1034287" d="M370.433,221.658s1.8-6.146,4.255-7.608" transform="translate(-320.612 -14.162)" fill="none" stroke="#427824" stroke-miterlimit="10" stroke-width="1"/>
            <path id="Trazado_1034288" data-name="Trazado 1034288" d="M368.789,198.863s13.995,51.9-26.175,87.7c-21.056-45.564,18.975-73.154,26.175-87.7" transform="translate(-285.437 -13.157)" fill="#6fb590"/>
            <path id="Trazado_1034289" data-name="Trazado 1034289" d="M365.259,198.863s-9.224,60.094-26.175,87.7" transform="translate(-281.907 -13.157)" fill="none" stroke="#448260" stroke-miterlimit="10" stroke-width="1"/>
            <path id="Trazado_1034290" data-name="Trazado 1034290" d="M357.762,238.189s-4.62-9.8-10.732-13.944" transform="translate(-281.831 -14.837)" fill="none" stroke="#448260" stroke-miterlimit="10" stroke-width="1"/>
            <path id="Trazado_1034291" data-name="Trazado 1034291" d="M370.062,267.334a31.1,31.1,0,0,0-13.921-18.98" transform="translate(-302.64 -16.432)" fill="none" stroke="#448260" stroke-miterlimit="10" stroke-width="1"/>
            <path id="Trazado_1034292" data-name="Trazado 1034292" d="M339.609,251.483s4.587-4.237,10.407-4.183" transform="translate(-267.155 -16.362)" fill="none" stroke="#448260" stroke-miterlimit="10" stroke-width="1"/>
            <path id="Trazado_1034293" data-name="Trazado 1034293" d="M336.583,224.737s4.174-4.858,7.01-5.181" transform="translate(-257.907 -14.526)" fill="none" stroke="#448260" stroke-miterlimit="10" stroke-width="1"/>
            <path id="Trazado_1034294" data-name="Trazado 1034294" d="M427.118,218.631s-9.281-13.1-15.417-7.969,4.259,12.208,15.417,7.969" transform="translate(-409.874 -13.859)" fill="#417556"/>
            <path id="Trazado_1034295" data-name="Trazado 1034295" d="M410.7,253.364s-.39-16.046-8.344-15.218-3.28,12.506,8.344,15.218" transform="translate(-382.739 -15.754)" fill="#417556"/>
            <path id="Trazado_1034296" data-name="Trazado 1034296" d="M408.556,215.23s-.39-16.046-8.344-15.218-3.28,12.506,8.344,15.218" transform="translate(-378.595 -13.231)" fill="#417556"/>
            <path id="Trazado_1034297" data-name="Trazado 1034297" d="M372.121,265.963s13.979-7.889,9.508-14.519-12.58,2.985-9.508,14.519" transform="translate(-329.38 -16.492)" fill="#417556"/>
            <path id="Trazado_1034298" data-name="Trazado 1034298" d="M412.677,292.687s-15.505-9.9-9.38-35.916-18.055-37.331-23.379-39.457" transform="translate(-367.46 -14.378)" fill="none" stroke="#133f1a" stroke-linecap="round" stroke-miterlimit="10" stroke-width="2"/>
            <path id="Trazado_1034299" data-name="Trazado 1034299" d="M399.6,230.527s.942-11.491-4.7-19.109" transform="translate(-368.429 -13.988)" fill="none" stroke="#133f1a" stroke-linecap="round" stroke-miterlimit="10" stroke-width="2"/>
            <path id="Trazado_1034300" data-name="Trazado 1034300" d="M402.544,258.779s-9.166-2.519-12.58-11.105" transform="translate(-366.707 -16.387)" fill="none" stroke="#133f1a" stroke-linecap="round" stroke-miterlimit="10" stroke-width="2"/>
            <path id="Trazado_1034301" data-name="Trazado 1034301" d="M379.3,276.207s8.573-5.32,11.062-18.039" transform="translate(-344.557 -17.081)" fill="none" stroke="#133f1a" stroke-linecap="round" stroke-miterlimit="10" stroke-width="2"/>
            <path id="Trazado_1034302" data-name="Trazado 1034302" d="M366.816,285.637h24.231s-3.735,43.832-13.183,61.617h-22.1c-9.448-17.786-13.183-61.617-13.183-61.617Z" transform="translate(-310.966 -18.898)" fill="#2c4556"/>
            <g id="Grupo_1176428" data-name="Grupo 1176428" transform="translate(55.655 266.738)" opacity="0.45">
              <g id="Grupo_1176427" data-name="Grupo 1176427">
                <g id="Grupo_1176426" data-name="Grupo 1176426" clip-path="url(#clip-path-20)">
                  <path id="Trazado_1034303" data-name="Trazado 1034303" d="M367.011,285.637s-3.735,43.832-13.183,61.617H342.585c9.448-17.786,13.183-61.617,13.183-61.617Z" transform="translate(-342.585 -285.637)" fill="#1b2e38"/>
                </g>
              </g>
            </g>
            <path id="Trazado_1034304" data-name="Trazado 1034304" d="M391.047,285.637s-.307,3.606-.968,9.162H343.553c-.66-5.556-.968-9.162-.968-9.162h48.462Z" transform="translate(-310.966 -18.898)" fill="#4b72b7"/>
            <path id="Trazado_1034305" data-name="Trazado 1034305" d="M21.885,358.056a6.436,6.436,0,0,0,6.436,6.436h344.56a6.436,6.436,0,1,0,0-12.872H28.321a6.436,6.436,0,0,0-6.436,6.436" transform="translate(0.246 -23.264)" fill="#4b72b7"/>
            <g id="Grupo_1176431" data-name="Grupo 1176431" transform="translate(233.836 328.356)" opacity="0.52">
              <g id="Grupo_1176430" data-name="Grupo 1176430">
                <g id="Grupo_1176429" data-name="Grupo 1176429" clip-path="url(#clip-path-21)">
                  <path id="Trazado_1034306" data-name="Trazado 1034306" d="M21.885,358.056a6.436,6.436,0,0,0,6.436,6.436H161.176a6.436,6.436,0,1,0,0-12.872H28.321a6.436,6.436,0,0,0-6.436,6.436" transform="translate(-21.885 -351.62)" fill="#2c4556"/>
                </g>
              </g>
            </g>
          </g>
        </g>
        <path id="Trazado_1034307" data-name="Trazado 1034307" d="M9.669-7h2.116V3.036H9.669V1.042A4.531,4.531,0,0,1,5.838,3.316,4.4,4.4,0,0,1,2.451,1.759a5.445,5.445,0,0,1-1.4-3.783A5.328,5.328,0,0,1,2.463-5.7,4.345,4.345,0,0,1,5.789-7.278a4.233,4.233,0,0,1,2.238.645A4.586,4.586,0,0,1,9.669-4.955Zm.292,5.048A3.2,3.2,0,0,0,8.974-4.3,3.238,3.238,0,0,0,6.61-5.283a3.247,3.247,0,0,0-2.34.973,3.09,3.09,0,0,0-1,2.287A3.334,3.334,0,0,0,4.247.4a3.183,3.183,0,0,0,2.364,1A3.218,3.218,0,0,0,8.974.4,3.222,3.222,0,0,0,9.961-1.951Zm12.2-14.359h2.092v7.736a4.266,4.266,0,0,1,3.868-2.262A4.439,4.439,0,0,1,31.5-9.279a5.283,5.283,0,0,1,1.429,3.7,5.49,5.49,0,0,1-1.4,3.74,4.249,4.249,0,0,1-3.278,1.6A4.4,4.4,0,0,1,25.96-.887a4.647,4.647,0,0,1-1.7-1.751V-.522H22.165ZM30.692-5.582a3.2,3.2,0,0,0-.985-2.353,3.257,3.257,0,0,0-2.384-.979,3.2,3.2,0,0,0-2.341.991,3.2,3.2,0,0,0-.991,2.341A3.192,3.192,0,0,0,24.981-3.2a3.358,3.358,0,0,0,2.439.967,3.118,3.118,0,0,0,2.3-.985A3.25,3.25,0,0,0,30.692-5.582Zm19.3,5.553v2.42a6.317,6.317,0,0,1-3.138.924,4.994,4.994,0,0,1-3.643-1.563,4.967,4.967,0,0,1-1.563-3.618A5.22,5.22,0,0,1,43.2-5.739a5.329,5.329,0,0,1,3.9-1.539,6.513,6.513,0,0,1,2.883.73v2.36A5.637,5.637,0,0,0,46.97-5.21a3.254,3.254,0,0,0-2.3.924,2.88,2.88,0,0,0-.985,2.165A3.253,3.253,0,0,0,44.611.233a3.028,3.028,0,0,0,2.262.955A5.682,5.682,0,0,0,49.987-.029Z" transform="translate(282.765 75.901)" fill="#fff"/>
      </g>
    </g>
  </g>
</svg>
