<svg xmlns="http://www.w3.org/2000/svg" xmlns:xlink="http://www.w3.org/1999/xlink" width="118" height="118" viewBox="0 0 118 118">
  <defs>
    <filter id="Trazado_982547" x="0" y="0" width="118" height="118" filterUnits="userSpaceOnUse">
      <feOffset dy="3" input="SourceAlpha"/>
      <feGaussianBlur stdDeviation="3" result="blur"/>
      <feFlood flood-opacity="0.161"/>
      <feComposite operator="in" in2="blur"/>
      <feComposite in="SourceGraphic"/>
    </filter>
  </defs>
  <g id="Grupo_1176446" data-name="Grupo 1176446" transform="translate(-271.5 -2607.015)">
    <g id="Grupo_1173988" data-name="Grupo 1173988" transform="translate(280.5 2613.015)">
      <g id="Grupo_1172010" data-name="Grupo 1172010">
        <g id="Grupo_1171046" data-name="Grupo 1171046">
          <g id="Grupo_1148525" data-name="Grupo 1148525">
            <g transform="matrix(1, 0, 0, 1, -9, -6)" filter="url(#Trazado_982547)">
              <g id="Trazado_982547-2" data-name="Trazado 982547" transform="translate(9 6)" fill="#edf3fc">
                <path d="M 50 98.5 C 43.45188522338867 98.5 37.10042953491211 97.21787261962891 31.12207221984863 94.68923950195312 C 25.34691429138184 92.24655914306641 20.15997123718262 88.74931335449219 15.70532894134521 84.29468536376953 C 11.2506856918335 79.84004211425781 7.753442764282227 74.65309906005859 5.310757160186768 68.8779296875 C 2.782128572463989 62.89957046508789 1.5 56.54811477661133 1.5 50 C 1.5 43.45188522338867 2.782128572463989 37.10042953491211 5.310757160186768 31.12207221984863 C 7.753442764282227 25.34691429138184 11.2506856918335 20.15997123718262 15.70532894134521 15.70532894134521 C 20.15997123718262 11.2506856918335 25.34691429138184 7.753442764282227 31.12207221984863 5.310757160186768 C 37.10042953491211 2.782128572463989 43.45188522338867 1.5 50 1.5 C 56.54811477661133 1.5 62.89957046508789 2.782128572463989 68.8779296875 5.310757160186768 C 74.65309906005859 7.753442764282227 79.84004211425781 11.2506856918335 84.29468536376953 15.70532894134521 C 88.74931335449219 20.15997123718262 92.24655914306641 25.34691429138184 94.68923950195312 31.12207221984863 C 97.21787261962891 37.10042953491211 98.5 43.45188522338867 98.5 50 C 98.5 56.54811477661133 97.21787261962891 62.89957046508789 94.68923950195312 68.8779296875 C 92.24655914306641 74.65309906005859 88.74931335449219 79.84004211425781 84.29468536376953 84.29468536376953 C 79.84004211425781 88.74931335449219 74.65309906005859 92.24655914306641 68.8779296875 94.68923950195312 C 62.89957046508789 97.21787261962891 56.54811477661133 98.5 50 98.5 Z" stroke="none"/>
                <path d="M 50 3 C 43.65372467041016 3 37.49886322021484 4.242263793945312 31.70639801025391 6.6922607421875 C 26.11003112792969 9.059326171875 21.08335113525391 12.44861602783203 16.76598358154297 16.76598358154297 C 12.44861602783203 21.08335113525391 9.059326171875 26.11003112792969 6.6922607421875 31.70639801025391 C 4.242263793945312 37.49886322021484 3 43.65372467041016 3 50 C 3 56.34627532958984 4.242263793945312 62.50113677978516 6.6922607421875 68.29360198974609 C 9.059326171875 73.88996887207031 12.44861602783203 78.91666412353516 16.76598358154297 83.23401641845703 C 21.08335113525391 87.55138397216797 26.11003112792969 90.940673828125 31.70639801025391 93.3077392578125 C 37.49886322021484 95.75773620605469 43.65372467041016 97 50 97 C 56.34627532958984 97 62.50113677978516 95.75773620605469 68.29360198974609 93.3077392578125 C 73.88996887207031 90.940673828125 78.91666412353516 87.55138397216797 83.23401641845703 83.23401641845703 C 87.55138397216797 78.91666412353516 90.940673828125 73.88996887207031 93.3077392578125 68.29360198974609 C 95.75773620605469 62.50113677978516 97 56.34627532958984 97 50 C 97 43.65372467041016 95.75773620605469 37.49886322021484 93.3077392578125 31.70639801025391 C 90.940673828125 26.11003112792969 87.55138397216797 21.08335113525391 83.23401641845703 16.76598358154297 C 78.91666412353516 12.44861602783203 73.88996887207031 9.059326171875 68.29360198974609 6.6922607421875 C 62.50113677978516 4.242263793945312 56.34627532958984 3 50 3 M 50 0 C 77.61424255371094 0 100 22.38577270507812 100 50 C 100 77.61424255371094 77.61424255371094 100 50 100 C 22.38577270507812 100 0 77.61424255371094 0 50 C 0 22.38577270507812 22.38577270507812 0 50 0 Z" stroke="none" fill="#5692e8"/>
              </g>
            </g>
          </g>
        </g>
      </g>
    </g>
    <g id="adhd_10315385" transform="translate(292.801 2625.316)">
      <g id="Grupo_1174778" data-name="Grupo 1174778" transform="translate(7.5 7.5)">
        <g id="Grupo_1174777" data-name="Grupo 1174777" transform="translate(0 0)">
          <g id="Grupo_1174771" data-name="Grupo 1174771" transform="translate(8.647 13.003)">
            <g id="Grupo_1174767" data-name="Grupo 1174767" transform="translate(7.575 31.229)">
              <g id="Grupo_1174765" data-name="Grupo 1174765" transform="translate(0 10.431)">
                <path id="Trazado_1031928" data-name="Trazado 1031928" d="M318.436,459.142a14.328,14.328,0,0,0-.655-1.832h-6.486v4.046l1.689,1.689h2.468A3.085,3.085,0,0,0,318.436,459.142Z" transform="translate(-290.598 -457.31)" fill="#ffddcf"/>
                <path id="Trazado_1031929" data-name="Trazado 1031929" d="M148.213,457.31h-6.456a14.321,14.321,0,0,0-.655,1.832,3.085,3.085,0,0,0,2.984,3.9h2.438l1.688-1.689V457.31Z" transform="translate(-140.986 -457.31)" fill="#ffcbbe"/>
              </g>
              <g id="Grupo_1174766" data-name="Grupo 1174766" transform="translate(0.771 2.603)">
                <path id="Trazado_1031930" data-name="Trazado 1031930" d="M217.791,392.9h-6.532L207,397.162v9.3H221.36V404.2a32.766,32.766,0,0,0,4.8-3.477A14.478,14.478,0,0,0,217.791,392.9Z" transform="translate(-199.746 -392.9)" fill="#7ce3ff"/>
                <path id="Trazado_1031931" data-name="Trazado 1031931" d="M147.329,400.727a32.758,32.758,0,0,0,4.8,3.477v2.258h2.455a15.364,15.364,0,0,1,4.16-10.515l-3.046-3.047A14.476,14.476,0,0,0,147.329,400.727Z" transform="translate(-147.329 -392.9)" fill="#2ed0fc"/>
              </g>
              <path id="Trazado_1031932" data-name="Trazado 1031932" d="M221,371.477l-4.841,2.6A10.354,10.354,0,0,0,217.6,376.8a4.393,4.393,0,0,0,6.809,0,10.367,10.367,0,0,0,1.434-2.715Z" transform="translate(-207.027 -371.477)" fill="#ffcbbe"/>
            </g>
            <g id="Grupo_1174768" data-name="Grupo 1174768" transform="translate(0 12.969)">
              <circle id="Elipse_12362" data-name="Elipse 12362" cx="4.291" cy="4.291" r="4.291" fill="#ffcbbe"/>
              <circle id="Elipse_12363" data-name="Elipse 12363" cx="4.291" cy="4.291" r="4.291" transform="translate(34.521)" fill="#ffcbbe"/>
            </g>
            <g id="Grupo_1174769" data-name="Grupo 1174769" transform="translate(4.291 5.721)">
              <path id="Trazado_1031933" data-name="Trazado 1031933" d="M148.324,170.72l-8.618-9.146H123.056l-9.088,11.54,11.209,14.293a7.135,7.135,0,0,0,5.615,2.731h3.3a17.243,17.243,0,0,0,14.4-17.024A17.4,17.4,0,0,0,148.324,170.72Z" transform="translate(-113.968 -161.574)" fill="#ffddcf"/>
              <path id="Trazado_1031934" data-name="Trazado 1031934" d="M119.691,211.969a17.218,17.218,0,0,1,1.134-6.165h-3.584l-3.106,3.771a17.271,17.271,0,0,0,19.955,19.418A17.265,17.265,0,0,1,119.691,211.969Z" transform="translate(-113.969 -200.429)" fill="#ffcbbe"/>
            </g>
            <g id="Grupo_1174770" data-name="Grupo 1174770" transform="translate(4.457)">
              <path id="Trazado_1031935" data-name="Trazado 1031935" d="M189.077,116.442h-3.3l-9.217,3.922v5.254l2.4-.935a20.673,20.673,0,0,1,14.517,0,6.146,6.146,0,0,1,3.341,3.008,6.089,6.089,0,0,0,5.439,3.382h1.058A17.273,17.273,0,0,0,189.077,116.442Z" transform="translate(-169.122 -116.206)" fill="#e8b5b1"/>
              <path id="Trazado_1031936" data-name="Trazado 1031936" d="M135.288,114.736a17.278,17.278,0,0,0-19.955,14.631h1.1a6.089,6.089,0,0,0,5.4-3.382l.2-.389a17.284,17.284,0,0,1,13.265-10.86Z" transform="translate(-115.333 -114.5)" fill="#d6948c"/>
            </g>
          </g>
          <g id="Grupo_1174772" data-name="Grupo 1174772" transform="translate(34.937)">
            <path id="Trazado_1031937" data-name="Trazado 1031937" d="M355.387,7.5,349.25,9.731V24.282l5.49,2.431c7.867.3,13.377-4.575,13.377-9.6C368.117,12.524,363.321,7.5,355.387,7.5Z" transform="translate(-342.656 -7.5)" fill="#efedff"/>
            <path id="Trazado_1031938" data-name="Trazado 1031938" d="M301.99,18.619a5.986,5.986,0,0,1,2.266-6.33A13.154,13.154,0,0,1,307.718,7.5c-7.181,0-12.731,4.425-12.731,9.612,0,3.841,2.985,7.155,7.3,8.694a4.7,4.7,0,0,1-.1,2,1.2,1.2,0,0,0,1.609,1.4,7.814,7.814,0,0,0,3.277-2.5,13.153,13.153,0,0,1-3.141-5.034A5.937,5.937,0,0,1,301.99,18.619Z" transform="translate(-294.987 -7.5)" fill="#d4d4ff"/>
          </g>
          <g id="Grupo_1174773" data-name="Grupo 1174773" transform="translate(0 8.382)">
            <path id="Trazado_1031939" data-name="Trazado 1031939" d="M78.758,84.334c0-4.242-4.539-7.86-10.411-7.861l-3.433.606V91.171l3.962,1.013a11.57,11.57,0,0,0,2.53,1.912.951.951,0,0,0,1.465-1.016,3.843,3.843,0,0,1-.081-1.637C76.317,90.184,78.758,87.475,78.758,84.334Z" transform="translate(-57.937 -76.473)" fill="#efedff"/>
            <path id="Trazado_1031940" data-name="Trazado 1031940" d="M17.91,76.474c-6.488,0-10.41,4.108-10.41,7.861,0,4.109,4.506,8.094,10.94,7.85A11.51,11.51,0,0,1,17.91,76.474Z" transform="translate(-7.5 -76.474)" fill="#d4d4ff"/>
          </g>
          <g id="Grupo_1174774" data-name="Grupo 1174774" transform="translate(2.032 43.906)">
            <path id="Trazado_1031941" data-name="Trazado 1031941" d="M80.319,371.237a3.289,3.289,0,0,1,.069-1.4.839.839,0,0,0-1.125-.982A5.467,5.467,0,0,0,76.97,370.6l-3.358.913V382.45l2.9,1.6c5.024,0,8.908-3.1,8.908-6.725C85.424,374.632,83.336,372.314,80.319,371.237Z" transform="translate(-67.61 -368.791)" fill="#efedff"/>
            <path id="Trazado_1031942" data-name="Trazado 1031942" d="M33.583,383.632c-5.5-.208-9.36,3.2-9.36,6.717,0,3.21,3.356,6.725,8.907,6.725A9.848,9.848,0,0,1,33.583,383.632Z" transform="translate(-24.223 -381.821)" fill="#d4d4ff"/>
          </g>
          <g id="Grupo_1174775" data-name="Grupo 1174775" transform="translate(35.038 38.579)">
            <path id="Trazado_1031943" data-name="Trazado 1031943" d="M343.875,352.338l-3.169-.688V339.322h2.731c5.329-.2,9.062,3.1,9.062,6.5C352.5,348.934,349.25,352.338,343.875,352.338Z" transform="translate(-335.251 -337.568)" fill="#efedff"/>
            <path id="Trazado_1031944" data-name="Trazado 1031944" d="M301.4,333.309a8.913,8.913,0,0,0,3.044,6.412c-4.864,0-8.625-3-8.625-6.512,0-2.6,2.022-4.847,4.944-5.889a3.183,3.183,0,0,0-.067-1.356.812.812,0,0,1,1.09-.951,5.293,5.293,0,0,1,2.22,1.694A8.913,8.913,0,0,0,301.4,333.309Z" transform="translate(-295.816 -324.953)" fill="#d4d4ff"/>
          </g>
          <g id="Grupo_1174776" data-name="Grupo 1174776" transform="translate(16.25 30.804)">
            <ellipse id="Elipse_12364" data-name="Elipse 12364" cx="3.76" cy="2.994" rx="3.76" ry="2.994" transform="translate(0 0.932)" fill="#ff8e9e"/>
            <ellipse id="Elipse_12365" data-name="Elipse 12365" cx="3.76" cy="2.994" rx="3.76" ry="2.994" transform="translate(20.379 0.932)" fill="#ff8e9e"/>
            <ellipse id="Elipse_12366" data-name="Elipse 12366" cx="1.996" cy="2.233" rx="1.996" ry="2.233" transform="translate(11.954)" fill="#495560"/>
          </g>
        </g>
      </g>
      <g id="Grupo_1174788" data-name="Grupo 1174788" transform="translate(7.5 7.5)">
        <g id="Grupo_1174787" data-name="Grupo 1174787" transform="translate(0 0)">
          <g id="Grupo_1174780" data-name="Grupo 1174780">
            <g id="Grupo_1174779" data-name="Grupo 1174779">
              <path id="Trazado_1031945" data-name="Trazado 1031945" d="M183.877,392.9a10.373,10.373,0,0,1-1.434,2.715,4.393,4.393,0,0,1-6.809,0A10.359,10.359,0,0,1,174.2,392.9a14.459,14.459,0,0,0-5.806,3.879" transform="translate(-148.839 -346.064)" fill="none" stroke="#000" stroke-linejoin="round" stroke-miterlimit="10" stroke-width="1.3"/>
              <path id="Trazado_1031946" data-name="Trazado 1031946" d="M141.342,450.686a3.1,3.1,0,0,0,3.057,2.573h21.753a3.085,3.085,0,0,0,2.984-3.9,14.288,14.288,0,0,0-1.333-3.186" transform="translate(-125.077 -392.86)" fill="none" stroke="#000" stroke-linejoin="round" stroke-miterlimit="10" stroke-width="1.3"/>
              <path id="Trazado_1031947" data-name="Trazado 1031947" d="M137.469,115.672a17.286,17.286,0,0,0-15.661,1.61m23.415,24.551a17.257,17.257,0,0,0,.645-19.183M114.477,127.5a17.262,17.262,0,0,0,21.568,20.83" transform="translate(-101.007 -101.497)" fill="none" stroke="#000" stroke-linecap="round" stroke-linejoin="round" stroke-miterlimit="10" stroke-width="1.3"/>
              <path id="Trazado_1031948" data-name="Trazado 1031948" d="M307.718,7.5c-7.181,0-12.731,4.425-12.731,9.612,0,4.132,3.372,7.293,7.3,8.694a4.7,4.7,0,0,1-.1,2,1.2,1.2,0,0,0,1.609,1.4,7.831,7.831,0,0,0,3.277-2.5c7.867.3,13.377-4.575,13.377-9.6C320.448,12.524,315.652,7.5,307.718,7.5Z" transform="translate(-260.05 -7.5)" fill="none" stroke="#000" stroke-linecap="round" stroke-linejoin="round" stroke-miterlimit="10" stroke-width="1.3" stroke-dasharray="520 30 1000 0 1000 0"/>
              <path id="Trazado_1031949" data-name="Trazado 1031949" d="M22.434,93.08a3.843,3.843,0,0,1-.081-1.637c3.527-1.259,5.968-3.969,5.968-7.109,0-3.827-4.028-7.86-10.411-7.861-6.488,0-10.41,4.108-10.41,7.861,0,4.109,4.506,8.094,10.94,7.85A11.572,11.572,0,0,0,20.97,94.1.951.951,0,0,0,22.434,93.08Z" transform="translate(-7.5 -68.091)" fill="none" stroke="#000" stroke-linecap="round" stroke-linejoin="round" stroke-miterlimit="10" stroke-width="1.3"/>
              <path id="Trazado_1031950" data-name="Trazado 1031950" d="M42.037,377.32c0-2.879-2.335-5.094-5.106-6.083a3.289,3.289,0,0,1,.069-1.4.839.839,0,0,0-1.125-.982,5.467,5.467,0,0,0-2.292,1.749c-5.5-.208-9.36,3.2-9.36,6.717,0,3.21,3.356,6.725,8.907,6.725C38.547,384.045,42.037,380.633,42.037,377.32Z" transform="translate(-22.191 -324.885)" fill="none" stroke="#000" stroke-linecap="round" stroke-linejoin="round" stroke-miterlimit="10" stroke-width="1.3" stroke-dasharray="279 30 1000 0 1000 0"/>
              <path id="Trazado_1031951" data-name="Trazado 1031951" d="M313.064,333.209c0-3.188-3.275-6.286-8.07-6.5q-.486-.022-.993,0a5.293,5.293,0,0,0-2.22-1.694.813.813,0,0,0-1.09.951,3.183,3.183,0,0,1,.067,1.356c-2.922,1.043-4.944,3.288-4.944,5.889,0,3.212,3.376,6.512,8.625,6.512C309.815,339.721,313.064,336.318,313.064,333.209Z" transform="translate(-260.778 -286.373)" fill="none" stroke="#000" stroke-linecap="round" stroke-linejoin="round" stroke-miterlimit="10" stroke-width="1.3"/>
            </g>
          </g>
          <g id="Grupo_1174781" data-name="Grupo 1174781" transform="translate(20.638 30.267)">
            <line id="Línea_873" data-name="Línea 873" y2="1.458" fill="none" stroke="#000" stroke-linecap="round" stroke-linejoin="round" stroke-miterlimit="10" stroke-width="1.3"/>
            <ellipse id="Elipse_12367" data-name="Elipse 12367" cx="1.996" cy="2.233" rx="1.996" ry="2.233" transform="translate(7.565 0.538)" fill="none" stroke="#000" stroke-linecap="round" stroke-linejoin="round" stroke-miterlimit="10" stroke-width="1.3"/>
            <line id="Línea_874" data-name="Línea 874" y2="1.458" transform="translate(19.122)" fill="none" stroke="#000" stroke-linecap="round" stroke-linejoin="round" stroke-miterlimit="10" stroke-width="1.3"/>
          </g>
          <g id="Grupo_1174782" data-name="Grupo 1174782" transform="translate(8.508 49.355)">
            <path id="Trazado_1031952" data-name="Trazado 1031952" d="M77.51,419.787l2.313-6.073a.14.14,0,0,1,.258,0l2.292,6.073" transform="translate(-77.51 -413.627)" fill="none" stroke="#000" stroke-linecap="round" stroke-linejoin="round" stroke-miterlimit="10" stroke-width="1.3"/>
            <line id="Línea_875" data-name="Línea 875" x2="4.177" transform="translate(0.345 5.255)" fill="none" stroke="#000" stroke-linecap="round" stroke-linejoin="round" stroke-miterlimit="10" stroke-width="1.3"/>
          </g>
          <path id="Trazado_1031953" data-name="Trazado 1031953" d="M79.006,114.892H74.788l2.946-4.185a4.9,4.9,0,0,0,.886-1.841,2.1,2.1,0,0,0-2.082-2.394,2.119,2.119,0,0,0-2.078,1.707" transform="translate(-66.322 -94.445)" fill="none" stroke="#000" stroke-linecap="round" stroke-linejoin="round" stroke-miterlimit="10" stroke-width="1.3"/>
          <g id="Grupo_1174784" data-name="Grupo 1174784" transform="translate(41.746 3.645)">
            <path id="Trazado_1031954" data-name="Trazado 1031954" d="M387.729,71.239a2.145,2.145,0,0,1-1.979,2.31,2.171,2.171,0,0,1-2.032-2.3,2.125,2.125,0,0,1,2.085-2.2A1.992,1.992,0,0,1,387.729,71.239Z" transform="translate(-379.744 -65.217)" fill="none" stroke="#000" stroke-linecap="round" stroke-linejoin="round" stroke-miterlimit="10" stroke-width="1.3"/>
            <g id="Grupo_1174783" data-name="Grupo 1174783">
              <path id="Trazado_1031955" data-name="Trazado 1031955" d="M356.807,49.418a5.961,5.961,0,1,1,5.871-7.681,5.209,5.209,0,0,1-.309,3.511,2.259,2.259,0,0,1-2.076,1.5A1.406,1.406,0,0,1,359,45.274V41.261" transform="translate(-351.013 -37.496)" fill="none" stroke="#000" stroke-linecap="round" stroke-linejoin="round" stroke-miterlimit="10" stroke-width="1.3"/>
              <path id="Trazado_1031956" data-name="Trazado 1031956" d="M444.77,72.392a5.332,5.332,0,0,1-.309,3.511" transform="translate(-433.105 -68.151)" fill="none" stroke="#000" stroke-linecap="round" stroke-linejoin="round" stroke-miterlimit="10" stroke-width="1.3"/>
            </g>
          </g>
          <g id="Grupo_1174786" data-name="Grupo 1174786" transform="translate(40.016 46.836)">
            <g id="Grupo_1174785" data-name="Grupo 1174785">
              <line id="Línea_876" data-name="Línea 876" fill="none" stroke="#000" stroke-linecap="round" stroke-linejoin="round" stroke-miterlimit="10" stroke-width="1.3"/>
              <line id="Línea_877" data-name="Línea 877" transform="translate(3.646)" fill="none" stroke="#000" stroke-linecap="round" stroke-linejoin="round" stroke-miterlimit="10" stroke-width="1.3"/>
              <line id="Línea_878" data-name="Línea 878" transform="translate(7.292)" fill="none" stroke="#000" stroke-linecap="round" stroke-linejoin="round" stroke-miterlimit="10" stroke-width="1.3"/>
            </g>
          </g>
        </g>
        <path id="Trazado_1031957" data-name="Trazado 1031957" d="M83.479,221.254a4.291,4.291,0,1,0,0,8.516" transform="translate(-70.009 -195.248)" fill="none" stroke="#000" stroke-linecap="round" stroke-linejoin="round" stroke-miterlimit="10" stroke-width="1.3"/>
        <path id="Trazado_1031958" data-name="Trazado 1031958" d="M393.67,229.774a4.291,4.291,0,1,0,0-8.515" transform="translate(-346.74 -195.253)" fill="none" stroke="#000" stroke-linecap="round" stroke-linejoin="round" stroke-miterlimit="10" stroke-width="1.3"/>
        <path id="Trazado_1031959" data-name="Trazado 1031959" d="M329.987,457.31a32.767,32.767,0,0,1-4.8,3.477" transform="translate(-286.582 -402.646)" fill="none" stroke="#000" stroke-linejoin="round" stroke-miterlimit="10" stroke-width="1.3"/>
        <path id="Trazado_1031960" data-name="Trazado 1031960" d="M163.315,469.962a33.385,33.385,0,0,1-3.248-2.207" transform="translate(-141.526 -411.822)" fill="none" stroke="#000" stroke-linejoin="round" stroke-miterlimit="10" stroke-width="1.3"/>
        <line id="Línea_879" data-name="Línea 879" y1="3.716" transform="translate(38.608 56.683)" fill="none" stroke="#000" stroke-linecap="round" stroke-linejoin="round" stroke-miterlimit="10" stroke-width="1.3"/>
        <line id="Línea_880" data-name="Línea 880" y2="3.688" transform="translate(21.789 56.682)" fill="none" stroke="#000" stroke-linecap="round" stroke-linejoin="round" stroke-miterlimit="10" stroke-width="1.3"/>
        <path id="Trazado_1031961" data-name="Trazado 1031961" d="M115.327,181.037h1.057a6.014,6.014,0,0,0,5.439-3.382,5.744,5.744,0,0,1,3.341-3.008,20.5,20.5,0,0,1,14.517,0,6.147,6.147,0,0,1,3.341,3.008,6.088,6.088,0,0,0,5.439,3.382h1.058" transform="translate(-102.223 -153.167)" fill="none" stroke="#000" stroke-linejoin="round" stroke-miterlimit="10" stroke-width="1.3"/>
      </g>
    </g>
  </g>
</svg>
