<svg xmlns="http://www.w3.org/2000/svg" xmlns:xlink="http://www.w3.org/1999/xlink" width="108" height="108" viewBox="0 0 108 108">
  <defs>
    <filter id="Trazado_904820" x="0" y="0" width="108" height="108" filterUnits="userSpaceOnUse">
      <feOffset dy="3" input="SourceAlpha"/>
      <feGaussianBlur stdDeviation="3" result="blur"/>
      <feFlood flood-opacity="0.161"/>
      <feComposite operator="in" in2="blur"/>
      <feComposite in="SourceGraphic"/>
    </filter>
  </defs>
  <g id="Grupo_1176843" data-name="Grupo 1176843" transform="translate(9 6)">
    <g id="Grupo_1173585" data-name="Grupo 1173585" transform="translate(0 0)">
      <g id="Grupo_1173428" data-name="Grupo 1173428">
        <g id="Grupo_1171958" data-name="Grupo 1171958">
          <g id="Grupo_1167341" data-name="Grupo 1167341">
            <g id="Grupo_1166792" data-name="Grupo 1166792">
              <g transform="matrix(1, 0, 0, 1, -9, -6)" filter="url(#Trazado_904820)">
                <g id="Trazado_904820-2" data-name="Trazado 904820" transform="translate(9 6)" fill="#fdfbec">
                  <path d="M 44.99999618530273 88.50009918212891 C 39.12687301635742 88.50009918212891 33.43022155761719 87.35017395019531 28.06829643249512 85.08226013183594 C 22.88852119445801 82.89139556884766 18.23629570007324 79.75468444824219 14.24084663391113 75.75922393798828 C 10.24540901184082 71.76377105712891 7.108683586120605 67.11154937744141 4.917821407318115 61.93177032470703 C 2.649921178817749 56.56983184814453 1.499996185302734 50.8731689453125 1.499996185302734 45.00004577636719 C 1.499996185302734 39.12692260742188 2.649921178817749 33.43025970458984 4.917821407318115 28.06832122802734 C 7.108683586120605 22.88854598999023 10.24540901184082 18.23632049560547 14.24084663391113 14.24087047576904 C 18.23629570007324 10.2454080581665 22.88852119445801 7.108695983886719 28.06829643249512 4.91783332824707 C 33.43022155761719 2.649920701980591 39.12687301635742 1.499995827674866 44.99999618530273 1.499995827674866 C 50.87311935424805 1.499995827674866 56.56977081298828 2.649920701980591 61.93169784545898 4.91783332824707 C 67.11147308349609 7.108695983886719 71.76369476318359 10.2454080581665 75.75914764404297 14.24087047576904 C 79.75458526611328 18.23632049560547 82.89131164550781 22.88854598999023 85.08216857910156 28.06832122802734 C 87.35007476806641 33.43025970458984 88.5 39.12692260742188 88.5 45.00004577636719 C 88.5 50.8731689453125 87.35007476806641 56.56983184814453 85.08216857910156 61.93177032470703 C 82.89131164550781 67.11154937744141 79.75458526611328 71.76377105712891 75.75914764404297 75.75922393798828 C 71.76369476318359 79.75468444824219 67.11147308349609 82.89139556884766 61.93169784545898 85.08226013183594 C 56.56977081298828 87.35017395019531 50.87311935424805 88.50009918212891 44.99999618530273 88.50009918212891 Z" stroke="none"/>
                  <path d="M 44.99999618530273 3 C 39.32870864868164 3 33.82865142822266 4.110061645507812 28.65262603759766 6.299346923828125 C 23.65165710449219 8.414573669433594 19.15968322753906 11.44334411621094 15.301513671875 15.30152893066406 C 11.44333648681641 19.15970611572266 8.414566040039062 23.65167236328125 6.299339294433594 28.65264511108398 C 4.110054016113281 33.82868957519531 2.999992370605469 39.3287467956543 2.999992370605469 45.00004577636719 C 2.999992370605469 50.67134475708008 4.110054016113281 56.17140197753906 6.299339294433594 61.34744644165039 C 8.414566040039062 66.34841918945312 11.44333648681641 70.84039306640625 15.301513671875 74.69856262207031 C 19.15968322753906 78.55674743652344 23.65165710449219 81.58551788330078 28.65262603759766 83.70074462890625 C 33.82865142822266 85.89002990722656 39.32870864868164 87.00009155273438 44.99999618530273 87.00009155273438 C 50.67128372192383 87.00009155273438 56.17134094238281 85.89002990722656 61.34736633300781 83.70074462890625 C 66.34834289550781 81.58551788330078 70.84030914306641 78.55674743652344 74.69847869873047 74.69856262207031 C 78.55665588378906 70.84039306640625 81.58542633056641 66.34841918945312 83.70065307617188 61.34744644165039 C 85.88993835449219 56.17140197753906 87 50.67134475708008 87 45.00004577636719 C 87 39.3287467956543 85.88993835449219 33.82868957519531 83.70065307617188 28.65264511108398 C 81.58542633056641 23.65167236328125 78.55665588378906 19.15970611572266 74.69847869873047 15.30152893066406 C 70.84030914306641 11.44334411621094 66.34834289550781 8.414573669433594 61.34736633300781 6.299346923828125 C 56.17134094238281 4.110061645507812 50.67128372192383 3 44.99999618530273 3 M 44.99999618530273 0 C 69.85281372070312 0 90 20.14720153808594 90 45.00004577636719 C 90 69.85289001464844 69.85281372070312 90.00009155273438 44.99999618530273 90.00009155273438 C 20.14717864990234 90.00009155273438 -7.62939453125e-06 69.85289001464844 -7.62939453125e-06 45.00004577636719 C -7.62939453125e-06 20.14720153808594 20.14717864990234 0 44.99999618530273 0 Z" stroke="none" fill="#83793c"/>
                </g>
              </g>
            </g>
          </g>
        </g>
      </g>
    </g>
    <g id="learning_18496814" transform="translate(-38.017 -7.01)">
      <g id="Grupo_1176889" data-name="Grupo 1176889" transform="translate(59.285 29.716)">
        <path id="Trazado_1034966" data-name="Trazado 1034966" d="M66.28,246.18h47.466v26.7H93.817v2.523h-7.61v-2.523H66.28Z" transform="translate(-66.28 -225.109)" fill="#208380" fill-rule="evenodd"/>
        <path id="Trazado_1034967" data-name="Trazado 1034967" d="M120.812,221.156v20.968c-3.275-2.5-9.343-4.181-16.29-4.181-1.041,0-2.064.039-3.062.113V213.973c1-.075,2.021-.113,3.062-.113,6.947,0,13.016,1.679,16.29,4.181Z" transform="translate(-97.081 -196.812)" fill="#d71b5a" fill-rule="evenodd"/>
        <path id="Trazado_1034968" data-name="Trazado 1034968" d="M256.94,221.156v20.968c3.277-2.5,9.346-4.181,16.29-4.181q1.566,0,3.066.113V213.973q-1.5-.112-3.066-.113c-6.944,0-13.012,1.679-16.29,4.181Z" transform="translate(-233.209 -196.812)" fill="#f6851f" fill-rule="evenodd"/>
        <path id="Trazado_1034969" data-name="Trazado 1034969" d="M128.126,76.89a7.974,7.974,0,0,1,7.973,7.973c0,5.61-3.775,4.9-4.107,10.073h-7.734c-.329-5.225-4.107-4.477-4.107-10.073A7.978,7.978,0,0,1,128.126,76.89Z" transform="translate(-113.445 -76.89)" fill="#ffcd05" fill-rule="evenodd"/>
        <path id="Trazado_1034970" data-name="Trazado 1034970" d="M154.44,254.94h7.42v9.816l-3.535,5.772-3.885-5.772Z" transform="translate(-143.467 -232.778)" fill="#fff" fill-rule="evenodd"/>
        <path id="Trazado_1034971" data-name="Trazado 1034971" d="M144.527,221.89h8.527a.776.776,0,0,1,.773.777v2.565a.775.775,0,0,1-.773.773h-8.527a.779.779,0,0,1-.777-.773v-2.565A.778.778,0,0,1,144.527,221.89Z" transform="translate(-134.107 -203.842)" fill="#00b2ca" fill-rule="evenodd"/>
        <path id="Trazado_1034972" data-name="Trazado 1034972" d="M295.447,267.725l-.017-5.317,2.84-.039-2.815-4.213-2.819-4.216-2.7,4.294-2.7,4.29,2.84-.039-.014,4.819c0,.141,0,.279-.007.419Z" transform="translate(-259.737 -231.903)" fill="#fff" fill-rule="evenodd"/>
      </g>
      <path id="Trazado_1034973" data-name="Trazado 1034973" d="M94,64.54l-.014-4.319a.993.993,0,0,1,.981-.992l1.013-.014-3.768-5.638L88.6,59.321l1.016-.014a.987.987,0,0,1,1,.977c0,1.419-.007,2.837-.01,4.256ZM95.972,61.2l.017,4.336a.993.993,0,0,1-.994.994H89.606v0a.989.989,0,0,1-.992-1.034l.007-.377.011-3.814-1.789.025a.992.992,0,0,1-.9-1.521l5.394-8.585a.994.994,0,0,1,1.665-.021l5.635,8.429a.991.991,0,0,1-.812,1.542ZM70.995,46.769h5.948c.7-4.625,4-4.234,4-9.079a6.977,6.977,0,0,0-13.954,0C66.99,42.517,70.3,42.1,70.995,46.769Zm7.942.148a1.787,1.787,0,0,1,1.009,1.189,17.712,17.712,0,0,1,3.073,1.619c4.6-3.1,11.918-4.139,17.86-3.923.544.017,1.048.046,1.514.081a.993.993,0,0,1,.973.995v2.911h3.383a1,1,0,0,1,.994,1v26.7a.993.993,0,0,1-.994.995H87.821v1.53a1,1,0,0,1-1,.994h-7.61a.993.993,0,0,1-.994-.994V78.488H59.285a1,1,0,0,1-.995-.995V50.788a1,1,0,0,1,.995-1h3.383V46.878a.994.994,0,0,1,.977-.995c.466-.035.971-.063,1.514-.081,1.281-.046,2.252-.042,3.539.014C67.67,43.163,65,42.687,65,37.691a8.97,8.97,0,0,1,17.941,0C82.939,43.3,79.621,43.2,78.937,46.917ZM80,50.3c0,.79.1,1.44-.519,2.054a1.825,1.825,0,0,1-.812.462v8.877a.994.994,0,0,1-.183.579l-3.5,5.712a1,1,0,0,1-1.673.035v0l-3.888-5.772a.98.98,0,0,1-.169-.558V52.817a1.8,1.8,0,0,1-.808-.462h0a1.775,1.775,0,0,1-.519-1.248V48.541a1.755,1.755,0,0,1,.173-.758c-1.09-.035-2.381-.025-3.444.029v22.1c5.811-.271,12.61.607,17.358,3.288V51.452A13.576,13.576,0,0,0,80,50.3Zm-3.32,2.572H71.252v7.283h5.431Zm1.327-4.11H69.927v2.121H78.01ZM76.238,62.145H71.761l2.346,3.483Zm-16.3-23.11a1,1,0,0,1,0-1.993h1.881a1,1,0,0,1,0,1.993Zm1.383-7.156a.993.993,0,1,1,.994-1.719l1.627.942a.993.993,0,1,1-.995,1.719Zm4.773-5.5a.993.993,0,1,1,1.719-.995l.942,1.627a.994.994,0,0,1-1.721.995ZM88,37.041a1,1,0,0,1,0,1.993H86.12a1,1,0,0,1,0-1.993Zm-2.377-6.881a.993.993,0,1,1,.995,1.719l-1.627.942A.993.993,0,1,1,84,31.1Zm-5.5-4.773a.992.992,0,1,1,1.718.995L80.9,28.009a.994.994,0,1,1-1.721-.995ZM72.971,24a1,1,0,0,1,1.993,0v1.881a1,1,0,0,1-1.993,0Zm1.993,16.756v2.523a1,1,0,0,1-1.993,0V40.761a2.9,2.9,0,1,1,1.993,0ZM74.608,37.4a.907.907,0,1,0,0,1.281.908.908,0,0,0,0-1.281Zm9.406,35.8c4.748-2.681,11.548-3.56,17.362-3.288v-22.1c-5.645-.293-13.051.65-17.362,3.641Zm19.352-21.414V70.962a1,1,0,0,1-1.065.992,38.712,38.712,0,0,0-12.12.971,18.739,18.739,0,0,0-6.51,2.858.988.988,0,0,1-1.306,0,18.729,18.729,0,0,0-6.513-2.858,38.74,38.74,0,0,0-12.12-.971,1,1,0,0,1-1.065-.992V51.782H60.283V76.5H79.212a.993.993,0,0,1,.995.995V79.02h5.621V77.492a.993.993,0,0,1,.995-.995h18.933V51.782Z"/>
    </g>
  </g>
</svg>
