<svg xmlns="http://www.w3.org/2000/svg" xmlns:xlink="http://www.w3.org/1999/xlink" width="400" height="278" viewBox="0 0 400 278">
  <defs>
    <clipPath id="clip-path">
      <rect id="Rectángulo_415908" data-name="Rectángulo 415908" width="400" height="278" transform="translate(1020 2006)" fill="#fff" stroke="#707070" stroke-width="1" opacity="0.38"/>
    </clipPath>
    <clipPath id="clip-path-2">
      <rect id="Rectángulo_415891" data-name="Rectángulo 415891" width="247.403" height="265.338" fill="none"/>
    </clipPath>
    <clipPath id="clip-path-4">
      <rect id="Rectángulo_415886" data-name="Rectángulo 415886" width="145.999" height="192.233" fill="none"/>
    </clipPath>
    <clipPath id="clip-path-5">
      <rect id="Rectángulo_415888" data-name="Rectángulo 415888" width="7.978" height="29.786" fill="none"/>
    </clipPath>
    <clipPath id="clip-path-6">
      <rect id="Rectángulo_415889" data-name="Rectángulo 415889" width="26.207" height="11.861" fill="none"/>
    </clipPath>
    <clipPath id="clip-path-7">
      <rect id="Rectángulo_415907" data-name="Rectángulo 415907" width="323.276" height="188.051" fill="none"/>
    </clipPath>
    <clipPath id="clip-path-9">
      <rect id="Rectángulo_415896" data-name="Rectángulo 415896" width="10.478" height="2.342" fill="none"/>
    </clipPath>
    <clipPath id="clip-path-10">
      <rect id="Rectángulo_415897" data-name="Rectángulo 415897" width="9.823" height="2.671" fill="none"/>
    </clipPath>
    <clipPath id="clip-path-11">
      <rect id="Rectángulo_415898" data-name="Rectángulo 415898" width="9.351" height="7.939" fill="none"/>
    </clipPath>
    <clipPath id="clip-path-12">
      <rect id="Rectángulo_415899" data-name="Rectángulo 415899" width="23.685" height="2.939" fill="none"/>
    </clipPath>
    <clipPath id="clip-path-13">
      <rect id="Rectángulo_415900" data-name="Rectángulo 415900" width="4.658" height="1.774" fill="none"/>
    </clipPath>
    <clipPath id="clip-path-14">
      <rect id="Rectángulo_415901" data-name="Rectángulo 415901" width="3.457" height="3.44" fill="none"/>
    </clipPath>
  </defs>
  <g id="Enmascarar_grupo_1098747" data-name="Enmascarar grupo 1098747" transform="translate(-1020 -2006)" clip-path="url(#clip-path)">
    <g id="Grupo_1176675" data-name="Grupo 1176675" transform="translate(1097.539 2017.366)">
      <g id="Grupo_1176674" data-name="Grupo 1176674" transform="translate(0 0)" clip-path="url(#clip-path-2)">
        <rect id="Rectángulo_415884" data-name="Rectángulo 415884" width="244.953" height="143.652" transform="translate(2.45 0.001)" fill="#b2b2b2"/>
        <rect id="Rectángulo_415885" data-name="Rectángulo 415885" width="238.618" height="137.378" transform="translate(5.618 3.137)" fill="#5c844c"/>
        <g id="Grupo_1176673" data-name="Grupo 1176673">
          <g id="Grupo_1176672" data-name="Grupo 1176672" clip-path="url(#clip-path-2)">
            <path id="Trazado_1034605" data-name="Trazado 1034605" d="M101.572,115.74c-8.247-6.7-16.453-13.445-24.1-20.908C69.4,86.963,62.7,77.946,56.023,68.774c-5.058-6.95-9.7-14.219-14.263-21.537-3.8-6.1-7.436-12.388-11.466-18.34-3.436-4.3-7.171-8.326-10.792-12.452-2.294-2.612-4.545-5.267-6.646-8.055-1.15-1.525-2.313-3.057-3.46-4.607H6.777V141.163H138.091a299.614,299.614,0,0,1-36.519-25.423" transform="translate(-1.16 -0.648)" fill="#4b6b3c"/>
            <path id="Trazado_1034606" data-name="Trazado 1034606" d="M79.232,87.8,69.26,91.149A207.082,207.082,0,0,1,63.2,58.922q-.5-4.758-.792-9.537c-.056-.93-1.525-.937-1.468,0a209.333,209.333,0,0,0,4.776,33.606q1.057,4.67,2.329,9.288a.742.742,0,0,0,.9.509L79.622,89.2c.89-.3.509-1.7-.39-1.4" transform="translate(-10.43 -8.333)" fill="#e0e0e0"/>
            <path id="Trazado_1034607" data-name="Trazado 1034607" d="M95.874,88.433c-1.959.931-4.427,2.083-6.531.882a2.911,2.911,0,0,1-1.368-1.949q1.591-1.338,3.058-2.81a16.935,16.935,0,0,0,2.876-3.415,4.491,4.491,0,0,0,.425-3.861A3.12,3.12,0,0,0,91.368,75.3c-3.069.027-4.375,3.082-4.815,5.635a20.118,20.118,0,0,0-.246,5.043c.022.274.05.552.085.83a.631.631,0,0,0,.163.9,4.359,4.359,0,0,0,1.194,2.23,5.373,5.373,0,0,0,3.885,1.332,13.131,13.131,0,0,0,4.98-1.583c.851-.405.107-1.659-.742-1.257m-8.066-5.912c.193-1.952.629-5.01,2.889-5.661a1.786,1.786,0,0,1,2.24.859,3.093,3.093,0,0,1-.377,2.827,17.235,17.235,0,0,1-2.753,3.169q-1,.992-2.061,1.921a19.068,19.068,0,0,1,.061-3.116" transform="translate(-14.762 -12.889)" fill="#e0e0e0"/>
            <path id="Trazado_1034608" data-name="Trazado 1034608" d="M109.351,81.358c-1.546-.786-3.448-1.368-4.365-2.954a1.962,1.962,0,0,1,.041-2.23,2.086,2.086,0,0,1,2.028-.8c.92.2,1.314-1.2.39-1.4a3.584,3.584,0,0,0-3.943,1.909,3.92,3.92,0,0,0,1.252,4.52c1.387,1.266,3.224,1.741,4.782,2.737,1.074.685,2.465,2.389,1.475,3.682a2.239,2.239,0,0,1-2.195.629,6.512,6.512,0,0,1-2.745-1.6c-.716-.606-1.76.419-1.04,1.028,1.445,1.223,3.112,2.348,5.1,2a3.1,3.1,0,0,0,2.586-3.643,5.633,5.633,0,0,0-3.37-3.881" transform="translate(-17.663 -12.647)" fill="#e0e0e0"/>
            <path id="Trazado_1034609" data-name="Trazado 1034609" d="M121.731,81.212c-1.47-1.143-3.814-1.354-4.777-3.075a3.42,3.42,0,0,1,.68-4.192,2.759,2.759,0,0,1,2.747-.51,2.022,2.022,0,0,1,1.213,2.144c-.19.914,1.225,1.3,1.416.385a3.524,3.524,0,0,0-3.211-4.142A4.457,4.457,0,0,0,115.273,75a4.876,4.876,0,0,0,1.334,5.011,11.671,11.671,0,0,0,2.911,1.593,4.089,4.089,0,0,1,2.209,1.82,1.676,1.676,0,0,1-1.152,2.169c-1.249.506-2.69.012-3.9-.357a.729.729,0,0,0-.39,1.4c2.025.614,4.437,1.118,6.125-.527a2.889,2.889,0,0,0,.884-2.506,3.861,3.861,0,0,0-1.558-2.392" transform="translate(-19.694 -12.291)" fill="#e0e0e0"/>
            <path id="Trazado_1034610" data-name="Trazado 1034610" d="M133.456,72.489a6.607,6.607,0,0,0-5.775,1.328,6.076,6.076,0,0,0-2.244,6.206c.543,2.392,2.585,5.386,5.378,5.278,2.66-.1,4.133-3.191,4.863-5.357.853-2.537.86-5.531-1.133-7.552a.7.7,0,0,0-1.089.1m1.082,6.111a11.354,11.354,0,0,1-1.088,2.8,4.889,4.889,0,0,1-1.973,2.293c-2.067.908-3.9-1.789-4.436-3.39a4.64,4.64,0,0,1,1.207-5.051,5.107,5.107,0,0,1,5.285-1.2.6.6,0,0,0,.464-.023,5.8,5.8,0,0,1,.541,4.577" transform="translate(-21.443 -12.353)" fill="#e0e0e0"/>
            <path id="Trazado_1034611" data-name="Trazado 1034611" d="M153.57,67.762q.179,4.758-.065,9.514-1.248-1.467-2.495-2.935c-.608-.714-1.212-1.427-1.82-2.141a13.408,13.408,0,0,0-1.667-1.858,2.607,2.607,0,0,0-1.864-.7,1.439,1.439,0,0,0-1.155.846.812.812,0,0,0-.774-.236.746.746,0,0,0-.512.894,109.659,109.659,0,0,1,.988,11.627.736.736,0,0,0,1.47,0q.044-4.869.09-9.737,0-.573.011-1.145c0-.125-.074-.719.044-.8.231-.163.871.449,1.012.6,1.115,1.155,2.1,2.462,3.14,3.685l3.639,4.283c.443.521,1.215.058,1.253-.516a107.393,107.393,0,0,0,.173-11.376c-.035-.933-1.5-.938-1.467,0" transform="translate(-24.511 -11.478)" fill="#e0e0e0"/>
            <path id="Trazado_1034612" data-name="Trazado 1034612" d="M201.621,65.285q-3.342.433-6.657,1.025.2-2.094.467-4.182,1.363-.17,2.723-.364a.732.732,0,0,0,.513-.9.755.755,0,0,0-.9-.507q-1.07.152-2.143.289.415-3.107.953-6.2c.159-.916-1.256-1.309-1.416-.387q-.586,3.373-1.033,6.768-2.52.3-5.049.514a49.94,49.94,0,0,1,.466-6.927.753.753,0,0,0-.512-.9.741.741,0,0,0-.9.508,52.881,52.881,0,0,0-.5,7.43q-3.343.255-6.7.369c-.942.032-.946,1.487,0,1.455q3.366-.114,6.72-.373.076,2.416.371,4.817-3.032.7-6.032,1.547a.728.728,0,0,0,.39,1.4q2.9-.817,5.842-1.505A51.514,51.514,0,0,0,190,76.857c.279.89,1.7.511,1.416-.387a51.067,51.067,0,0,1-1.764-7.62q1.833-.409,3.677-.768-.232,2.684-.378,5.375c-.049.936,1.419.933,1.47,0q.152-2.831.4-5.655,3.383-.618,6.8-1.062a.757.757,0,0,0,.735-.728.735.735,0,0,0-.735-.727m-12.164,2.123q-.283-2.3-.357-4.611,2.421-.208,4.837-.488-.262,2.135-.467,4.276-2.014.382-4.012.823" transform="translate(-30.847 -9.158)" fill="#e0e0e0"/>
            <path id="Trazado_1034613" data-name="Trazado 1034613" d="M233.3,77.755l-5.857.26A136.237,136.237,0,0,1,232.3,50.776c.346-1.211.735-2.409,1.091-3.618a4.225,4.225,0,0,0-.075-3.329.746.746,0,0,0-1-.261q-7.512,4.645-14.821,9.6c-.776.525-.043,1.786.74,1.256q6.917-4.687,14.017-9.1a6.072,6.072,0,0,1-.417,1.911q-.492,1.571-.947,3.154-.936,3.269-1.706,6.581-1.552,6.68-2.428,13.488-.5,3.8-.78,7.623l-11.307.5c-.942.041-.947,1.5,0,1.455L233.3,79.21c.941-.041.947-1.5,0-1.455" transform="translate(-36.62 -7.44)" fill="#e0e0e0"/>
            <g id="Grupo_1176665" data-name="Grupo 1176665" transform="translate(5.913 36.832)" opacity="0.2">
              <g id="Grupo_1176664" data-name="Grupo 1176664">
                <g id="Grupo_1176663" data-name="Grupo 1176663" clip-path="url(#clip-path-4)">
                  <path id="Trazado_1034614" data-name="Trazado 1034614" d="M127.569,91.8a2.443,2.443,0,0,0-2.35-2.425l27.914-44.935L119.5,90.521a1.623,1.623,0,0,0-1.717.536,11.182,11.182,0,0,1-4.269,3.4c-2.84.738-7.015,5.25-6.924,9.194a5.711,5.711,0,0,1-.937,3.166,9.983,9.983,0,0,1-.14-1.906c-16.7,19.826-23.922,26.906-24.762,4.178.173-2.456.28-3.88.28-3.88a12.557,12.557,0,0,0-.353-3.086c0-.022,0-.044,0-.066l-.016,0c-1.587-6.311-8.025-9.537-13.722-10.679a13.159,13.159,0,0,0-6.773-2.43l-.013.975v-1c3.635-1.329,6.326-5.95,6.326-10.444l-.172-8.248c1.914-.705,2.522-2.471,2.522-4.54,0-2.032-.591-3.77-2.426-4.5.278-7.973-4.952-12.676-13.043-12.676-8.81,0-11.659,3.812-13.226,7.462q-.174.384-.321.781c-.012.033-.026.067-.038.1a12.805,12.805,0,0,0-.734,4.18c-2.077.61-2.858,2.46-2.858,4.651,0,2.217.8,4.087,2.928,4.675v8.177c0,4.281,2.117,8.561,5.547,10.141v.833a5.808,5.808,0,0,0-3.788,1.1l-.015-.034-6.579.643a19.229,19.229,0,0,0-10.03,3.877,7.558,7.558,0,0,0-2.747,2.8q-.9,1.6-1.806,3.183c-3.937,6.926-7.654,13.468-10,19.271-2.245,5.544-4.54,13.537.291,19.806,3.23,4.191,9.4,5.289,15.822,5l.139.873c1.2,10.117.995,12.464,1.263,17.36a10.476,10.476,0,0,0,1.924,1.134c.035.525.107,1.276.246,2.347l.341,4.034c-.178,10.689.078,20.37.078,20.37a389.107,389.107,0,0,0,1.39,45.382H48.309c.043-13.99.127-32.075.19-44.325.024-4.285.046-6.338.066-9.631q1.484.2,3.119.317c1.034.075,2.015.123,2.953.148-.119,3.6-.186,5.562-.222,9.5.022,12.037.133,29.5-.126,43.991h16.1c1.524-17.505,2.021-28.9,2.021-42.9L72.4,193.7h.018c.17-6.312.32-12.344.493-17.824l.748-9.219h0l.19-2.341a12.741,12.741,0,0,0,4.394-2.383c.058-6.459.316-13.928.653-21.281,8.327,3.958,20.414-1.516,34.949-22.176a4.49,4.49,0,0,1-2.774-1.134l3.521-4.045a3.115,3.115,0,0,1,1.012-.561c4.348-2.256,6.919-3,9.156-4.374,1.725-1.056,1.906-2.38.859-4.057,1.967-1.28,2.13-3.423.388-4.85,1.8-2.03,1.506-2.97-.388-4.448a4.415,4.415,0,0,0,1.953-3.2" transform="translate(-7.134 -44.438)" fill="#1d1d1b"/>
                </g>
              </g>
            </g>
            <path id="Trazado_1034615" data-name="Trazado 1034615" d="M49.4,313.688a5.6,5.6,0,0,1-4.913,3.2c-2.513.24-6.756.53-10.579-1.683-2.525-1.46-2.942-3.141-3.514-4.979-1.067-5,1.4-6.706,2.473-8.1,1.533,2.339,3.645,2.963,6.456,1.513.856,2.525,7.11,4.536,9.077,4.254,2.153-.309,1,5.792,1,5.792" transform="translate(-5.158 -51.712)" fill="#161616"/>
            <path id="Trazado_1034616" data-name="Trazado 1034616" d="M49.306,311.054A5.638,5.638,0,0,1,44.424,314c-2.512.24-7.183.075-9.719-1.459a8.672,8.672,0,0,1-4.348-5.615c-.228-3.514,1.123-6.631,1.45-8.069,1.533,2.339,10.7.968,13.514-.482.271,2.206,0,4.709,1.666,5.869a5.543,5.543,0,0,1,2.319,6.811" transform="translate(-5.191 -51.069)" fill="#2c2c2d"/>
            <path id="Trazado_1034617" data-name="Trazado 1034617" d="M84.883,313.155a1.773,1.773,0,0,1-.525.971c-1.439,1.343-3.011,1.67-6.578,1.862a45.922,45.922,0,0,1-14.57-2.1c-4.264-1.416-6.322-2.732-7.667-4.409-.659-3.736.173-6.024,1.994-7.351,2.6,2.232,6.191,2.827,10.966,1.444,1.455,2.409,8.909,4.252,12.251,3.983,3.657-.3,4.958,2.3,4.128,5.6" transform="translate(-9.468 -51.712)" fill="#161616"/>
            <path id="Trazado_1034618" data-name="Trazado 1034618" d="M85.318,310.494c-1.572,1.707-4.291,2.622-8.21,2.833a40.75,40.75,0,0,1-13.7-2.133c-4.264-1.417-6.518-2.7-7.863-4.376-.659-3.736.172-6.025,1.993-7.351,2.605,2.232,6.192,2.827,10.967,1.444,1.454,2.409,8.058,4.369,11.4,4.1,3.657-.3,6.244,2.183,5.414,5.484" transform="translate(-9.468 -51.256)" fill="#2c2c2d"/>
            <path id="Trazado_1034619" data-name="Trazado 1034619" d="M25.927,181.418l1.1,12.946c-.179,10.69.076,20.371.076,20.371-.945,26.885,2.06,53.439,3.378,64.967,4.409,1.766,10.079,1.126,15.118-.864-.051-8.632.108-43.368.208-63.047.025-4.284.046-6.338.066-9.63q1.484.194,3.119.316c1.033.075,2.015.123,2.953.148-.119,3.6-.185,5.561-.221,9.5.032,18.63.284,50.253-.963,63.763a18.8,18.8,0,0,0,15.063.01c3.019-30.013,3.9-44.029,3.9-62.679,0-.027-.011-.052-.016-.079l.017,0c.169-6.313.319-12.345.492-17.825l1.454-17.9Z" transform="translate(-4.438 -31.051)" fill="#3f3a48"/>
            <path id="Trazado_1034620" data-name="Trazado 1034620" d="M26.78,191.449s21.955,5.767,44.279-.231l.2-3.208-44.737-.053a14.828,14.828,0,0,0,.259,3.492" transform="translate(-4.536 -32.17)" fill="#2c2835"/>
            <path id="Trazado_1034621" data-name="Trazado 1034621" d="M47.225,294.889l-.466,4.842c-5.791,2.589-10.574,2.469-16.2,0l.039-4.842c5.482,1.258,10.345,1.056,16.63,0" transform="translate(-5.23 -50.473)" fill="#2c2835"/>
            <path id="Trazado_1034622" data-name="Trazado 1034622" d="M72.228,295.313l-.465,4.841c-3.72,2.84-10.574,2.47-16.2,0l.269-5.266a38.828,38.828,0,0,0,16.4.424" transform="translate(-9.509 -50.473)" fill="#2c2835"/>
            <path id="Trazado_1034623" data-name="Trazado 1034623" d="M118.56,117.4s1.639.026,5.712,6.674c3.815,6.23,2.618,6.888,2.618,6.888s-3.24.443-6.737-4.116-1.968-9.256-1.593-9.445" transform="translate(-20.18 -20.094)" fill="#182138"/>
            <path id="Trazado_1034624" data-name="Trazado 1034624" d="M128.213,107.142l-8.582,10.3,4.041,7.216,13.716-6.269V103.906Z" transform="translate(-20.476 -17.784)" fill="#9b472a"/>
            <path id="Trazado_1034625" data-name="Trazado 1034625" d="M124.833,102.6a2.491,2.491,0,0,0,.2,3.194,2.805,2.805,0,0,0,4.385-.4l37.866-60.957Z" transform="translate(-21.283 -7.606)" fill="#54443b"/>
            <path id="Trazado_1034626" data-name="Trazado 1034626" d="M138.177,104.279a4.416,4.416,0,0,0,1.953-3.2,2.5,2.5,0,0,0-2.979-2.4l-2.519.39a2.457,2.457,0,0,0-2.134,2.387,2.483,2.483,0,0,0,2.543,2.419h.83l-5.977,2.633a2.077,2.077,0,0,0-1.269,1.889,2.172,2.172,0,0,0,2.854,1.983l1.411-.428-3.518,1.726a2.008,2.008,0,0,0-1.15,1.852,2.1,2.1,0,0,0,2.622,1.908l3.549-.813c-1.459.6-2.385.591-3.661,1.45-.619.417-1.514,2.639,1.247,2.795-1.438,1.247-3.249.467-3.993.762-.571.227-1.851.58-2.417.806-1.226.49-3-.425-4.049-1.958-.661-.967-.333-2.1.054-3.208,1.652-4.722,5.891-7.39,10.189-10.95a1.921,1.921,0,0,0-.316-2.815c-.806-.609-2.155-.725-2.715.1a11.182,11.182,0,0,1-4.269,3.4c-2.84.738-5.4,3.986-5.31,7.93a6.1,6.1,0,0,1-1.676,4.145l-2.4,2.683,6.958,8.7,5.121-5.883a3.111,3.111,0,0,1,1.013-.561c4.347-2.257,6.918-3,9.155-4.374,1.725-1.056,1.907-2.38.859-4.057,1.968-1.281,2.13-3.423.388-4.85,1.8-2.031,1.506-2.97-.388-4.448" transform="translate(-19.695 -16.883)" fill="#af5936"/>
            <path id="Trazado_1034627" data-name="Trazado 1034627" d="M110.631,116.808c-18.234,21.647-25.184,28.1-24.849-2.85l-14.117,2.85c-1.542,34.955,17.852,55.411,47.3,13.561-4.456,0-8.489-9.187-8.33-13.561" transform="translate(-12.251 -19.505)" fill="#1e2744"/>
            <rect id="Rectángulo_415887" data-name="Rectángulo 415887" width="15.494" height="22.781" transform="translate(37.527 64.573)" fill="#af5936"/>
            <path id="Trazado_1034628" data-name="Trazado 1034628" d="M66.943,101.971A80.578,80.578,0,0,0,57.8,99.318c-.055,1.918-1.465,3.426-3.848,4.642a16.9,16.9,0,0,1-11.767-4.143,69.82,69.82,0,0,1-14.05,2.114c-.5.032,0,70.244,0,70.244s18.341,1.9,26.471,1.744A81.533,81.533,0,0,0,71.59,171.36Z" transform="translate(-4.777 -16.999)" fill="#fff"/>
            <path id="Trazado_1034629" data-name="Trazado 1034629" d="M61.216,173.754l1.658,0c-.694-8.2-1.76-34.18-1.988-51.482a136.594,136.594,0,0,0-1.271-17.5l-.734.239.367-.119-.375.09c.061.3.613,7.4.822,17.187.339,15.939.624,39.885,1.521,51.584" transform="translate(-10.077 -17.933)" fill="#e1e7f1"/>
            <g id="Grupo_1176668" data-name="Grupo 1176668" transform="translate(47.134 94.451)" opacity="0.2">
              <g id="Grupo_1176667" data-name="Grupo 1176667">
                <g id="Grupo_1176666" data-name="Grupo 1176666" clip-path="url(#clip-path-5)">
                  <path id="Trazado_1034630" data-name="Trazado 1034630" d="M57.385,113.955l-.518,20.307,4.766,9.48,3.212-9.895-4.054-19.88Z" transform="translate(-56.867 -113.955)" fill="#1d1d1b"/>
                </g>
              </g>
            </g>
            <path id="Trazado_1034631" data-name="Trazado 1034631" d="M58.01,112.98l-.518,20.307,4.766,9.48,3.212-9.895-4.054-19.88Z" transform="translate(-9.84 -19.338)" fill="#11588e"/>
            <path id="Trazado_1034632" data-name="Trazado 1034632" d="M55.924,111.71s.419,1.717,3.131,1.717c2.884,0,3.445-1.686,3.706-2.409l-4.017-6.1Z" transform="translate(-9.572 -17.958)" fill="#0b4a70"/>
            <path id="Trazado_1034633" data-name="Trazado 1034633" d="M56.059,111.439s.307,1.663,3.018,1.663c2.884,0,3.276-1.619,3.538-2.341l-3.848-5.842Z" transform="translate(-9.595 -17.958)" fill="#11588e"/>
            <path id="Trazado_1034634" data-name="Trazado 1034634" d="M63.173,99.319c-.1,1.722-1.073,3.087-3.848,4.642l4.228,6.42c4.484-2.983,5.38-6.713,4.885-9.687Z" transform="translate(-10.154 -16.999)" fill="#e1e7f1"/>
            <path id="Trazado_1034635" data-name="Trazado 1034635" d="M55.818,104.064l-3.011,7.252c-7.607-1.27-12.009-5.191-13.974-10.282l5.218-1.112a17.7,17.7,0,0,0,11.767,4.143" transform="translate(-6.647 -17.102)" fill="#e1e7f1"/>
            <g id="Grupo_1176671" data-name="Grupo 1176671" transform="translate(32.186 82.818)" opacity="0.2">
              <g id="Grupo_1176670" data-name="Grupo 1176670">
                <g id="Grupo_1176669" data-name="Grupo 1176669" clip-path="url(#clip-path-6)">
                  <path id="Trazado_1034636" data-name="Trazado 1034636" d="M64.931,101.3,59.666,99.92c-.1,1.656-.965,2.821-3.847,4.143-4.014.012-8.541-.87-11.767-3.644l-5.218,1.113c1.965,5.09,6.79,8.979,14.4,10.249l2.334-5.621a.534.534,0,0,1,.939-.089l3.332,5.058c4.483-2.982,5.591-6.859,5.1-9.834" transform="translate(-38.833 -99.92)" fill="#1d1d1b"/>
                </g>
              </g>
            </g>
            <path id="Trazado_1034637" data-name="Trazado 1034637" d="M63.173,99.319c-.1,1.722-1.073,3.087-3.848,4.642l4.228,6.42c4.484-2.983,5.38-6.713,4.885-9.687L64.6,99.479Z" transform="translate(-10.154 -16.999)" fill="#e1e7f1"/>
            <path id="Trazado_1034638" data-name="Trazado 1034638" d="M55.818,104.064l-3.011,7.252c-7.607-1.27-12.009-5.191-13.974-10.282l5.218-1.112a17.7,17.7,0,0,0,11.767,4.143" transform="translate(-6.647 -17.102)" fill="#e1e7f1"/>
            <path id="Trazado_1034639" data-name="Trazado 1034639" d="M51.762,133.423,36.314,100.115l-6.579.643c-10.909,1.357-15.775,8.072-14.363,16.889L21.4,155.573c1.2,10.118.995,12.464,1.262,17.36,4.651,3.543,16.113,4.224,29.1,2.932Z" transform="translate(-2.59 -17.136)" fill="#1b4372"/>
            <path id="Trazado_1034640" data-name="Trazado 1034640" d="M70.015,100.79c.6,4.776,1.891,11.489,1.3,18.177a106.041,106.041,0,0,1-3.745,20.724c-.006.019-.009.034-.009.034l.2,35.386c8.185.563,13.1-1.887,14.909-3.538.2-22.331,2.791-56.72,2.791-56.72.055-9-8.6-13.058-15.446-14.063" transform="translate(-11.564 -17.251)" fill="#1b4372"/>
            <path id="Trazado_1034641" data-name="Trazado 1034641" d="M63.968,99.118c6.327.661,7.77,16.417,2.981,40.156l7.661-22.756L72.238,112.4s1.482.677,3.441,1.324c2.2-10.568-6.794-15.44-11.712-15.581Z" transform="translate(-10.949 -16.798)" fill="#1e2744"/>
            <path id="Trazado_1034642" data-name="Trazado 1034642" d="M43.964,98.822v1.014c-6.557.819,4.3,13.649,11.645,33.365L43.537,118.468l1.616-3.735-2.626,1.759c-8.014-8.6-5.283-17.953,1.437-17.67" transform="translate(-6.438 -16.913)" fill="#1e2744"/>
            <path id="Trazado_1034643" data-name="Trazado 1034643" d="M83.285,131.539l-.012,5.872a4.2,4.2,0,0,1-3.37,4.321l-1.043.146c-2.564.359-4.763-1.875-4.69-4.763l.141-5.542Z" transform="translate(-12.695 -22.514)" fill="#11588e"/>
            <path id="Trazado_1034644" data-name="Trazado 1034644" d="M35.162,181.033H44.75a4.365,4.365,0,0,0,4.366-4.366V163.736H30.8v12.932a4.365,4.365,0,0,0,4.366,4.366" transform="translate(-5.271 -28.025)" fill="#11588e"/>
            <path id="Trazado_1034645" data-name="Trazado 1034645" d="M57.435,143.047a1.607,1.607,0,0,0,.943-1.551l0-.027a1.615,1.615,0,0,0-1.731-1.525l-5.358.568,2.3-1.719,3.24-1.022c.535-.157,2.09-.979,1.55-2.415-.811-1.571-2.478-1.1-3.877-.285l-2.754.539a64.518,64.518,0,0,1-6.856,3.184c-2.784,1.668-2.366,2.993-3.659,5.566l-2.99.874,4.022,9.168,6.029-1.444a16.035,16.035,0,0,0,4.487-1.146c3.305-.316,3.124-2.755,2.147-2.573,2.685-.261,1.842-2.535,1.392-2.691a1.581,1.581,0,0,0,1.57-1.622c-.007-.112-.014-.225-.022-.337a1.288,1.288,0,0,0-.993-1.125c-.036-.01-.056-.024-.056-.044,0-.08.28-.222.615-.373" transform="translate(-6.546 -22.99)" fill="#af5936"/>
            <path id="Trazado_1034646" data-name="Trazado 1034646" d="M30.563,137.848c-11.428,3.5-13.159,2.876-15.26,2.7a30.117,30.117,0,0,1,2.314-6.441c2.043-4.469,5.022-9.709,8.175-15.257q.909-1.6,1.824-3.216a7.608,7.608,0,0,0-13.247-7.486q-.905,1.6-1.806,3.183c-3.937,6.927-7.655,13.468-10,19.271-2.245,5.543-4.54,13.536.292,19.806,6.225,8.08,23.4,4.666,32.163,1.988,4.018-1.228-.433-15.781-4.451-14.551" transform="translate(0 -17.849)" fill="#1e2744"/>
            <path id="Trazado_1034647" data-name="Trazado 1034647" d="M67.7,66.592c0-2.068-.609-3.834-2.522-4.539V60.909c-.022-5.884-5.615-11.2-12.513-11.2H50.47c-6.9,0-12.491,5.319-12.491,11.879v.332c-2.132.588-2.929,2.458-2.929,4.675s.8,4.087,2.929,4.674v3.624s-.062,14.9,13.33,14.9c13.864,0,13.864-14.917,13.864-14.917V71.131c1.913-.7,2.522-2.471,2.522-4.539" transform="translate(-5.999 -8.508)" fill="#af5936"/>
            <path id="Trazado_1034648" data-name="Trazado 1034648" d="M46.209,94.6a24.242,24.242,0,0,0,11.923,0c4.367-.448,7.818-5.7,7.818-10.794l-.172-8.249c-.007,2.581-4.614,8.7-7.013,6.8l-.352-.382c-3.438-3.8-7.682-4.2-12.21,0l-.415.433c-3.008,1.7-6.85-4.941-7.2-6.718v8.177c0,5.089,2.99,10.177,7.625,10.73" transform="translate(-6.604 -12.932)" fill="#2a1301"/>
            <path id="Trazado_1034649" data-name="Trazado 1034649" d="M38.975,67.314s-1.248-5.725.255-9.614,4.062-8.344,13.585-8.344c9.369,0,14.909,6.3,12.492,16.69h-.564s-.614-6.809-3.225-8.294C58.3,61,48.8,60.825,43.471,57.752c0,0-3.031,1.716-3.968,9.562Z" transform="translate(-6.588 -8.448)" fill="#2a1301"/>
            <path id="Trazado_1034650" data-name="Trazado 1034650" d="M69.923,68.975s.738,6.392-.9,9.755a4.835,4.835,0,0,0,1.964-4.3,42.892,42.892,0,0,1-.415-5.2Z" transform="translate(-11.814 -11.806)" fill="#2a1301"/>
            <path id="Trazado_1034651" data-name="Trazado 1034651" d="M39.675,68.975s-.738,6.392.9,9.755a4.835,4.835,0,0,1-1.964-4.3,42.893,42.893,0,0,0,.415-5.2Z" transform="translate(-6.608 -11.806)" fill="#2a1301"/>
            <path id="Trazado_1034652" data-name="Trazado 1034652" d="M51.908,76.645c-.457,0-.678.776-.36,1.24a3.191,3.191,0,0,0,5.63,0c.318-.464.1-1.24-.36-1.24h-.068c-.274,0-.5-.305-.511-.693l-.88-2.96c-.012-.387-.237-.693-.511-.693h-.981a.522.522,0,0,0-.452.386l-1.063,3.572a.52.52,0,0,1-.452.387Z" transform="translate(-8.797 -12.375)" fill="#9b472a"/>
            <path id="Trazado_1034653" data-name="Trazado 1034653" d="M58.895,84.885c0,1.254-2.1,3.435-4.761,3.43a4.75,4.75,0,0,1-4.63-3.453,1.625,1.625,0,0,1-.014-.219,23.766,23.766,0,0,0,9.379.017.769.769,0,0,1,.02.121.988.988,0,0,1,.006.1" transform="translate(-8.471 -14.487)" fill="#fff"/>
            <path id="Trazado_1034654" data-name="Trazado 1034654" d="M58.895,84.885c0,1.254-2.065,3.787-4.723,3.782A5.064,5.064,0,0,1,49.5,84.862a1.625,1.625,0,0,1-.014-.219,6.308,6.308,0,0,0,9.379.017.769.769,0,0,1,.02.121.988.988,0,0,1,.006.1" transform="translate(-8.471 -14.487)" fill="#c63300"/>
            <path id="Trazado_1034655" data-name="Trazado 1034655" d="M48.281,72.3c0,.707-.353,1.28-.789,1.28s-.789-.573-.789-1.28.353-1.28.789-1.28.789.573.789,1.28" transform="translate(-7.994 -12.156)" fill="#2a1301"/>
            <path id="Trazado_1034656" data-name="Trazado 1034656" d="M47.836,71.863a.229.229,0,1,1-.23-.229.23.23,0,0,1,.23.229" transform="translate(-8.109 -12.261)" fill="#fff"/>
            <path id="Trazado_1034657" data-name="Trazado 1034657" d="M62.841,72.3c0,.707-.353,1.28-.789,1.28s-.789-.573-.789-1.28.353-1.28.789-1.28.789.573.789,1.28" transform="translate(-10.486 -12.156)" fill="#2a1301"/>
            <path id="Trazado_1034658" data-name="Trazado 1034658" d="M62.4,71.863a.229.229,0,1,1-.229-.229.229.229,0,0,1,.229.229" transform="translate(-10.601 -12.261)" fill="#fff"/>
            <path id="Trazado_1034659" data-name="Trazado 1034659" d="M64.2,69.115A.461.461,0,0,1,63.9,69a3.226,3.226,0,0,0-4.6-.028.461.461,0,0,1-.661-.642,4.189,4.189,0,0,1,5.867-.027.46.46,0,0,1-.3.809" transform="translate(-10.013 -11.485)" fill="#2a1301"/>
            <path id="Trazado_1034660" data-name="Trazado 1034660" d="M49.637,69.1a.458.458,0,0,1-.314-.123,3.36,3.36,0,0,0-2.413-1.054,3.455,3.455,0,0,0-2.167,1.026.461.461,0,0,1-.684-.617A4.349,4.349,0,0,1,46.86,67a4.229,4.229,0,0,1,3.091,1.3.46.46,0,0,1-.314.8" transform="translate(-7.521 -11.467)" fill="#2a1301"/>
          </g>
        </g>
      </g>
    </g>
    <g id="Grupo_1176697" data-name="Grupo 1176697" transform="translate(1058.362 2139.494)">
      <g id="Grupo_1176696" data-name="Grupo 1176696" transform="translate(0 0)" clip-path="url(#clip-path-7)">
        <g id="Grupo_1176695" data-name="Grupo 1176695">
          <g id="Grupo_1176694" data-name="Grupo 1176694" clip-path="url(#clip-path-7)">
            <path id="Trazado_1034661" data-name="Trazado 1034661" d="M323.276,195.954,268.6,155.285H249.641c2.045-1.641,3.19-3.479,3.19-5.417,0-6.977-14.82-12.635-33.1-12.635s-33.1,5.658-33.1,12.635c0,1.939,1.145,3.776,3.191,5.417h-57.1c2.046-1.641,3.192-3.479,3.192-5.417,0-6.977-14.822-12.635-33.1-12.635s-33.1,5.658-33.1,12.635c0,1.939,1.145,3.776,3.19,5.417H54.678L0,195.954H42.922a8.914,8.914,0,0,0-1.624,4.982c0,3.941,2.947,7.6,7.97,10.6H122.6c5.024-3.007,7.97-6.662,7.97-10.6a8.926,8.926,0,0,0-1.624-4.982h59.669a8.926,8.926,0,0,0-1.624,4.982c0,3.941,2.947,7.6,7.97,10.6h73.33c5.024-3.007,7.97-6.662,7.97-10.6a8.926,8.926,0,0,0-1.624-4.982Z" transform="translate(0 -23.489)" fill="#5f6275" opacity="0.49"/>
            <path id="Trazado_1034662" data-name="Trazado 1034662" d="M119.6,102.655h0a2.537,2.537,0,0,1-2.537-2.537V69.088a2.537,2.537,0,0,1,5.074,0v31.03a2.537,2.537,0,0,1-2.537,2.537" transform="translate(-20.037 -11.391)" fill="#9d9d9c"/>
            <path id="Trazado_1034663" data-name="Trazado 1034663" d="M166.392,102.655h0a2.537,2.537,0,0,1-2.537-2.537V69.088a2.537,2.537,0,0,1,5.074,0v31.03a2.537,2.537,0,0,1-2.537,2.537" transform="translate(-28.045 -11.391)" fill="#9d9d9c"/>
            <path id="Trazado_1034664" data-name="Trazado 1034664" d="M119.6,66.551h0a2.537,2.537,0,0,0-2.537,2.537v31.03a2.538,2.538,0,0,0,2.537,2.537Z" transform="translate(-20.037 -11.391)" fill="#b2b2b2"/>
            <path id="Trazado_1034665" data-name="Trazado 1034665" d="M166.392,66.551h0a2.537,2.537,0,0,0-2.537,2.537v31.03a2.538,2.538,0,0,0,2.537,2.537Z" transform="translate(-28.045 -11.391)" fill="#b2b2b2"/>
            <path id="Trazado_1034666" data-name="Trazado 1034666" d="M111.846,149.733h-.434a2.319,2.319,0,0,1-2.319-2.319V113.63h5.073v33.784a2.319,2.319,0,0,1-2.319,2.319" transform="translate(-18.672 -19.449)" fill="#9d9d9c"/>
            <path id="Trazado_1034667" data-name="Trazado 1034667" d="M174.58,149.733h-.434a2.319,2.319,0,0,1-2.319-2.319V113.63H176.9v33.784a2.319,2.319,0,0,1-2.319,2.319" transform="translate(-29.41 -19.449)" fill="#9d9d9c"/>
            <path id="Trazado_1034668" data-name="Trazado 1034668" d="M111.63,113.63h-2.536v33.784a2.319,2.319,0,0,0,2.319,2.319h.217Z" transform="translate(-18.672 -19.449)" fill="#b2b2b2"/>
            <rect id="Rectángulo_415892" data-name="Rectángulo 415892" width="5.072" height="3.232" transform="translate(90.422 94.181)" fill="#706f6f"/>
            <path id="Trazado_1034669" data-name="Trazado 1034669" d="M174.363,113.63h-2.536v33.784a2.319,2.319,0,0,0,2.319,2.319h.217Z" transform="translate(-29.41 -19.449)" fill="#b2b2b2"/>
            <rect id="Rectángulo_415893" data-name="Rectángulo 415893" width="5.072" height="3.232" transform="translate(142.418 94.181)" fill="#706f6f"/>
            <path id="Trazado_1034670" data-name="Trazado 1034670" d="M155.244,38.476h-36.7c-7.585,0-13.733,5.872-13.733,13.117V71.32a12.7,12.7,0,0,0,2.856,8.007,13.809,13.809,0,0,0,12.316,7.308H153.8a13.808,13.808,0,0,0,12.315-7.308,12.693,12.693,0,0,0,2.856-8.007V51.593c0-7.246-6.148-13.117-13.731-13.117" transform="translate(-17.94 -6.586)" fill="#3e6380"/>
            <path id="Trazado_1034671" data-name="Trazado 1034671" d="M165.092,111.822H108.7a3.884,3.884,0,0,1-3.884-3.884v-.985a3.885,3.885,0,0,1,3.884-3.885h56.394a3.885,3.885,0,0,1,3.884,3.885v.985a3.884,3.884,0,0,1-3.884,3.884" transform="translate(-17.94 -17.641)" fill="#3d4a6a"/>
            <path id="Trazado_1034672" data-name="Trazado 1034672" d="M150.381,128.663h0a4.493,4.493,0,0,0,1.07-2.91l.145-6.69a1.982,1.982,0,0,0-1.941-2.023l-1.559-.031a1.98,1.98,0,0,0-2.014,1.833l-.5,6.729a4.046,4.046,0,0,0,.739,2.646l.2.28a2.45,2.45,0,0,0,3.861.166" transform="translate(-24.916 -20.027)" fill="#26291f"/>
            <path id="Trazado_1034673" data-name="Trazado 1034673" d="M150.381,127.509h0a4.493,4.493,0,0,0,1.07-2.91l.145-6.69a1.982,1.982,0,0,0-1.941-2.023l-1.559-.031a1.98,1.98,0,0,0-2.014,1.833l-.5,6.729a4.046,4.046,0,0,0,.739,2.646l.2.28a2.449,2.449,0,0,0,3.861.166" transform="translate(-24.916 -19.83)" fill="#3d4a6a"/>
            <path id="Trazado_1034674" data-name="Trazado 1034674" d="M150.221,88.928a2.6,2.6,0,0,0-2.73,2.469l-1.217,24.271a2.6,2.6,0,0,0,2.47,2.73c.044,0,.088,0,.132,0a2.6,2.6,0,0,0,2.6-2.472l1.217-24.271a2.6,2.6,0,0,0-2.469-2.73" transform="translate(-25.036 -15.22)" fill="#ffbf94"/>
            <path id="Trazado_1034675" data-name="Trazado 1034675" d="M136.725,126.937h0a4.493,4.493,0,0,0,.742-3.01l-.6-6.665a1.98,1.98,0,0,0-2.152-1.8l-1.553.142a1.98,1.98,0,0,0-1.8,2.044l.246,6.743a4.044,4.044,0,0,0,1.027,2.548l.229.256a2.449,2.449,0,0,0,3.856-.261" transform="translate(-22.485 -19.762)" fill="#26291f"/>
            <path id="Trazado_1034676" data-name="Trazado 1034676" d="M136.6,125.789h0a4.487,4.487,0,0,0,.742-3.01l-.6-6.665a1.98,1.98,0,0,0-2.152-1.8l-1.553.142a1.98,1.98,0,0,0-1.8,2.044l.246,6.743a4.044,4.044,0,0,0,1.027,2.547l.229.257a2.45,2.45,0,0,0,3.856-.262" transform="translate(-22.463 -19.565)" fill="#3d4a6a"/>
            <path id="Trazado_1034677" data-name="Trazado 1034677" d="M135.064,89.834a2.6,2.6,0,1,0-5.194.358l1.673,24.3a2.6,2.6,0,0,0,2.594,2.424c.06,0,.121,0,.182-.007a2.6,2.6,0,0,0,2.418-2.775Z" transform="translate(-22.228 -14.961)" fill="#ffbf94"/>
            <path id="Trazado_1034678" data-name="Trazado 1034678" d="M150.551,52.517l.535-4.724-7.8-.86-.537,4.746c-2.32.613-3.971,2-4.127,3.749-.232,2.6,2.926,4.994,7.053,5.356s7.661-1.45,7.893-4.046c.147-1.642-1.064-3.2-3.017-4.222" transform="translate(-23.724 -8.033)" fill="#ffbf94"/>
            <path id="Trazado_1034679" data-name="Trazado 1034679" d="M151.965,47.353l-.375,3.3a9.5,9.5,0,0,1-7.8-.859l.5-4.406Z" transform="translate(-24.611 -7.769)" fill="#e5a173"/>
            <path id="Trazado_1034680" data-name="Trazado 1034680" d="M148.791,78.434l3.828-10.356c.84-2.022,1.728-4.785,1.473-6.96-.43-3.665-1.842-5.468-6.259-7.256a5.652,5.652,0,0,1-5.744,2.193,6.334,6.334,0,0,1-4.493-3.145c-6.432,1.094-8.177,1.564-9.7,7.613-.477,3.561.508,13.381.663,16.49,0,0-8.171.936-11.93,7.113,0,0,19.5,13.534,44.215.1a62.638,62.638,0,0,0-12.055-5.8" transform="translate(-19.962 -9.056)" fill="#5bc2ef"/>
            <path id="Trazado_1034681" data-name="Trazado 1034681" d="M141.289,52.857a14.2,14.2,0,0,0-2.916.539,9.452,9.452,0,0,0,3.367,5.209,1.694,1.694,0,0,0,2.22-.133l2.381-2.382,2.11,2.844a1.324,1.324,0,0,0,1.658.385c2.12-1.092,3.74-2.443,4.112-4.19a15.828,15.828,0,0,0-2.7-1.32c-3.4,2.436-6.81,1.886-10.237-.952" transform="translate(-23.684 -9.047)" fill="#fff"/>
            <path id="Trazado_1034682" data-name="Trazado 1034682" d="M167.791,48.554c-3.523-1.883-.913-14-7.335-13.36C173.02,21.72,156.09,2.16,143.284,8.516c-7.155-3.169-20.57,11.4-13.489,23-5.73.855-13.2,9.18-4.166,14.994-.38-4.658,8.956-4.654,5.981-12.385,0,0,3.177,6.023,12.438,7.175,11.395,1.418,13.532-4.489,13.532-4.489-2.555,4.926.64,13.776,10.21,11.743" transform="translate(-20.782 -1.246)" fill="#3c3d42"/>
            <path id="Trazado_1034683" data-name="Trazado 1034683" d="M162.915,32.055c.1-.513.184-1.022.241-1.522.758-6.683-1.571-17.587-14.371-17.856-12.329-.259-16.411,7.7-17.169,14.383-.055.484-.09.981-.1,1.486a1.955,1.955,0,1,0-.36,3.893,2.088,2.088,0,0,0,.68-.038c1.077,5.425,4.961,10.762,13.814,11.736,8.827.972,13.793-3.336,16.068-8.358a2.111,2.111,0,0,0,.3.059,2,2,0,0,0,2.231-1.722,1.962,1.962,0,0,0-1.335-2.061" transform="translate(-22.139 -2.169)" fill="#ffbf94"/>
            <path id="Trazado_1034684" data-name="Trazado 1034684" d="M154.4,17.211c-.494,8.781,10.583,7.984,8.91,14.287,1.592-5.577,1.876-10.675-2.418-16.934-2.113-3.237-7.756-5.208-13.456-5.143a16.951,16.951,0,0,0-8.531,2.538,15.277,15.277,0,0,0-7.224,13.068v2.935c1.151-10.157,19.462-1.7,22.719-10.75" transform="translate(-22.539 -1.612)" fill="#3c3d42"/>
            <path id="Trazado_1034685" data-name="Trazado 1034685" d="M149.64,36.471a.9.9,0,0,1-.753-.554.244.244,0,0,1,.28-.312,2.649,2.649,0,0,0,1.126.124.243.243,0,0,1,.2.365.908.908,0,0,1-.858.376" transform="translate(-25.481 -6.094)" fill="#e5a173"/>
            <path id="Trazado_1034686" data-name="Trazado 1034686" d="M140.905,34.626c.143-.839-.668-1.671-1.813-1.859a1.9,1.9,0,0,0-2.333,1.179c-.143.84.668,1.672,1.813,1.859a1.9,1.9,0,0,0,2.333-1.179" transform="translate(-23.405 -5.602)" fill="#fc7e72"/>
            <path id="Trazado_1034687" data-name="Trazado 1034687" d="M161.521,37.179c.1-.845-.762-1.634-1.915-1.761a1.9,1.9,0,0,0-2.263,1.3c-.1.845.762,1.634,1.915,1.761a1.9,1.9,0,0,0,2.262-1.3" transform="translate(-26.93 -6.059)" fill="#fc7e72"/>
            <path id="Trazado_1034688" data-name="Trazado 1034688" d="M142.374,30.268c-.04.694.3,1.278.755,1.3s.86-.514.9-1.208-.3-1.279-.755-1.305-.86.515-.9,1.208" transform="translate(-24.368 -4.974)" fill="#1c1c1c"/>
            <path id="Trazado_1034689" data-name="Trazado 1034689" d="M156.866,32.1c-.04.694.3,1.278.755,1.3s.86-.514.9-1.208-.3-1.278-.755-1.3-.86.515-.9,1.208" transform="translate(-26.849 -5.286)" fill="#1c1c1c"/>
            <path id="Trazado_1034690" data-name="Trazado 1034690" d="M159.762,29.888a.238.238,0,0,1-.2-.116,2.468,2.468,0,0,0-2.246-1.276.237.237,0,0,1-.233-.24.239.239,0,0,1,.24-.234,2.947,2.947,0,0,1,2.646,1.507.236.236,0,0,1-.2.358" transform="translate(-26.886 -4.796)" fill="#3c3d42"/>
            <path id="Trazado_1034691" data-name="Trazado 1034691" d="M141.511,27.765a.237.237,0,0,1-.172-.4,2.959,2.959,0,0,1,2.918-.893.236.236,0,1,1-.1.462,2.485,2.485,0,0,0-2.477.757.237.237,0,0,1-.172.074" transform="translate(-24.18 -4.517)" fill="#3c3d42"/>
            <path id="Trazado_1034692" data-name="Trazado 1034692" d="M143.685,40.2c.863,3.494,7.685,4.9,9.77,1.267Z" transform="translate(-24.593 -6.881)" fill="#fff"/>
            <path id="Trazado_1034693" data-name="Trazado 1034693" d="M149.171,43.784a7.214,7.214,0,0,1-1-.07c-2.012-.283-4.267-1.476-4.767-3.5a.237.237,0,0,1,.459-.114c.448,1.814,2.52,2.889,4.374,3.15,1.719.241,3.926-.142,4.961-1.943a.237.237,0,1,1,.41.235,4.912,4.912,0,0,1-4.44,2.245" transform="translate(-24.544 -6.832)" fill="#fc7e72"/>
            <path id="Trazado_1034694" data-name="Trazado 1034694" d="M109.331,44.788l2.26-.942c-.267,1.355,3.039,1.818,6.035,3.106,4.9,1.919,7.846,6.275,7.364,11.467l-2.851-.606Z" transform="translate(-18.713 -7.505)" fill="#fff"/>
            <path id="Trazado_1034695" data-name="Trazado 1034695" d="M107.373,45.551l2.26-.942c-.267,1.356,3.039,1.818,6.035,3.106,4.9,1.919,7.846,6.275,7.364,11.467l-2.851-.606Z" transform="translate(-18.378 -7.635)" fill="#edeceb"/>
            <path id="Trazado_1034696" data-name="Trazado 1034696" d="M128.225,58.64c6.464-6.609,14.509-8.489,24.033-5.941a30.383,30.383,0,0,0,10.8,1.062l-.361,1.552L129.768,60.19Z" transform="translate(-21.947 -8.833)" fill="#fff"/>
            <path id="Trazado_1034697" data-name="Trazado 1034697" d="M128.225,60.434c6.464-6.608,14.509-8.489,24.033-5.941a30.383,30.383,0,0,0,10.8,1.062l-.361,1.552-32.928,4.878Z" transform="translate(-21.947 -9.14)" fill="#edeceb"/>
            <path id="Trazado_1034698" data-name="Trazado 1034698" d="M107.373,45.614,109,44.982,122.34,57.764l-2.225.312Z" transform="translate(-18.378 -7.699)" fill="#d8d8d8"/>
            <path id="Trazado_1034699" data-name="Trazado 1034699" d="M130.173,59.9l36.26-4.811-.317,1.845-34.457,4.54-1.431-1.516Z" transform="translate(-22.28 -9.43)" fill="#d8d8d8"/>
            <path id="Trazado_1034700" data-name="Trazado 1034700" d="M122.712,60.169a8.75,8.75,0,0,1,8.627,2.121l-3.757.236-3.151-.734-1.716-1.552Z" transform="translate(-21.003 -10.24)" fill="#b2b2b2"/>
            <path id="Trazado_1034701" data-name="Trazado 1034701" d="M125.23,61.5a9.8,9.8,0,0,1-2.745-.387,6.811,6.811,0,0,1-3.477-2.182,5.7,5.7,0,0,0-.452-.5l-11.971-11.5a.9.9,0,0,1,1.246-1.3l11.971,11.5a7.4,7.4,0,0,1,.6.664,4.987,4.987,0,0,0,2.585,1.589,8.25,8.25,0,0,0,3.473.229l35.9-4.878a.9.9,0,0,1,.241,1.782l-35.894,4.877a10.634,10.634,0,0,1-1.477.1" transform="translate(-18.196 -7.768)" fill="#e56d4b"/>
            <path id="Trazado_1034702" data-name="Trazado 1034702" d="M119.676,58.508,106.851,46.184a.486.486,0,0,0-.816.431l6.628,39.258a2.6,2.6,0,0,0,.9,1.564L125.086,97.1c.048.046.1.09.146.137L120.03,58.9q-.182-.184-.354-.389" transform="translate(-18.148 -7.881)" fill="#ed854b"/>
            <path id="Trazado_1034703" data-name="Trazado 1034703" d="M174.73,95.4l-5.439-36.273a1.707,1.707,0,0,0-1.916-1.438l-34.253,4.62v0l5.857,39.839c.274-.049.554-.1.844-.172l33.454-4.632A1.707,1.707,0,0,0,174.73,95.4" transform="translate(-22.785 -9.871)" fill="#ed854b"/>
            <path id="Trazado_1034704" data-name="Trazado 1034704" d="M122.921,61.551l5.2,38.337c2.221,2.089,4.753,3.695,9.108,2.922l-5.857-39.84c-4.109.818-6.607.469-8.453-1.42" transform="translate(-21.039 -10.535)" fill="#e56d4b"/>
            <path id="Trazado_1034705" data-name="Trazado 1034705" d="M123.806,68.413c1.923,1.791,4.989,1.566,8.482.939l.655,4.454c-3.833.771-6.988.861-8.523-.87Z" transform="translate(-21.191 -11.709)" fill="#fff3de"/>
            <path id="Trazado_1034706" data-name="Trazado 1034706" d="M124.785,75.555c1.923,1.791,5.033,1.431,8.525.8l.264,1.792c-2.865.9-7,1.1-8.53-.628Z" transform="translate(-21.358 -12.932)" fill="#fff3de"/>
            <path id="Trazado_1034707" data-name="Trazado 1034707" d="M165.508,67.881a.475.475,0,0,0-.534-.4l-22.652,3.156a.473.473,0,0,0,.065.942.58.58,0,0,0,.065,0L165.1,68.414a.472.472,0,0,0,.4-.534" transform="translate(-24.29 -11.549)" fill="#fff3de"/>
            <path id="Trazado_1034708" data-name="Trazado 1034708" d="M166.579,72.7a.475.475,0,0,0-.534-.4l-22.652,3.156a.473.473,0,0,0,.065.942.579.579,0,0,0,.065,0l22.652-3.156a.473.473,0,0,0,.4-.534" transform="translate(-24.473 -12.373)" fill="#fff3de"/>
            <path id="Trazado_1034709" data-name="Trazado 1034709" d="M167.526,77.931a.475.475,0,0,0-.535-.4l-22.652,3.155a.473.473,0,0,0,.065.942.594.594,0,0,0,.066,0l22.651-3.156a.474.474,0,0,0,.4-.534" transform="translate(-24.635 -13.269)" fill="#fff3de"/>
            <path id="Trazado_1034710" data-name="Trazado 1034710" d="M161.253,84.082l-9.188,1.28a.473.473,0,0,0,.065.942.436.436,0,0,0,.066,0l9.188-1.28a.473.473,0,0,0-.13-.937" transform="translate(-25.958 -14.391)" fill="#fff3de"/>
            <path id="Trazado_1034711" data-name="Trazado 1034711" d="M245.1,102.655h0a2.537,2.537,0,0,1-2.537-2.537V69.088a2.537,2.537,0,0,1,5.074,0v31.03a2.537,2.537,0,0,1-2.537,2.537" transform="translate(-41.516 -11.391)" fill="#9d9d9c"/>
            <path id="Trazado_1034712" data-name="Trazado 1034712" d="M291.888,102.655h0a2.536,2.536,0,0,1-2.536-2.537V69.088a2.537,2.537,0,1,1,5.073,0v31.03a2.537,2.537,0,0,1-2.537,2.537" transform="translate(-49.525 -11.391)" fill="#9d9d9c"/>
            <path id="Trazado_1034713" data-name="Trazado 1034713" d="M245.1,66.551h0a2.537,2.537,0,0,0-2.537,2.537v31.03a2.538,2.538,0,0,0,2.537,2.537Z" transform="translate(-41.516 -11.391)" fill="#b2b2b2"/>
            <path id="Trazado_1034714" data-name="Trazado 1034714" d="M291.888,66.551h0a2.536,2.536,0,0,0-2.536,2.537v31.03a2.537,2.537,0,0,0,2.536,2.537Z" transform="translate(-49.525 -11.391)" fill="#b2b2b2"/>
            <path id="Trazado_1034715" data-name="Trazado 1034715" d="M237.342,149.733h-.434a2.319,2.319,0,0,1-2.319-2.319V113.63h5.072v33.784a2.319,2.319,0,0,1-2.319,2.319" transform="translate(-40.152 -19.449)" fill="#9d9d9c"/>
            <path id="Trazado_1034716" data-name="Trazado 1034716" d="M300.076,149.733h-.434a2.319,2.319,0,0,1-2.319-2.319V113.63H302.4v33.784a2.319,2.319,0,0,1-2.319,2.319" transform="translate(-50.89 -19.449)" fill="#9d9d9c"/>
            <path id="Trazado_1034717" data-name="Trazado 1034717" d="M237.126,113.63H234.59v33.784a2.319,2.319,0,0,0,2.319,2.319h.217Z" transform="translate(-40.152 -19.449)" fill="#b2b2b2"/>
            <rect id="Rectángulo_415894" data-name="Rectángulo 415894" width="5.072" height="3.232" transform="translate(194.438 94.181)" fill="#706f6f"/>
            <path id="Trazado_1034718" data-name="Trazado 1034718" d="M299.859,113.63h-2.536v33.784a2.319,2.319,0,0,0,2.319,2.319h.217Z" transform="translate(-50.89 -19.449)" fill="#b2b2b2"/>
            <rect id="Rectángulo_415895" data-name="Rectángulo 415895" width="5.072" height="3.232" transform="translate(246.434 94.181)" fill="#706f6f"/>
            <path id="Trazado_1034719" data-name="Trazado 1034719" d="M280.74,38.476h-36.7c-7.585,0-13.733,5.872-13.733,13.117V71.32a12.693,12.693,0,0,0,2.856,8.007,13.808,13.808,0,0,0,12.315,7.308H279.3a13.808,13.808,0,0,0,12.315-7.308,12.693,12.693,0,0,0,2.856-8.007V51.593c0-7.246-6.148-13.117-13.731-13.117" transform="translate(-39.42 -6.586)" fill="#3e6380"/>
            <path id="Trazado_1034720" data-name="Trazado 1034720" d="M290.588,111.822H234.195a3.884,3.884,0,0,1-3.884-3.884v-.985a3.885,3.885,0,0,1,3.884-3.885h56.393a3.885,3.885,0,0,1,3.884,3.885v.985a3.884,3.884,0,0,1-3.884,3.884" transform="translate(-39.42 -17.641)" fill="#3d4a6a"/>
            <path id="Trazado_1034721" data-name="Trazado 1034721" d="M290.813,6.3A6.3,6.3,0,0,0,278.3,5.259a10.527,10.527,0,0,0-5.96-.564,22.093,22.093,0,0,0-12.485.086,6.3,6.3,0,1,0-9.157,7.034c-5.526,8.345-4.365,21.058,5.276,27.117,5.069,4.172,12.53,3.706,12.53,3.706a17.538,17.538,0,0,0,13.216-5.94c8.51-8.662,8.313-17.987,4.6-24.362a6.3,6.3,0,0,0,4.5-6.036" transform="translate(-42.343 0)" fill="#2a1301"/>
            <path id="Trazado_1034722" data-name="Trazado 1034722" d="M276.329,54.933l-8.59.18L267.5,49.56l8.59-.181Z" transform="translate(-45.785 -8.452)" fill="#af5936"/>
            <path id="Trazado_1034723" data-name="Trazado 1034723" d="M267.479,48.377l.142,3.639a10.283,10.283,0,0,0,8.536-.179l-.118-4.855Z" transform="translate(-45.782 -8.042)" fill="#8c3d22"/>
            <path id="Trazado_1034724" data-name="Trazado 1034724" d="M285.128,28.7c.026-.49.032-.974.021-1.449-.178-7.362-8.751-16.459-18.342-16.259s-16.57,9.625-16.392,16.988q.017.716.091,1.455a2.156,2.156,0,0,0-1.818,2.152,2.189,2.189,0,0,0,2.267,2.1,2.336,2.336,0,0,0,.448-.054c1.944,5.781,6.943,11.093,16.787,10.887,9.824-.206,14.576-5.733,16.243-11.6a2.293,2.293,0,0,0,.515.049,2.138,2.138,0,0,0,.181-4.269" transform="translate(-42.565 -1.881)" fill="#af5936"/>
            <path id="Trazado_1034725" data-name="Trazado 1034725" d="M272.3,35.689a.984.984,0,0,0,.874-.531.267.267,0,0,0-.275-.366,2.888,2.888,0,0,1-1.241.026.266.266,0,0,0-.258.378.993.993,0,0,0,.9.494" transform="translate(-46.448 -5.955)" fill="#9b472a"/>
            <path id="Trazado_1034726" data-name="Trazado 1034726" d="M281.412,34.489c-.075-.929.891-1.758,2.157-1.852s2.355.583,2.43,1.512-.891,1.758-2.157,1.852-2.355-.583-2.43-1.512" transform="translate(-48.166 -5.585)" fill="#9b472a"/>
            <path id="Trazado_1034727" data-name="Trazado 1034727" d="M258.679,35.271c-.022-.932.989-1.708,2.259-1.735s2.318.707,2.341,1.639-.989,1.707-2.259,1.735-2.318-.707-2.341-1.639" transform="translate(-44.275 -5.74)" fill="#9b472a"/>
            <path id="Trazado_1034728" data-name="Trazado 1034728" d="M280.81,29.616c-.023.761-.449,1.365-.95,1.35s-.889-.645-.865-1.406.449-1.365.95-1.349.889.644.865,1.4" transform="translate(-47.752 -4.828)" fill="#1c1c1c"/>
            <path id="Trazado_1034729" data-name="Trazado 1034729" d="M264.828,30.2c-.024.761-.45,1.365-.951,1.35s-.889-.645-.865-1.406.449-1.365.95-1.35.888.645.865,1.406" transform="translate(-45.017 -4.929)" fill="#1c1c1c"/>
            <path id="Trazado_1034730" data-name="Trazado 1034730" d="M261.6,27.581a.329.329,0,0,1-.267-.522,3.293,3.293,0,0,1,3.095-1.416.33.33,0,1,1-.05.657,2.632,2.632,0,0,0-2.511,1.145.33.33,0,0,1-.268.137" transform="translate(-44.719 -4.387)" fill="#2a1301"/>
            <path id="Trazado_1034731" data-name="Trazado 1034731" d="M281.683,27a.327.327,0,0,1-.258-.124,2.656,2.656,0,0,0-2.565-1.039.33.33,0,1,1-.078-.655,3.312,3.312,0,0,1,3.159,1.284.329.329,0,0,1-.258.535" transform="translate(-47.666 -4.304)" fill="#2a1301"/>
            <path id="Trazado_1034732" data-name="Trazado 1034732" d="M276.21,39.473h0a1.757,1.757,0,0,0-.183-.138,1.659,1.659,0,0,0-1.278-.2,15.47,15.47,0,0,1-6.652.085,1.922,1.922,0,0,0-1.84.578,2.039,2.039,0,0,0-.2.264h0a2.1,2.1,0,0,0-.281,1.549,3.652,3.652,0,0,0,1.175,2.029,4.6,4.6,0,0,0,.484.375,7.8,7.8,0,0,0,3.882,1.005,8.49,8.49,0,0,0,3.882-1.015,4.359,4.359,0,0,0,.824-.693,3.257,3.257,0,0,0,.864-1.882,2.109,2.109,0,0,0-.68-1.959" transform="translate(-45.483 -6.69)" fill="#c63300"/>
            <path id="Trazado_1034733" data-name="Trazado 1034733" d="M271.672,43.635c1.872,0,3.2.362,3.881,1.151a5.479,5.479,0,0,1-.528.306,7.967,7.967,0,0,1-6.482.126,5.277,5.277,0,0,1-.753-.423c.73-.777,2.088-1.16,3.881-1.16" transform="translate(-45.835 -7.469)" fill="#a52402"/>
            <path id="Trazado_1034734" data-name="Trazado 1034734" d="M266.119,40.063h0a2.12,2.12,0,0,1,.195-.265,1.942,1.942,0,0,1,1.828-.64,15.261,15.261,0,0,0,6.607-.022,1.642,1.642,0,0,1,1.517.332,1.8,1.8,0,0,1,.473.582,6.148,6.148,0,0,1-1.493.864,10.659,10.659,0,0,1-7.542.126,5.927,5.927,0,0,1-1.441-.8c-.058-.045-.114-.091-.169-.138l.025-.041" transform="translate(-45.544 -6.689)" fill="#fff"/>
            <path id="Trazado_1034735" data-name="Trazado 1034735" d="M261.723,14.02c-.313,9.625-12.157,7.619-10.946,14.656a28.584,28.584,0,0,1-.363-7.875c.582-6.738,2.177-13.467,18.462-14.062,8.82-.322,16.848,6.833,17.061,15.656l-.479,5.553c-.27-11.189-21.06-3.746-23.736-13.928" transform="translate(-42.841 -1.152)" fill="#2a1301"/>
            <path id="Trazado_1034736" data-name="Trazado 1034736" d="M305.09,39.624l1.1-3.89a2.1,2.1,0,0,0-.1-1.288l-2.2-5.358a.905.905,0,0,1,.405-1.133.964.964,0,0,1,1.34.409L306.6,30.4a.181.181,0,0,0,.34-.047l1.133-6.707a.791.791,0,0,1,.966-.621.763.763,0,0,1,.6.841l-.617,4.569,1.494-5.19a.848.848,0,0,1,1.016-.593.815.815,0,0,1,.625.978l-1.431,5.36,1.56-4.495a.8.8,0,0,1,.936-.5.762.762,0,0,1,.576.947l-1.336,4.653,1.258-3.028a.694.694,0,0,1,.8-.4.662.662,0,0,1,.5.822l-1.838,6.424a3.555,3.555,0,0,1-.887,1.413l-.1.1a1.934,1.934,0,0,0-.488.788l-1.586,4.961Z" transform="translate(-52.002 -3.873)" fill="#af5936"/>
            <path id="Trazado_1034737" data-name="Trazado 1034737" d="M285.505,61.919l-.425-6.445c6.322-.417,10.182-1.034,12.472-3.1,2.374-2.141,3.726-6.43,4.52-14.343l6.427.646c-.983,9.78-2.9,15.139-6.622,18.494-4.059,3.66-9.816,4.316-16.372,4.748" transform="translate(-48.794 -6.509)" fill="#fc9f9f"/>
            <path id="Trazado_1034738" data-name="Trazado 1034738" d="M281.68,110.492l-6.567.239s.074,11.1.06,19.029l6.574.012c.015-8.336-.066-19.28-.066-19.28" transform="translate(-47.088 -18.912)" fill="#af5936"/>
            <path id="Trazado_1034739" data-name="Trazado 1034739" d="M281.8,131.468h-6.676V124.63a6.534,6.534,0,0,0,6.676,0Z" transform="translate(-47.091 -21.332)" fill="#fff"/>
            <path id="Trazado_1034740" data-name="Trazado 1034740" d="M282.449,132.618c3.933,2.466,3.755,2.444,4.782,3.517a2.154,2.154,0,0,1-.411,3.32,3.919,3.919,0,0,1-2.586.52c-1.726-.208-4.83-2.214-8.587-4.966a1.722,1.722,0,0,1-.663-1.015,2.937,2.937,0,0,1,.193-2.056,12.713,12.713,0,0,0,5.21,1.839,2.282,2.282,0,0,0,.878-.171.812.812,0,0,0,.262-1.366c-.482-.437,1.01.549.922.378" transform="translate(-47.05 -22.582)" fill="#58585a"/>
            <path id="Trazado_1034741" data-name="Trazado 1034741" d="M281.757,130.411a32.529,32.529,0,0,1,5.466,3.954,2.155,2.155,0,0,1-.408,3.322,3.928,3.928,0,0,1-2.587.52c-1.725-.208-4.826-2.213-8.582-4.964a1.717,1.717,0,0,1-.666-1.007,2.9,2.9,0,0,1,.1-1.976,6.143,6.143,0,0,0,5.644,1.777,1.439,1.439,0,0,0,.93-.765,2.154,2.154,0,0,0,.1-.861" transform="translate(-47.044 -22.295)" fill="#f49292"/>
            <path id="Trazado_1034742" data-name="Trazado 1034742" d="M282.181,133.62a.4.4,0,0,1-.148-.763c1.019-.411,1.3-.8,1.443-1.161a.4.4,0,0,1,.733.3,2.992,2.992,0,0,1-1.88,1.6.387.387,0,0,1-.148.029" transform="translate(-48.23 -22.499)" fill="#fff"/>
            <path id="Trazado_1034743" data-name="Trazado 1034743" d="M283.489,134.666a.4.4,0,0,1-.148-.763c1.02-.411,1.3-.8,1.443-1.161a.4.4,0,0,1,.733.3,2.992,2.992,0,0,1-1.88,1.6.386.386,0,0,1-.148.029" transform="translate(-48.454 -22.678)" fill="#fff"/>
            <path id="Trazado_1034744" data-name="Trazado 1034744" d="M262.072,129.453l6.573.1c.118-7.454-.052-18.833-.052-18.833l-6.587-.233s.189,11.2.066,18.961" transform="translate(-44.845 -18.912)" fill="#af5936"/>
            <path id="Trazado_1034745" data-name="Trazado 1034745" d="M268.785,130.98h-6.677v-6.839a6.536,6.536,0,0,0,6.677,0Z" transform="translate(-44.862 -21.248)" fill="#fff"/>
            <path id="Trazado_1034746" data-name="Trazado 1034746" d="M260.133,132.357c-3.933,2.466-3.755,2.444-4.782,3.517a2.153,2.153,0,0,0,.41,3.32,3.919,3.919,0,0,0,2.586.52c1.726-.208,4.83-2.214,8.587-4.966a1.724,1.724,0,0,0,.663-1.015,2.942,2.942,0,0,0-.192-2.056,12.72,12.72,0,0,1-5.211,1.839,2.3,2.3,0,0,1-.878-.171.812.812,0,0,1-.262-1.366c.482-.437-1.01.549-.922.378" transform="translate(-43.603 -22.538)" fill="#58585a"/>
            <path id="Trazado_1034747" data-name="Trazado 1034747" d="M260.853,130.117a33.034,33.034,0,0,0-5.5,3.975,2.154,2.154,0,0,0,.409,3.322,3.924,3.924,0,0,0,2.586.52c1.726-.208,4.827-2.212,8.582-4.964a1.718,1.718,0,0,0,.666-1.006,4.473,4.473,0,0,0-.07-2.031,6.2,6.2,0,0,1-5.672,1.832,1.318,1.318,0,0,1-.834-.79,2.441,2.441,0,0,1-.167-.857" transform="translate(-43.603 -22.239)" fill="#f49292"/>
            <path id="Trazado_1034748" data-name="Trazado 1034748" d="M262.567,133.359a.387.387,0,0,1-.148-.029,2.992,2.992,0,0,1-1.88-1.6.4.4,0,0,1,.733-.3c.147.361.424.75,1.443,1.161a.4.4,0,0,1-.148.763" transform="translate(-44.589 -22.454)" fill="#fff"/>
            <path id="Trazado_1034749" data-name="Trazado 1034749" d="M261.26,134.4a.387.387,0,0,1-.148-.029,2.991,2.991,0,0,1-1.88-1.6.4.4,0,1,1,.732-.3c.148.361.424.75,1.444,1.161a.4.4,0,0,1-.148.763" transform="translate(-44.365 -22.633)" fill="#fff"/>
            <path id="Trazado_1034750" data-name="Trazado 1034750" d="M265.861,55.214a13.439,13.439,0,0,1,5.739-.953,10.006,10.006,0,0,1,5.641,1.2c1.267.8-2.238,3.077-5.5,3.031s-7.252-2.68-5.878-3.275" transform="translate(-45.457 -9.287)" fill="#af5936"/>
            <path id="Trazado_1034751" data-name="Trazado 1034751" d="M253.95,62.6c.935-3.977,2.714-5.782,7.8-7.192a6.256,6.256,0,0,0,6.041,3.136c2.114-.188,4.37-1.23,5.339-2.893,5.769,2.189,6.641,1.685,7.552,8.53.075,3.977-3.063,11.313-3.625,14.713,1.723,8.766,15.247,14.608,14.7,21.627-9.641,3.073-40.389,4-50.178,0-.787-5.92,16.082-15.684,16.614-21.627l-3.5-8.454c-.67-2.33-1.3-5.481-.743-7.841" transform="translate(-41.344 -9.484)" fill="#fcbebe"/>
            <path id="Trazado_1034752" data-name="Trazado 1034752" d="M276.652,55.656a15.8,15.8,0,0,1,3.139.96,10.464,10.464,0,0,1-4.359,5.305,1.876,1.876,0,0,1-2.426-.427l-2.319-2.92-2.68,2.862a1.466,1.466,0,0,1-1.872.214c-2.195-1.468-3.805-3.159-3.994-5.126a17.455,17.455,0,0,1,3.131-1.111c3.428,3.107,7.252,2.933,11.38.244" transform="translate(-44.868 -9.484)" fill="#fc9f9f"/>
            <path id="Trazado_1034753" data-name="Trazado 1034753" d="M261.568,83.749c7.063,1.278,11.469,1.12,18.861,0l.312,1.034c-6.913.984-11.955,1.613-19.472-.087Z" transform="translate(-44.719 -14.334)" fill="#fc9f9f"/>
            <path id="Trazado_1034754" data-name="Trazado 1034754" d="M273.008,62.271a.8.8,0,1,1-.8-.8.8.8,0,0,1,.8.8" transform="translate(-46.455 -10.522)" fill="#fc9f9f"/>
            <path id="Trazado_1034755" data-name="Trazado 1034755" d="M273.008,65.757a.8.8,0,1,1-.8-.8.8.8,0,0,1,.8.8" transform="translate(-46.455 -11.118)" fill="#fc9f9f"/>
            <path id="Trazado_1034756" data-name="Trazado 1034756" d="M273.008,69.244a.8.8,0,1,1-.8-.8.8.8,0,0,1,.8.8" transform="translate(-46.455 -11.715)" fill="#f49292"/>
            <path id="Trazado_1034757" data-name="Trazado 1034757" d="M255.868,84.709H76.925L33.45,107.383H298.376Z" transform="translate(-5.725 -14.499)" fill="#9a7759"/>
            <path id="Trazado_1034758" data-name="Trazado 1034758" d="M298.376,112.066H33.451v5.695H54.857v65.023c0,3.292,2.93,5.959,6.544,5.959H63.23c3.614,0,6.543-2.667,6.543-5.959V117.761h191.82v65.023c0,3.292,2.93,5.959,6.544,5.959h1.828c3.615,0,6.545-2.667,6.545-5.959V117.761h21.867Z" transform="translate(-5.725 -19.181)" fill="#644d3b"/>
            <path id="Trazado_1034759" data-name="Trazado 1034759" d="M307.578,65.3c14.458-.132,13.651,32.328,3.082,24.552l.568-2.832c7.271,7.779,5.91-17-.928-19.485Z" transform="translate(-52.645 -11.176)" fill="#e0b500"/>
            <path id="Trazado_1034760" data-name="Trazado 1034760" d="M299.24,63.225h-1.318a3.625,3.625,0,0,1,3.548-3.934,3.3,3.3,0,0,1,2.37.98,3.926,3.926,0,0,1,1.048,2.83H303.57c0-1.722-1.054-2.492-2.1-2.492a2.329,2.329,0,0,0-2.23,2.616" transform="translate(-50.992 -10.148)" fill="#efc200"/>
            <path id="Trazado_1034761" data-name="Trazado 1034761" d="M299.04,90.694h6.167A4.791,4.791,0,0,0,310,85.9V68.023a4.791,4.791,0,0,0-4.791-4.791h-1.62a9.338,9.338,0,0,0-9.339,9.338V85.9a4.791,4.791,0,0,0,4.792,4.792" transform="translate(-50.363 -10.823)" fill="#efc200"/>
            <path id="Trazado_1034762" data-name="Trazado 1034762" d="M295.3,90.535h6.167a4.791,4.791,0,0,0,4.792-4.792V67.864a4.791,4.791,0,0,0-4.792-4.791h-1.62a9.338,9.338,0,0,0-9.339,9.338V85.743a4.791,4.791,0,0,0,4.791,4.792" transform="translate(-49.723 -10.795)" fill="#efd400"/>
            <path id="Trazado_1034763" data-name="Trazado 1034763" d="M291.594,79.094h8.2a2.494,2.494,0,0,0,2.487-2.487V72.514a2.494,2.494,0,0,0-2.487-2.487h-8.2a2.494,2.494,0,0,0-2.487,2.487v4.094a2.494,2.494,0,0,0,2.487,2.487" transform="translate(-49.483 -11.986)" fill="#e0b500"/>
            <path id="Trazado_1034764" data-name="Trazado 1034764" d="M300.245,73.142H289.84a.836.836,0,0,1-.733-.907v5.682a.836.836,0,0,0,.733.906h10.405a.836.836,0,0,0,.733-.906V72.235a.836.836,0,0,1-.733.907" transform="translate(-49.483 -12.364)" fill="#efc200"/>
            <path id="Trazado_1034765" data-name="Trazado 1034765" d="M300.245,70.027H289.84a.836.836,0,0,0-.733.906v1.573a.836.836,0,0,0,.733.907h10.405a.836.836,0,0,0,.733-.907V70.933a.836.836,0,0,0-.733-.906" transform="translate(-49.483 -11.986)" fill="#efe100"/>
            <path id="Trazado_1034766" data-name="Trazado 1034766" d="M296,75.5h-.551a1.114,1.114,0,0,1-1.111-1.111V74.13a1.114,1.114,0,0,1,1.111-1.111H296a1.115,1.115,0,0,1,1.111,1.111v.254A1.115,1.115,0,0,1,296,75.5" transform="translate(-50.379 -12.498)" fill="#efd400"/>
            <g id="Grupo_1176678" data-name="Grupo 1176678" transform="translate(143.57 78.28)" opacity="0.5">
              <g id="Grupo_1176677" data-name="Grupo 1176677">
                <g id="Grupo_1176676" data-name="Grupo 1176676" clip-path="url(#clip-path-9)">
                  <path id="Trazado_1034767" data-name="Trazado 1034767" d="M173.218,95.74l4.4,1.047,6.077-.523-2.933-1.818Z" transform="translate(-173.218 -94.445)"/>
                </g>
              </g>
            </g>
            <path id="Trazado_1034768" data-name="Trazado 1034768" d="M178.529,90.61v5.45l3.528-1.047V90.191Z" transform="translate(-30.557 -15.437)" fill="#933214"/>
            <path id="Trazado_1034769" data-name="Trazado 1034769" d="M173.218,89.77l4.4.768v5.45l-4.4-1.047Z" transform="translate(-29.648 -15.365)" fill="#e8431b"/>
            <path id="Trazado_1034770" data-name="Trazado 1034770" d="M173.218,89.647l3.842-.6,4.087.944-3.528.419Z" transform="translate(-29.648 -15.242)" fill="#dc8e76"/>
            <g id="Grupo_1176681" data-name="Grupo 1176681" transform="translate(127.293 74.633)" opacity="0.5">
              <g id="Grupo_1176680" data-name="Grupo 1176680">
                <g id="Grupo_1176679" data-name="Grupo 1176679" clip-path="url(#clip-path-10)">
                  <path id="Trazado_1034771" data-name="Trazado 1034771" d="M163.4,91.379c0,.738-2.2,1.336-4.912,1.336s-4.911-.6-4.911-1.336,2.2-1.335,4.911-1.335,4.912.6,4.912,1.335" transform="translate(-153.58 -90.045)"/>
                </g>
              </g>
            </g>
            <path id="Trazado_1034772" data-name="Trazado 1034772" d="M161.071,84.389a5.31,5.31,0,1,1-5.31-5.293,5.3,5.3,0,0,1,5.31,5.293" transform="translate(-25.751 -13.538)" fill="#8476bc"/>
            <path id="Trazado_1034773" data-name="Trazado 1034773" d="M155.952,79.1a5.3,5.3,0,0,0-3.531,1.341,5.3,5.3,0,0,0,7.985,6.83,5.242,5.242,0,0,0,.855-2.878,5.3,5.3,0,0,0-5.31-5.293" transform="translate(-25.942 -13.538)" fill="#76bc8b"/>
            <path id="Trazado_1034774" data-name="Trazado 1034774" d="M156.1,79.1a5.3,5.3,0,0,0-2.965.9,5.3,5.3,0,0,0,7.566,7.03,5.289,5.289,0,0,0-4.6-7.932" transform="translate(-26.089 -13.538)" fill="#c4c7b2"/>
            <g id="Grupo_1176684" data-name="Grupo 1176684" transform="translate(125.969 68.205)" opacity="0.2">
              <g id="Grupo_1176683" data-name="Grupo 1176683">
                <g id="Grupo_1176682" data-name="Grupo 1176682" clip-path="url(#clip-path-11)">
                  <path id="Trazado_1034775" data-name="Trazado 1034775" d="M160.62,82.289c-.035,2.67-2.671,4.954-5.453,5.511a17.96,17.96,0,0,1-3.185.567,5.313,5.313,0,0,0,9.351-3.431,5.247,5.247,0,0,0-.713-2.646" transform="translate(-151.982 -82.289)"/>
                </g>
              </g>
            </g>
            <g id="Grupo_1176687" data-name="Grupo 1176687" transform="translate(165.52 81.888)" opacity="0.5">
              <g id="Grupo_1176686" data-name="Grupo 1176686">
                <g id="Grupo_1176685" data-name="Grupo 1176685" clip-path="url(#clip-path-12)">
                  <path id="Trazado_1034776" data-name="Trazado 1034776" d="M199.7,100.767l8.762.971,14.923-.971-6.1-1.661-4.014-.308-.849.905-2.577-.179Z" transform="translate(-199.701 -98.798)"/>
                </g>
              </g>
            </g>
            <path id="Trazado_1034777" data-name="Trazado 1034777" d="M208.069,100.063l-8.066-.6V91.153l8.066.588Z" transform="translate(-34.232 -15.602)" fill="#ffb76a"/>
            <path id="Trazado_1034778" data-name="Trazado 1034778" d="M212.611,98.194l-2.876,1.828v-8.3l2.876-.8Z" transform="translate(-35.898 -15.562)" fill="#843f1b"/>
            <path id="Trazado_1034779" data-name="Trazado 1034779" d="M200,91l3.408-.719,7.534.526-2.876.782Z" transform="translate(-34.232 -15.453)" fill="#f7e8a6"/>
            <g id="Grupo_1176690" data-name="Grupo 1176690" transform="translate(169.179 75.357)" opacity="0.5">
              <g id="Grupo_1176689" data-name="Grupo 1176689">
                <g id="Grupo_1176688" data-name="Grupo 1176688" clip-path="url(#clip-path-13)">
                  <path id="Trazado_1034780" data-name="Trazado 1034780" d="M208.773,91.725l-4.658-.806c1.563.268,3.131,1.392,4.658,1.774Z" transform="translate(-204.115 -90.919)"/>
                </g>
              </g>
            </g>
            <path id="Trazado_1034781" data-name="Trazado 1034781" d="M207.55,90.114l-3.436-.725V81.978l3.436.564Z" transform="translate(-34.936 -14.031)" fill="#f4a053"/>
            <path id="Trazado_1034782" data-name="Trazado 1034782" d="M208.26,82.56l5.019-.483v7.135l-5.019.919Z" transform="translate(-35.646 -14.048)" fill="#bf6725"/>
            <path id="Trazado_1034783" data-name="Trazado 1034783" d="M204.115,81.887l4.3-.442,4.157.523-5.019.483Z" transform="translate(-34.936 -13.94)" fill="#e8d379"/>
            <g id="Grupo_1176693" data-name="Grupo 1176693" transform="translate(169.179 67.947)" opacity="0.5">
              <g id="Grupo_1176692" data-name="Grupo 1176692">
                <g id="Grupo_1176691" data-name="Grupo 1176691" clip-path="url(#clip-path-14)">
                  <path id="Trazado_1034784" data-name="Trazado 1034784" d="M207.076,85.418l.5-1.973V82.235l-3.457-.257V84Z" transform="translate(-204.115 -81.978)"/>
                </g>
              </g>
            </g>
            <path id="Trazado_1034785" data-name="Trazado 1034785" d="M202.813,79.547l3.841,1.106,1.3-10.659Z" transform="translate(-34.713 -11.98)" fill="#efd565"/>
            <path id="Trazado_1034786" data-name="Trazado 1034786" d="M211.975,79.61l-4.562,1.057,1.3-10.66Z" transform="translate(-35.501 -11.982)" fill="#d37d42"/>
            <path id="Trazado_1034787" data-name="Trazado 1034787" d="M86.32,191.66s-2.258,9.489-1.1,12.652,13.168,2.065,13.491-.516.452-9.683-1.42-13.556Z" transform="translate(-14.53 -32.561)" fill="#1e2744" fill-rule="evenodd"/>
            <path id="Trazado_1034788" data-name="Trazado 1034788" d="M122.985,190.916s2.259,9.489,1.1,12.652-13.169,2.066-13.492-.516-.451-9.683,1.421-13.557Z" transform="translate(-18.896 -32.434)" fill="#1e2744" fill-rule="evenodd"/>
            <path id="Trazado_1034789" data-name="Trazado 1034789" d="M95.776,183.663c.569-5.5,2.165-22.546,1.306-32.714l-13.431-.106c-.24,7.318-.052,20.931,3.543,33.931Z" transform="translate(-14.306 -25.818)" fill="#f8a185" fill-rule="evenodd"/>
            <path id="Trazado_1034790" data-name="Trazado 1034790" d="M122.642,184.161a164.717,164.717,0,0,0,3.33-33.608l-12.75.3c-.673,4.857-1.31,14.535-.084,32.083Z" transform="translate(-19.246 -25.768)" fill="#f8a185" fill-rule="evenodd"/>
            <path id="Trazado_1034791" data-name="Trazado 1034791" d="M96.116,188.529c.2-1.93.525-5.283.827-9.261l-11.377,1.441a90.171,90.171,0,0,0,1.968,8.931Z" transform="translate(-14.646 -30.683)" fill="#fdfdfd" fill-rule="evenodd"/>
            <path id="Trazado_1034792" data-name="Trazado 1034792" d="M122.686,189.086c.405-1.879.978-4.816,1.536-8.618L112.7,179.327q.165,3.916.483,8.53Z" transform="translate(-19.289 -30.693)" fill="#fdfdfd" fill-rule="evenodd"/>
            <path id="Trazado_1034793" data-name="Trazado 1034793" d="M91.914,186.049h1.595a1.174,1.174,0,0,1,1.171,1.17v6.051a1.174,1.174,0,0,1-1.171,1.17H91.914a1.175,1.175,0,0,1-1.172-1.17v-6.051a1.175,1.175,0,0,1,1.172-1.17" transform="translate(-15.531 -31.844)" fill="#11588e" fill-rule="evenodd"/>
            <path id="Trazado_1034794" data-name="Trazado 1034794" d="M117.809,185.3h1.6a1.175,1.175,0,0,1,1.171,1.172v6.05a1.175,1.175,0,0,1-1.171,1.17h-1.6a1.174,1.174,0,0,1-1.17-1.17v-6.05a1.174,1.174,0,0,1,1.17-1.172" transform="translate(-19.964 -31.715)" fill="#1b4872" fill-rule="evenodd"/>
            <path id="Trazado_1034795" data-name="Trazado 1034795" d="M63.746,89.459C53.963,88.122,52.274,76.22,51.994,72.968a3.669,3.669,0,0,0,.709-3.115,19.238,19.238,0,0,1-.105-7.571,23.314,23.314,0,0,0,.7-3.176c0-1.7-.13-2.1-1.605-2.128-1.114-.022-2.216,3.725-2.232,4.607-.023,1.239-1.594-1.9-1.63-1.965-.836-1.484-2.744-5.323-4.684-5.32-4.049,0,2.068,4.574,1.687,5.613-.471,1.286-4.479-4.654-5.271-4.714-2.4-.184-1.7,1.949-.951,2.558.979.8,3.938,2.908,3.938,4.158,0,1.5-2.853-1.463-3.133-1.8-.346-.411-1.98-2.231-2.457-2.238-1.363-.019-.735,1.035-.489,1.625.6,1.441,3.336,3.378,3.336,4.487,0,1.235-1.57.008-1.691-.168-.584-.86-3.654-2.855-3.179-.74a2.535,2.535,0,0,0,.361,1.006,8.615,8.615,0,0,0,1.3,1.8c.411.366,3.054,2.648,3.194,2.848.576.83,1.718,1.465,2.046,1.918a11.619,11.619,0,0,0,3.709,2.969,42.717,42.717,0,0,0,.908,11.044C48.807,97.545,59.441,98.68,64.088,98.544a27.406,27.406,0,0,1-.342-9.085" transform="translate(-5.971 -9.294)" fill="#ffbda9" fill-rule="evenodd"/>
            <path id="Trazado_1034796" data-name="Trazado 1034796" d="M140.684,149.634c2.725-9.515-.168-28.854-1.245-35.224-2.646,2.135-6.627,3.042-8.063,3.312a67.108,67.108,0,0,0,1.756,14.418c1.1,5.358-.195,16.719-.195,16.719A4.3,4.3,0,0,0,130,151.328c.191,2.043.346,4.364.427,6.943,1.747,2.135,4.829,3.784,7.806,1.3,4.648-3.874,2.453-9.941,2.453-9.941" transform="translate(-22.25 -19.582)" fill="#ffbda9" fill-rule="evenodd"/>
            <path id="Trazado_1034797" data-name="Trazado 1034797" d="M98.556,30.344c8.678,0,15.916,8.064,17.583,18.779a3,3,0,0,1,1.757-.259c2.258.37,3.637,3.419,3.081,6.809s-2.838,5.838-5.095,5.468c-.085-.014-.169-.033-.251-.055-1.747,7.067-5.983,12.667-11.353,15.032l.22,2.57,3.824,0c-1.588,2.567-4.948,4.339-8.836,4.339a10.749,10.749,0,0,1-8.132-3.382l2.171-.637.053-2.591c-4.857-1.833-8.868-6.278-11.087-12.1a2.961,2.961,0,0,1-1.455.694c-2.255.37-4.537-2.077-5.093-5.467s.821-6.438,3.08-6.809a2.965,2.965,0,0,1,1.6.194c.365-12.555,8.252-22.587,17.929-22.587" transform="translate(-12.977 -5.194)" fill="#ffbda9" fill-rule="evenodd"/>
            <path id="Trazado_1034798" data-name="Trazado 1034798" d="M84.458,64.84c-1.593-1.931-.671-11.5-6.463-12.341-.841-.123-5.61-26.509,22.087-26.509,17.087,0,18.372,20.381,17.087,22.085-5.113,6.787,0,9.618-3.028,14.348-1.675,2.617-4.2,9.907-15.11,9.907-7.667,0-9.913-1.84-14.574-7.491" transform="translate(-13.206 -4.449)" fill="#2d2a17" fill-rule="evenodd"/>
            <path id="Trazado_1034799" data-name="Trazado 1034799" d="M95.662,26.779s3.012,12.605,4.853,27.258c0,0-1.518-20.483,1.171-28.046a22,22,0,0,0-6.024.788" transform="translate(-16.373 -4.448)" fill="#2d2317"/>
            <path id="Trazado_1034800" data-name="Trazado 1034800" d="M81.616,146.012a111.951,111.951,0,0,0,38.215.129s1.382,2.036,1.939,8.974a14.5,14.5,0,0,1-14.373,15.63l-12.38.08a14.5,14.5,0,0,1-14.6-14.758,48.808,48.808,0,0,1,1.2-10.056" transform="translate(-13.763 -24.991)" fill="#403a48" fill-rule="evenodd"/>
            <path id="Trazado_1034801" data-name="Trazado 1034801" d="M117.952,136.327s.9-23.95,0-26.918l2.518,4s6.777-.968,9.747-4.519c0,0-5.83-19.136-22.989-20.219-1.587,2.568-4.947,4.34-8.836,4.34a10.747,10.747,0,0,1-8.131-3.382,147.65,147.65,0,0,0-20.336,4.027s-1.677,7.746,1.162,14.072l9.166-.516L79.737,136.2a111.948,111.948,0,0,0,38.215.129" transform="translate(-11.884 -15.177)" fill="#2cccae" fill-rule="evenodd"/>
            <path id="Trazado_1034802" data-name="Trazado 1034802" d="M102.4,97.708c6.211,0,11.321-3.74,11.959-8.54a22.715,22.715,0,0,0-3.505-.493c-1.587,2.567-4.947,4.339-8.836,4.339a10.747,10.747,0,0,1-8.131-3.381c-1.117.142-2.206.3-3.266.453,1.125,4.351,5.971,7.622,11.779,7.622" transform="translate(-15.511 -15.177)" fill="#14a89c" fill-rule="evenodd"/>
            <path id="Trazado_1034803" data-name="Trazado 1034803" d="M74.623,108.331a17.917,17.917,0,0,1-.375-14.984c-2.726.646-4.324,1.111-4.324,1.111s-.137.633-.266,1.684A27.405,27.405,0,0,0,70,105.227a17.46,17.46,0,0,0,1.086,3.3Z" transform="translate(-11.884 -15.977)" fill="#14a89c" fill-rule="evenodd"/>
            <path id="Trazado_1034804" data-name="Trazado 1034804" d="M131.241,116.985c1.436-.269,5.416-1.177,8.063-3.312a8.215,8.215,0,0,0,1.144-1.112,26.216,26.216,0,0,0-.935-2.455,22.276,22.276,0,0,1-10.307,4.6l1.494,2.376s.2-.028.54-.094" transform="translate(-22.115 -18.846)" fill="#14a89c" fill-rule="evenodd"/>
            <path id="Trazado_1034805" data-name="Trazado 1034805" d="M74.56,218.162h-.7a2.186,2.186,0,0,1-2.186-2.186V182.059h5.072v33.917a2.186,2.186,0,0,1-2.186,2.186" transform="translate(-12.268 -31.161)" fill="#9d9d9c"/>
            <path id="Trazado_1034806" data-name="Trazado 1034806" d="M137.295,218.162h-.7a2.186,2.186,0,0,1-2.186-2.186V182.059h5.073v33.917a2.186,2.186,0,0,1-2.186,2.186" transform="translate(-23.005 -31.161)" fill="#9d9d9c"/>
            <path id="Trazado_1034807" data-name="Trazado 1034807" d="M74.209,182.059H71.673v33.917a2.186,2.186,0,0,0,2.186,2.186h.35Z" transform="translate(-12.267 -31.161)" fill="#b2b2b2"/>
            <path id="Trazado_1034808" data-name="Trazado 1034808" d="M136.943,182.059h-2.536v33.917a2.186,2.186,0,0,0,2.186,2.186h.351Z" transform="translate(-23.005 -31.161)" fill="#b2b2b2"/>
            <rect id="Rectángulo_415902" data-name="Rectángulo 415902" width="5.072" height="8.496" transform="translate(59.406 146.903)" fill="#706f6f"/>
            <rect id="Rectángulo_415903" data-name="Rectángulo 415903" width="5.072" height="8.496" transform="translate(111.403 146.903)" fill="#706f6f"/>
            <path id="Trazado_1034809" data-name="Trazado 1034809" d="M116.682,112.045H82.865c-7.586,0-13.734,5.872-13.734,13.116v17.667a12.573,12.573,0,0,0,1.418,5.808,13.805,13.805,0,0,0,12.316,7.308h33.817A13.809,13.809,0,0,0,129,148.635a12.593,12.593,0,0,0,1.417-5.808V125.161c0-7.244-6.149-13.116-13.733-13.116" transform="translate(-11.832 -19.177)" fill="#3d4a6a"/>
            <path id="Trazado_1034810" data-name="Trazado 1034810" d="M128.037,180.251H70.915a3.519,3.519,0,0,1-3.519-3.518v-1.716a3.519,3.519,0,0,1,3.519-3.519h57.122a3.519,3.519,0,0,1,3.518,3.519v1.716a3.518,3.518,0,0,1-3.518,3.518" transform="translate(-11.535 -29.353)" fill="#3d4a6a"/>
            <path id="Trazado_1034811" data-name="Trazado 1034811" d="M82.181,171.083h0a2.537,2.537,0,0,1-2.537-2.537v-31.03a2.537,2.537,0,0,1,5.074,0v31.03a2.537,2.537,0,0,1-2.537,2.537" transform="translate(-13.632 -23.103)" fill="#9d9d9c"/>
            <path id="Trazado_1034812" data-name="Trazado 1034812" d="M128.971,171.083h0a2.537,2.537,0,0,1-2.537-2.537v-31.03a2.537,2.537,0,0,1,5.074,0v31.03a2.537,2.537,0,0,1-2.537,2.537" transform="translate(-21.64 -23.103)" fill="#9d9d9c"/>
            <path id="Trazado_1034813" data-name="Trazado 1034813" d="M82.181,134.979a2.537,2.537,0,0,0-2.537,2.537v31.03a2.538,2.538,0,0,0,2.537,2.537Z" transform="translate(-13.632 -23.103)" fill="#b2b2b2"/>
            <path id="Trazado_1034814" data-name="Trazado 1034814" d="M128.971,134.979h0a2.537,2.537,0,0,0-2.537,2.537v31.03a2.538,2.538,0,0,0,2.537,2.537Z" transform="translate(-21.64 -23.103)" fill="#b2b2b2"/>
            <path id="Trazado_1034815" data-name="Trazado 1034815" d="M131.557,120.021c0-7.243-6.148-13.117-13.732-13.117h-36.7c-7.584,0-13.732,5.874-13.732,13.117v19.726a12.688,12.688,0,0,0,2.856,8.007,12.574,12.574,0,0,1-1.419-5.808V124.281c0-7.244,6.148-13.116,13.734-13.116h33.817c7.585,0,13.733,5.872,13.733,13.116v17.667a12.593,12.593,0,0,1-1.417,5.808,12.688,12.688,0,0,0,2.856-8.007Z" transform="translate(-11.536 -18.298)" fill="#3e6380"/>
            <path id="Trazado_1034816" data-name="Trazado 1034816" d="M241.8,218.162h-.7a2.186,2.186,0,0,1-2.186-2.186V182.059h5.072v33.917a2.186,2.186,0,0,1-2.186,2.186" transform="translate(-40.892 -31.161)" fill="#9d9d9c"/>
            <path id="Trazado_1034817" data-name="Trazado 1034817" d="M304.533,218.162h-.7a2.186,2.186,0,0,1-2.185-2.186V182.059h5.073v33.917a2.186,2.186,0,0,1-2.186,2.186" transform="translate(-51.629 -31.161)" fill="#9d9d9c"/>
            <path id="Trazado_1034818" data-name="Trazado 1034818" d="M241.447,182.059h-2.535v33.917a2.185,2.185,0,0,0,2.185,2.186h.351Z" transform="translate(-40.892 -31.161)" fill="#b2b2b2"/>
            <path id="Trazado_1034819" data-name="Trazado 1034819" d="M304.18,182.059h-2.536v33.917a2.186,2.186,0,0,0,2.186,2.186h.351Z" transform="translate(-51.629 -31.161)" fill="#b2b2b2"/>
            <rect id="Rectángulo_415904" data-name="Rectángulo 415904" width="5.072" height="8.496" transform="translate(198.019 146.903)" fill="#706f6f"/>
            <rect id="Rectángulo_415905" data-name="Rectángulo 415905" width="5.072" height="8.496" transform="translate(250.017 146.903)" fill="#706f6f"/>
            <path id="Trazado_1034820" data-name="Trazado 1034820" d="M283.919,112.045H250.1c-7.586,0-13.734,5.872-13.734,13.116v17.667a12.564,12.564,0,0,0,1.419,5.808,13.8,13.8,0,0,0,12.315,7.308h33.817a13.808,13.808,0,0,0,12.316-7.308,12.593,12.593,0,0,0,1.417-5.808V125.161c0-7.244-6.149-13.116-13.733-13.116" transform="translate(-40.457 -19.177)" fill="#3d4a6a"/>
            <path id="Trazado_1034821" data-name="Trazado 1034821" d="M295.275,180.251H238.153a3.519,3.519,0,0,1-3.519-3.518v-1.716a3.519,3.519,0,0,1,3.519-3.519h57.122a3.519,3.519,0,0,1,3.518,3.519v1.716a3.518,3.518,0,0,1-3.518,3.518" transform="translate(-40.16 -29.353)" fill="#3d4a6a"/>
            <path id="Trazado_1034822" data-name="Trazado 1034822" d="M249.418,171.083h0a2.536,2.536,0,0,1-2.536-2.537v-31.03a2.537,2.537,0,1,1,5.073,0v31.03a2.537,2.537,0,0,1-2.537,2.537" transform="translate(-42.256 -23.103)" fill="#9d9d9c"/>
            <path id="Trazado_1034823" data-name="Trazado 1034823" d="M296.209,171.083h0a2.537,2.537,0,0,1-2.537-2.537v-31.03a2.537,2.537,0,1,1,5.073,0v31.03a2.536,2.536,0,0,1-2.536,2.537" transform="translate(-50.265 -23.103)" fill="#9d9d9c"/>
            <path id="Trazado_1034824" data-name="Trazado 1034824" d="M249.418,134.979a2.536,2.536,0,0,0-2.536,2.537v31.03a2.537,2.537,0,0,0,2.536,2.537Z" transform="translate(-42.256 -23.103)" fill="#b2b2b2"/>
            <path id="Trazado_1034825" data-name="Trazado 1034825" d="M296.209,134.979h0a2.537,2.537,0,0,0-2.537,2.537v31.03a2.538,2.538,0,0,0,2.537,2.537Z" transform="translate(-50.265 -23.103)" fill="#b2b2b2"/>
            <path id="Trazado_1034826" data-name="Trazado 1034826" d="M298.794,120.021c0-7.243-6.148-13.117-13.732-13.117h-36.7c-7.584,0-13.732,5.874-13.732,13.117v19.726a12.688,12.688,0,0,0,2.856,8.007,12.574,12.574,0,0,1-1.419-5.808V124.281c0-7.244,6.148-13.116,13.734-13.116h33.817c7.585,0,13.733,5.872,13.733,13.116v17.667a12.593,12.593,0,0,1-1.417,5.808,12.688,12.688,0,0,0,2.856-8.007Z" transform="translate(-40.16 -18.298)" fill="#3e6380"/>
            <path id="Trazado_1034827" data-name="Trazado 1034827" d="M270.379,90.686c.725.192,1.4,1.476,3.074,1.253,1.458-.195,3.274.332,2.287.962-1.07.462-1.667.863.652,1.526,2.184,1.3,2.1,2.828,1.5,4.453-.269.721-2.193.764-2.956.669-2.778-.346-4.213-3.288-4.488-3.816,0,0-1.223-2.214-2.39-2.258s2.324-2.789,2.324-2.789" transform="translate(-45.839 -15.522)" fill="#af5936"/>
            <path id="Trazado_1034828" data-name="Trazado 1034828" d="M261.512,65.167c.174-2.087-1.154-6.554-1.631-7.7l-2.062,1.213A6.79,6.79,0,0,0,255.4,63.5c-.108,1.368-.012,2.753-.022,3.7-.158,13.981,5.508,16.671,11.092,22.849l4.791-4.332c-4.67-5.166-10.758-8.451-9.75-20.544" transform="translate(-43.705 -9.836)" fill="#fc9f9f"/>
          </g>
        </g>
      </g>
    </g>
  </g>
</svg>
