<svg xmlns="http://www.w3.org/2000/svg" xmlns:xlink="http://www.w3.org/1999/xlink" width="113" height="113" viewBox="0 0 113 113">
  <defs>
    <filter id="Trazado_982547" x="0" y="0" width="113" height="113" filterUnits="userSpaceOnUse">
      <feOffset dy="3" input="SourceAlpha"/>
      <feGaussianBlur stdDeviation="3" result="blur"/>
      <feFlood flood-opacity="0.161"/>
      <feComposite operator="in" in2="blur"/>
      <feComposite in="SourceGraphic"/>
    </filter>
  </defs>
  <g id="Grupo_1176886" data-name="Grupo 1176886" transform="translate(9 6)">
    <g id="Grupo_1172010" data-name="Grupo 1172010">
      <g id="Grupo_1171046" data-name="Grupo 1171046">
        <g id="Grupo_1148525" data-name="Grupo 1148525">
          <g transform="matrix(1, 0, 0, 1, -9, -6)" filter="url(#Trazado_982547)">
            <g id="Trazado_982547-2" data-name="Trazado 982547" transform="translate(9 6)" fill="#edf3fc">
              <path d="M 47.5 93.5 C 41.28937149047852 93.5 35.26533508300781 92.28397369384766 29.59518623352051 89.88570404052734 C 24.11771965026855 87.56893157958984 19.19813346862793 84.25196075439453 14.97309303283691 80.02691650390625 C 10.74804019927979 75.80186462402344 7.431066513061523 70.88229370117188 5.114293098449707 65.40481567382812 C 2.716026782989502 59.73468017578125 1.5 53.71062850952148 1.5 47.5 C 1.5 41.28937149047852 2.716026782989502 35.26533508300781 5.114293098449707 29.59518623352051 C 7.431066513061523 24.11771965026855 10.74804019927979 19.19813346862793 14.97309303283691 14.97309303283691 C 19.19813346862793 10.74804019927979 24.11771965026855 7.431066513061523 29.59518623352051 5.114293098449707 C 35.26533508300781 2.716026782989502 41.28937149047852 1.5 47.5 1.5 C 53.71062850952148 1.5 59.73468017578125 2.716026782989502 65.40481567382812 5.114293098449707 C 70.88229370117188 7.431066513061523 75.80186462402344 10.74804019927979 80.02691650390625 14.97309303283691 C 84.25196075439453 19.19813346862793 87.56893157958984 24.11771965026855 89.88570404052734 29.59518623352051 C 92.28397369384766 35.26533508300781 93.5 41.28937149047852 93.5 47.5 C 93.5 53.71062850952148 92.28397369384766 59.73468017578125 89.88570404052734 65.40481567382812 C 87.56893157958984 70.88229370117188 84.25196075439453 75.80186462402344 80.02691650390625 80.02691650390625 C 75.80186462402344 84.25196075439453 70.88229370117188 87.56893157958984 65.40481567382812 89.88570404052734 C 59.73468017578125 92.28397369384766 53.71062850952148 93.5 47.5 93.5 Z" stroke="none"/>
              <path d="M 47.5 3 C 41.49121475219727 3 35.66376876831055 4.176155090332031 30.17950439453125 6.495796203613281 C 24.88084411621094 8.736953735351562 20.12152099609375 11.94598388671875 16.03375244140625 16.03375244140625 C 11.94598388671875 20.12152099609375 8.736953735351562 24.88084411621094 6.495796203613281 30.17950439453125 C 4.176155090332031 35.66376876831055 3 41.49121475219727 3 47.5 C 3 53.50878524780273 4.176155090332031 59.33623123168945 6.495796203613281 64.82049560546875 C 8.736953735351562 70.11915588378906 11.94598388671875 74.87847900390625 16.03375244140625 78.96624755859375 C 20.12152099609375 83.05401611328125 24.88084411621094 86.26304626464844 30.17950439453125 88.50419616699219 C 35.66376876831055 90.82384490966797 41.49121475219727 92 47.5 92 C 53.50878524780273 92 59.33623123168945 90.82384490966797 64.82049560546875 88.50419616699219 C 70.11915588378906 86.26304626464844 74.87847900390625 83.05401611328125 78.96624755859375 78.96624755859375 C 83.05401611328125 74.87847900390625 86.26304626464844 70.11915588378906 88.50419616699219 64.82049560546875 C 90.82384490966797 59.33623123168945 92 53.50878524780273 92 47.5 C 92 41.49121475219727 90.82384490966797 35.66376876831055 88.50419616699219 30.17950439453125 C 86.26304626464844 24.88084411621094 83.05401611328125 20.12152099609375 78.96624755859375 16.03375244140625 C 74.87847900390625 11.94598388671875 70.11915588378906 8.736953735351562 64.82049560546875 6.495796203613281 C 59.33623123168945 4.176155090332031 53.50878524780273 3 47.5 3 M 47.5 0 C 73.7335205078125 0 95 21.2664794921875 95 47.5 C 95 73.7335205078125 73.7335205078125 95 47.5 95 C 21.2664794921875 95 0 73.7335205078125 0 47.5 C 0 21.2664794921875 21.2664794921875 0 47.5 0 Z" stroke="none" fill="#5692e8"/>
            </g>
          </g>
        </g>
      </g>
    </g>
    <g id="storytelling_1702323" transform="translate(20.347 16.665)">
      <path id="Trazado_1026345" data-name="Trazado 1026345" d="M279.976,249.389l-4.553-15.143a2.5,2.5,0,0,0-2.5-1.778H266.64a10.192,10.192,0,0,1-1.435.642v1.46a3.4,3.4,0,0,1-2.373,3.236c0-.01,0-.02-.005-.03a7.752,7.752,0,0,1,.107,1.261h.6a1.753,1.753,0,0,1,1.757,1.738v1.453a1.753,1.753,0,0,1-1.757,1.738h-.852a7.358,7.358,0,0,1-1.33,2.654l11.382-6.555c.639-.368,1.162-.067,1.162.669v5.7h1.471a1.072,1.072,0,0,1,1.073,1.071v5.219a1.071,1.071,0,0,1-1.073,1.07H273.9v2.392h1.191a5.11,5.11,0,0,0,4.164-2,5.366,5.366,0,0,0,.722-4.807Zm0,0" transform="translate(-227.397 -202.65)" fill="#ef5050"/>
      <path id="Trazado_1026346" data-name="Trazado 1026346" d="M179.914,96.707h-1.688V93.9a1.028,1.028,0,0,0-1.031-1.025H158.578a1.028,1.028,0,0,0-1.03,1.025v2.8H155.86a2.205,2.205,0,0,0-2.223,2.187v2.315a2.205,2.205,0,0,0,2.223,2.187h1.856a10.526,10.526,0,0,0,3.546,6.175,7.906,7.906,0,0,1,7.668,6.552,3.4,3.4,0,0,0,2.373-3.236v-1.461a10.481,10.481,0,0,0,6.756-8.03h1.856a2.2,2.2,0,0,0,2.222-2.187V98.894a2.2,2.2,0,0,0-2.222-2.187Zm0,0" transform="translate(-133.495 -80.967)" fill="#ffd5b3"/>
      <path id="Trazado_1026347" data-name="Trazado 1026347" d="M167.185,22.279h1.688v-2.8a1.028,1.028,0,0,1,1.03-1.025h18.618a1.028,1.028,0,0,1,1.031,1.025v2.8h1.688a2.242,2.242,0,0,1,.557.072V15.1a5.467,5.467,0,0,0-8.582-4.46c-1.6-2.069-4.4-3.143-7.58-3.143a8.982,8.982,0,0,0-9.006,8.959v5.892a2.235,2.235,0,0,1,.556-.072Zm0,0" transform="translate(-144.821 -6.539)" fill="#f7931e"/>
      <path id="Trazado_1026348" data-name="Trazado 1026348" d="M167.185,22.279h1.688v-2.8a1.028,1.028,0,0,1,1.03-1.025h.659V16.459a8.973,8.973,0,0,1,7.227-8.783,12.984,12.984,0,0,0-2.154-.176,8.982,8.982,0,0,0-9.006,8.959v5.892a2.235,2.235,0,0,1,.556-.072Zm0,0" transform="translate(-144.821 -6.539)" fill="#de841b"/>
      <path id="Trazado_1026349" data-name="Trazado 1026349" d="M239.93,190.163a3.813,3.813,0,0,1-3.65-3.951.517.517,0,0,1,.522-.513h6.256a.518.518,0,0,1,.522.513A3.814,3.814,0,0,1,239.93,190.163Zm0,0" transform="translate(-205.539 -161.881)" fill="#fb8276"/>
      <path id="Trazado_1026350" data-name="Trazado 1026350" d="M238.976,186.212a.517.517,0,0,1,.522-.513H236.8a.517.517,0,0,0-.522.513,3.813,3.813,0,0,0,3.65,3.951,3.385,3.385,0,0,0,1.348-.281A3.963,3.963,0,0,1,238.976,186.212Zm0,0" transform="translate(-205.539 -161.881)" fill="#e1756a"/>
      <path id="Trazado_1026351" data-name="Trazado 1026351" d="M133.116,240.494a2.585,2.585,0,0,0,2.324,0l3.723-2.145a7.357,7.357,0,0,0,1.33-2.654h.852a1.753,1.753,0,0,0,1.757-1.738V232.5a1.753,1.753,0,0,0-1.757-1.738h-.6a7.882,7.882,0,0,0-7.957-7.789H131.5a7.881,7.881,0,0,0-7.956,7.789h-.6a1.753,1.753,0,0,0-1.757,1.738v1.118Zm0,0" transform="translate(-105.204 -194.377)" fill="#ffd5b3"/>
      <path id="Trazado_1026352" data-name="Trazado 1026352" d="M155.863,224.614a8.024,8.024,0,0,0-4.874-1.637h-1.283a7.938,7.938,0,0,0-7.639,5.62,1.711,1.711,0,0,0,2.236-.156l.947-.945a1.708,1.708,0,0,0,2.9.961l.947-.946a1.691,1.691,0,0,0,.481.961,1.712,1.712,0,0,0,2.417,0Zm0,0" transform="translate(-123.409 -194.377)" fill="#f7931e"/>
      <path id="Trazado_1026353" data-name="Trazado 1026353" d="M142.7,261.495a7.656,7.656,0,0,1,.529-2.8,1.734,1.734,0,0,1-.146-.484l-.947.945a1.712,1.712,0,0,1-2.236.155,7.65,7.65,0,0,0-.318,2.183v3.018a7.381,7.381,0,0,0,.107,1.244l3.049,1.756c-.024-1.283-.037-2.756-.037-3Zm0,0" transform="translate(-121.246 -225.092)" fill="#e5bfa1"/>
      <path id="Trazado_1026354" data-name="Trazado 1026354" d="M151.9,223.031a8.1,8.1,0,0,0-.914-.054h-1.283a7.938,7.938,0,0,0-7.639,5.62,1.711,1.711,0,0,0,2.236-.156l.947-.945a1.72,1.72,0,0,0,.147.484A7.94,7.94,0,0,1,151.9,223.031Zm0,0" transform="translate(-123.409 -194.378)" fill="#de841b"/>
      <path id="Trazado_1026355" data-name="Trazado 1026355" d="M121.031,297.026h1.212v-5.7c0-.736-.523-1.037-1.162-.669l-15.105,8.7a2.582,2.582,0,0,1-2.324,0l-15.105-8.7c-.639-.368-1.162-.067-1.162.669v5.7h1.45a1.072,1.072,0,0,1,1.073,1.071v5.219a1.071,1.071,0,0,1-1.073,1.07h-1.45v2.575a2.571,2.571,0,0,0,1.162,2.008l15.105,8.7a2.582,2.582,0,0,0,2.324,0l15.105-8.7a2.571,2.571,0,0,0,1.162-2.008v-2.575h-1.212a1.072,1.072,0,0,1-1.073-1.07V298.1a1.072,1.072,0,0,1,1.073-1.071Zm0,0" transform="translate(-75.742 -253.236)" fill="#d5e962"/>
      <path id="Trazado_1026356" data-name="Trazado 1026356" d="M103.653,299.353l-15.105-8.7c-.639-.368-1.162-.067-1.162.669v5.7h1.45A1.072,1.072,0,0,1,89.91,298.1v5.219a1.072,1.072,0,0,1-1.073,1.07h-1.45v2.575a2.571,2.571,0,0,0,1.162,2.008l15.105,8.7a2.381,2.381,0,0,0,1.162.276V299.629a2.385,2.385,0,0,1-1.162-.276Zm0,0" transform="translate(-75.742 -253.236)" fill="#89c947"/>
      <path id="Trazado_1026357" data-name="Trazado 1026357" d="M88.837,297.026a1.072,1.072,0,0,1,1.056.884v-5.157c0-.68.447-.988,1.019-.74l-2.363-1.362c-.639-.368-1.162-.067-1.162.669v5.7Zm0,0" transform="translate(-75.742 -253.236)" fill="#7bb540"/>
      <path id="Trazado_1026358" data-name="Trazado 1026358" d="M90.311,376q-.2-.2-.4-.383v1.9a1.072,1.072,0,0,1-1.073,1.07h-1.45v2.575a2.572,2.572,0,0,0,1.162,2.008l5.611,3.232A12.932,12.932,0,0,0,90.311,376Zm0,0" transform="translate(-75.742 -327.44)" fill="#ffc502"/>
      <path id="Trazado_1026359" data-name="Trazado 1026359" d="M91.727,399.184l-.672-.387a2.569,2.569,0,0,1-1.161-2.007V391.9a1.072,1.072,0,0,1-1.056.884h-1.45v2.575a2.571,2.571,0,0,0,1.162,2.008l3.188,1.836Zm0,0" transform="translate(-75.743 -341.633)" fill="#e5b102"/>
      <path id="Trazado_1026360" data-name="Trazado 1026360" d="M253.759,371.171a1.343,1.343,0,0,0,.368-.263l2.174-2.157,2.174.129a.779.779,0,0,0,.368-.081,1.375,1.375,0,0,0,.465-.368,1.192,1.192,0,0,0,.315-.921l-.415-2.227,1.759-2.535a1.035,1.035,0,0,0,.2-.9.468.468,0,0,0-.639-.241l-2.431.781-1.087-1.7a.526.526,0,0,0-.709-.111,1.485,1.485,0,0,0-.71.772l-1.087,2.71-2.431,1.487a1.5,1.5,0,0,0-.639.836c-.094.332-.017.607.2.719l1.759.894-.415,2.614c-.051.323.069.563.315.627A.7.7,0,0,0,253.759,371.171Zm0,0" transform="translate(-218.714 -314.257)" fill="#ffc502"/>
      <path id="Trazado_1026361" data-name="Trazado 1026361" d="M255.4,395.3l.415-2.614-1.759-.894c-.217-.111-.294-.386-.2-.718a1.357,1.357,0,0,1,.122-.288l-1.907,1.167a1.5,1.5,0,0,0-.639.836c-.094.332-.017.607.2.718l1.759.894-.415,2.614c-.051.323.07.563.315.627a.7.7,0,0,0,.465-.066,1.356,1.356,0,0,0,.368-.263l1.46-1.448a.547.547,0,0,1-.184-.567Zm0,0" transform="translate(-218.715 -340.658)" fill="#e5b102"/>
      <path id="Trazado_1026362" data-name="Trazado 1026362" d="M74.239,347.7a1.072,1.072,0,0,1-1.073,1.071H70.484a1.072,1.072,0,0,1-1.073-1.071v-5.219a1.072,1.072,0,0,1,1.073-1.071h2.683a1.072,1.072,0,0,1,1.073,1.071Zm0,0" transform="translate(-60.072 -297.62)" fill="#ffd5b3"/>
      <path id="Trazado_1026363" data-name="Trazado 1026363" d="M71.364,347.7v-5.219a1.072,1.072,0,0,1,1.073-1.071H70.483a1.072,1.072,0,0,0-1.073,1.071V347.7a1.072,1.072,0,0,0,1.073,1.071h1.954A1.072,1.072,0,0,1,71.364,347.7Zm0,0" transform="translate(-60.071 -297.62)" fill="#e5bfa1"/>
      <path id="Trazado_1026364" data-name="Trazado 1026364" d="M346.164,347.7a1.072,1.072,0,0,1-1.073,1.071h-2.683a1.072,1.072,0,0,1-1.073-1.071v-5.219a1.072,1.072,0,0,1,1.073-1.071h2.683a1.072,1.072,0,0,1,1.073,1.071Zm0,0" transform="translate(-297.119 -297.62)" fill="#ffd5b3"/>
      <path id="Trazado_1026365" data-name="Trazado 1026365" d="M343.3,347.7v-5.219a1.072,1.072,0,0,1,1.073-1.071H342.41a1.072,1.072,0,0,0-1.073,1.071V347.7a1.072,1.072,0,0,0,1.073,1.071h1.963A1.072,1.072,0,0,1,343.3,347.7Zm0,0" transform="translate(-297.12 -297.62)" fill="#e5bfa1"/>
      <path id="Trazado_1026366" data-name="Trazado 1026366" d="M25.989,152.878l-1.957-1.235v-6.36A1.286,1.286,0,0,0,22.75,144H9.283A1.286,1.286,0,0,0,8,145.283v10.261a1.286,1.286,0,0,0,1.283,1.283H22.75a1.286,1.286,0,0,0,1.283-1.283V154.8l1.957-1.235A.373.373,0,0,0,25.989,152.878Zm0,0" transform="translate(-6.538 -125.531)" fill="#fcdb67"/>
      <path id="Trazado_1026367" data-name="Trazado 1026367" d="M11.885,155.544V145.283A1.286,1.286,0,0,1,13.168,144H9.283A1.286,1.286,0,0,0,8,145.283v10.261a1.286,1.286,0,0,0,1.283,1.283h3.885A1.286,1.286,0,0,1,11.885,155.544Zm0,0" transform="translate(-6.538 -125.53)" fill="#e2c55c"/>
      <path id="Trazado_1026368" data-name="Trazado 1026368" d="M193.755,100.379h-2.062a.066.066,0,0,0-.068.063v7.623a9.573,9.573,0,0,0,3.127,7.1,9.006,9.006,0,0,1,2.1.383,10.53,10.53,0,0,1-3.1-7.479v-7.623C193.752,100.421,193.754,100.4,193.755,100.379Zm0,0" transform="translate(-166.61 -87.504)" fill="#e5bfa1"/>
      <path id="Trazado_1026369" data-name="Trazado 1026369" d="M107.034,46.462l-2.561-8.517a.962.962,0,1,0-1.843.554l2.561,8.517a4.416,4.416,0,0,1-.572,3.955,4.157,4.157,0,0,1-3.392,1.609H101v-.468h.509a2.036,2.036,0,0,0,2.035-2.032V44.861a2.036,2.036,0,0,0-2.035-2.033H101V38.086A1.649,1.649,0,0,0,99.39,36.3a1.991,1.991,0,0,0-1,.286l-6.047,3.483a2.682,2.682,0,0,0,.047-.486V38.126a2.7,2.7,0,0,0-2.007-2.6,4.351,4.351,0,0,0,1.917-3.6v-.8c.243-.1.483-.215.718-.336H99.1a1.538,1.538,0,0,1,1.54,1.094l.681,2.264a.962.962,0,0,0,1.843-.554l-.681-2.264a3.46,3.46,0,0,0-3.442-2.463H95.706a11.493,11.493,0,0,0,3.172-5.465h1.076a3.17,3.17,0,0,0,3.184-3.149V17.927a3.147,3.147,0,0,0-1.666-2.767v-6.6a6.426,6.426,0,0,0-9.351-5.691A10.575,10.575,0,0,0,84.348,0,9.956,9.956,0,0,0,74.38,9.921v5.24a3.146,3.146,0,0,0-1.666,2.767v2.315A3.171,3.171,0,0,0,75.9,23.392h1.076a11.484,11.484,0,0,0,2.1,4.279,8.862,8.862,0,0,0-8.108,7.773A2.716,2.716,0,0,0,68.6,37.609L66.82,36.583a1.982,1.982,0,0,0-1-.286,1.649,1.649,0,0,0-1.608,1.788v4.742h-.271a2.036,2.036,0,0,0-2.035,2.033v5.219a2.036,2.036,0,0,0,2.035,2.033h.271v1.613a3.524,3.524,0,0,0,1.644,2.841l15.105,8.7a3.535,3.535,0,0,0,3.284,0l15.105-8.7a3.548,3.548,0,0,0,1.53-2.062h.343a6.061,6.061,0,0,0,4.935-2.382,6.319,6.319,0,0,0,.872-5.66ZM90.469,38.126v1.453a.777.777,0,0,1-.484.714,8.36,8.36,0,0,0,.047-.872V37.434a.774.774,0,0,1,.437.692ZM89.595,33.7a8.647,8.647,0,0,0-.788-1.723,11.136,11.136,0,0,0,1.572-.236v.18A2.413,2.413,0,0,1,89.595,33.7Zm10.358-17a1.244,1.244,0,0,1,1.26,1.225v2.315a1.244,1.244,0,0,1-1.26,1.225h-.762q.035-.449.036-.906V16.7ZM95.047,4.093a4.491,4.491,0,0,1,4.5,4.472v6.214h-.321V12.938a1.992,1.992,0,0,0-1.992-1.987H94.316V8.529a8.249,8.249,0,0,0-1.023-4.08,4.489,4.489,0,0,1,1.753-.356ZM75.9,21.468a1.245,1.245,0,0,1-1.261-1.225V17.927A1.245,1.245,0,0,1,75.9,16.7h.726v3.858c0,.305.013.607.036.907Zm.726-8.53v1.841H76.3V9.921a8.03,8.03,0,0,1,8.044-8,9.41,9.41,0,0,1,5.776,1.724,5.953,5.953,0,0,1,2.268,4.882v2.421H78.616a1.992,1.992,0,0,0-1.992,1.987Zm1.924,7.623V12.938a.066.066,0,0,1,.068-.063H97.234a.066.066,0,0,1,.069.063v7.623a9.464,9.464,0,0,1-9.378,9.529c-.222,0-.443-.009-.661-.025a8.956,8.956,0,0,0-5.588-2.407,9.573,9.573,0,0,1-3.127-7.1Zm1.282,9h1.283a7.078,7.078,0,0,1,3.35.837L81.44,33.414a.751.751,0,0,1-1.059,0A.733.733,0,0,1,80.173,33a.962.962,0,0,0-1.631-.543l-.947.945a.751.751,0,0,1-1.059,0,.732.732,0,0,1-.208-.418.962.962,0,0,0-1.632-.543l-.947.945a.736.736,0,0,1-.274.17,7.013,7.013,0,0,1,6.357-3.992ZM72.835,36.4a6.735,6.735,0,0,1,.063-.9,2.674,2.674,0,0,0,2.208-.754l.028-.028.043.043a2.677,2.677,0,0,0,3.776,0l.028-.028.042.043a2.677,2.677,0,0,0,3.777,0l3.236-3.229A6.746,6.746,0,0,1,88.108,36.4v3.018a6.368,6.368,0,0,1-1.269,3.816l-3.551,2.046a1.65,1.65,0,0,1-1.363,0l-9.057-5.216a6.393,6.393,0,0,1-.034-.646Zm-2.36,1.723a.775.775,0,0,1,.436-.692V38.94l-.436-.252ZM63.946,50.188a.11.11,0,0,1-.111-.109V44.861a.11.11,0,0,1,.111-.109h2.683a.11.11,0,0,1,.111.109v5.219a.11.11,0,0,1-.111.109ZM66.821,54.9a1.625,1.625,0,0,1-.68-1.174V52.112h.489A2.036,2.036,0,0,0,68.6,50.586a11.858,11.858,0,0,1,2.446,6.744Zm32.253-1.174a1.624,1.624,0,0,1-.68,1.174L83.569,63.437v-1.23a.962.962,0,0,0-1.924,0v1.23l-8.69-5a13.869,13.869,0,0,0-4.173-10.554c-.039-.039-.08-.075-.119-.113V44.861a2.036,2.036,0,0,0-2.035-2.033H66.14V38.411L80.965,46.95a2.907,2.907,0,0,0,.68.277V57.718a.962.962,0,0,0,1.924,0V47.226a2.886,2.886,0,0,0,.68-.277l14.825-8.539v4.417h-.25a2.036,2.036,0,0,0-2.035,2.033V47.04a1.376,1.376,0,0,0-1.218-.692,1.688,1.688,0,0,0-.517.084l-1.726.554-.687-1.073a1.378,1.378,0,0,0-1.184-.636,1.752,1.752,0,0,0-.742.173,2.452,2.452,0,0,0-1.2,1.286l-.968,2.413-2.158,1.321a2.465,2.465,0,0,0-1.063,1.4,1.519,1.519,0,0,0,.69,1.837l1.135.577L86.848,56.2a1.444,1.444,0,0,0,1.021,1.709,1.485,1.485,0,0,0,.375.048,1.755,1.755,0,0,0,.743-.173,2.328,2.328,0,0,0,.637-.451l1.869-1.854,1.747.1a1.728,1.728,0,0,0,.83-.169,2.352,2.352,0,0,0,.8-.622,2.135,2.135,0,0,0,.524-1.715l-.342-1.833,1.53-2.205a2.425,2.425,0,0,0,.211-.37v1.409a2.036,2.036,0,0,0,2.035,2.033h.251v1.613ZM93.082,51.2l.407,2.185a.511.511,0,0,1-.1.169.494.494,0,0,1-.113.1l-2.1-.125a.949.949,0,0,0-.735.277l-1.5,1.493.224-1.415a.962.962,0,0,0-.514-1.008L87.3,52.193a.466.466,0,0,1,.1-.083l2.43-1.487a.964.964,0,0,0,.391-.462L91.3,47.452c0-.012.011-.024.016-.036l.788,1.23a.962.962,0,0,0,1.1.4l1.315-.422-1.289,1.857a.96.96,0,0,0-.155.724Zm5.742-1.015a.11.11,0,0,1-.111-.109V44.861a.11.11,0,0,1,.111-.109h2.683a.11.11,0,0,1,.111.109v5.219a.11.11,0,0,1-.111.109Zm0,0" transform="translate(-53.534)"/>
      <path id="Trazado_1026370" data-name="Trazado 1026370" d="M215.228,133.753a.962.962,0,0,0,.962-.962v-1.314a.962.962,0,0,0-1.924,0v1.314A.962.962,0,0,0,215.228,133.753Zm0,0" transform="translate(-186.348 -113.776)"/>
      <path id="Trazado_1026371" data-name="Trazado 1026371" d="M301.165,133.753a.962.962,0,0,0,.962-.962v-1.314a.962.962,0,1,0-1.924,0v1.314A.962.962,0,0,0,301.165,133.753Zm0,0" transform="translate(-261.262 -113.776)"/>
      <path id="Trazado_1026372" data-name="Trazado 1026372" d="M251.892,137.821h1.14a.962.962,0,1,0,0-1.924h-.82V133.58a.962.962,0,0,0-1.924,0v2.638A1.605,1.605,0,0,0,251.892,137.821Zm0,0" transform="translate(-217.75 -115.608)"/>
      <path id="Trazado_1026373" data-name="Trazado 1026373" d="M233.392,184.587A4.775,4.775,0,0,0,238,179.674a1.481,1.481,0,0,0-1.484-1.475h-6.256a1.481,1.481,0,0,0-1.484,1.475A4.775,4.775,0,0,0,233.392,184.587Zm2.657-4.464a2.66,2.66,0,0,1-5.314,0Zm0,0" transform="translate(-199.001 -155.343)"/>
      <path id="Trazado_1026374" data-name="Trazado 1026374" d="M166.079,299.986a.962.962,0,0,0,.962-.962v-.571a.962.962,0,0,0-1.924,0v.571A.962.962,0,0,0,166.079,299.986Zm0,0" transform="translate(-143.503 -259.335)"/>
      <path id="Trazado_1026375" data-name="Trazado 1026375" d="M234.095,299.986a.962.962,0,0,0,.962-.962v-.571a.962.962,0,0,0-1.924,0v.571A.962.962,0,0,0,234.095,299.986Zm0,0" transform="translate(-202.795 -259.335)"/>
      <path id="Trazado_1026376" data-name="Trazado 1026376" d="M196.774,304.841h.488a.962.962,0,0,0,0-1.924h-.014v-.384a.962.962,0,1,0-1.924,0v.7A1.534,1.534,0,0,0,196.774,304.841Zm0,0" transform="translate(-169.835 -262.891)"/>
      <path id="Trazado_1026377" data-name="Trazado 1026377" d="M11.825,150.288a.962.962,0,0,0-.962-.962H2.745a.325.325,0,0,1-.321-.321V138.745a.325.325,0,0,1,.321-.321H16.212a.325.325,0,0,1,.321.321v6.36a.962.962,0,0,0,.448.813l1.21.764-1.21.764a.961.961,0,0,0-.448.813v.747a.325.325,0,0,1-.321.321h-.86a.962.962,0,1,0,0,1.924h.86a2.247,2.247,0,0,0,2.245-2.245v-.216l1.508-.952a1.33,1.33,0,0,0,0-2.312l-1.508-.952v-5.829a2.247,2.247,0,0,0-2.245-2.245H2.745A2.247,2.247,0,0,0,.5,138.745v10.261a2.247,2.247,0,0,0,2.245,2.245h8.118A.962.962,0,0,0,11.825,150.288Zm0,0" transform="translate(0 -118.992)"/>
      <path id="Trazado_1026378" data-name="Trazado 1026378" d="M28.067,164.1H37.4a.962.962,0,1,0,0-1.924H28.067a.962.962,0,1,0,0,1.924Zm0,0" transform="translate(-23.193 -141.379)"/>
      <path id="Trazado_1026379" data-name="Trazado 1026379" d="M38.365,185.962A.962.962,0,0,0,37.4,185H28.068a.962.962,0,1,0,0,1.924H37.4A.962.962,0,0,0,38.365,185.962Zm0,0" transform="translate(-23.193 -161.272)"/>
      <path id="Trazado_1026380" data-name="Trazado 1026380" d="M28.067,207.82a.962.962,0,1,0,0,1.924h5.438a.962.962,0,1,0,0-1.924Zm0,0" transform="translate(-23.193 -181.165)"/>
    </g>
  </g>
</svg>
