<svg xmlns="http://www.w3.org/2000/svg" xmlns:xlink="http://www.w3.org/1999/xlink" width="113" height="113" viewBox="0 0 113 113">
  <defs>
    <filter id="Trazado_982547" x="0" y="0" width="113" height="113" filterUnits="userSpaceOnUse">
      <feOffset dy="3" input="SourceAlpha"/>
      <feGaussianBlur stdDeviation="3" result="blur"/>
      <feFlood flood-opacity="0.161"/>
      <feComposite operator="in" in2="blur"/>
      <feComposite in="SourceGraphic"/>
    </filter>
    <clipPath id="clip-path">
      <path id="path5130" d="M0-682.665H64.81v64.81H0Z" transform="translate(0 682.665)"/>
    </clipPath>
  </defs>
  <g id="Grupo_1176884" data-name="Grupo 1176884" transform="translate(9 6)">
    <g id="Grupo_1172010" data-name="Grupo 1172010">
      <g id="Grupo_1171046" data-name="Grupo 1171046">
        <g id="Grupo_1148525" data-name="Grupo 1148525">
          <g transform="matrix(1, 0, 0, 1, -9, -6)" filter="url(#Trazado_982547)">
            <g id="Trazado_982547-2" data-name="Trazado 982547" transform="translate(9 6)" fill="#edf3fc">
              <path d="M 47.5 93.5 C 41.28937149047852 93.5 35.26533508300781 92.28397369384766 29.59518623352051 89.88570404052734 C 24.11771965026855 87.56893157958984 19.19813346862793 84.25196075439453 14.97309303283691 80.02691650390625 C 10.74804019927979 75.80186462402344 7.431066513061523 70.88229370117188 5.114293098449707 65.40481567382812 C 2.716026782989502 59.73468017578125 1.5 53.71062850952148 1.5 47.5 C 1.5 41.28937149047852 2.716026782989502 35.26533508300781 5.114293098449707 29.59518623352051 C 7.431066513061523 24.11771965026855 10.74804019927979 19.19813346862793 14.97309303283691 14.97309303283691 C 19.19813346862793 10.74804019927979 24.11771965026855 7.431066513061523 29.59518623352051 5.114293098449707 C 35.26533508300781 2.716026782989502 41.28937149047852 1.5 47.5 1.5 C 53.71062850952148 1.5 59.73468017578125 2.716026782989502 65.40481567382812 5.114293098449707 C 70.88229370117188 7.431066513061523 75.80186462402344 10.74804019927979 80.02691650390625 14.97309303283691 C 84.25196075439453 19.19813346862793 87.56893157958984 24.11771965026855 89.88570404052734 29.59518623352051 C 92.28397369384766 35.26533508300781 93.5 41.28937149047852 93.5 47.5 C 93.5 53.71062850952148 92.28397369384766 59.73468017578125 89.88570404052734 65.40481567382812 C 87.56893157958984 70.88229370117188 84.25196075439453 75.80186462402344 80.02691650390625 80.02691650390625 C 75.80186462402344 84.25196075439453 70.88229370117188 87.56893157958984 65.40481567382812 89.88570404052734 C 59.73468017578125 92.28397369384766 53.71062850952148 93.5 47.5 93.5 Z" stroke="none"/>
              <path d="M 47.5 3 C 41.49121475219727 3 35.66376876831055 4.176155090332031 30.17950439453125 6.495796203613281 C 24.88084411621094 8.736953735351562 20.12152099609375 11.94598388671875 16.03375244140625 16.03375244140625 C 11.94598388671875 20.12152099609375 8.736953735351562 24.88084411621094 6.495796203613281 30.17950439453125 C 4.176155090332031 35.66376876831055 3 41.49121475219727 3 47.5 C 3 53.50878524780273 4.176155090332031 59.33623123168945 6.495796203613281 64.82049560546875 C 8.736953735351562 70.11915588378906 11.94598388671875 74.87847900390625 16.03375244140625 78.96624755859375 C 20.12152099609375 83.05401611328125 24.88084411621094 86.26304626464844 30.17950439453125 88.50419616699219 C 35.66376876831055 90.82384490966797 41.49121475219727 92 47.5 92 C 53.50878524780273 92 59.33623123168945 90.82384490966797 64.82049560546875 88.50419616699219 C 70.11915588378906 86.26304626464844 74.87847900390625 83.05401611328125 78.96624755859375 78.96624755859375 C 83.05401611328125 74.87847900390625 86.26304626464844 70.11915588378906 88.50419616699219 64.82049560546875 C 90.82384490966797 59.33623123168945 92 53.50878524780273 92 47.5 C 92 41.49121475219727 90.82384490966797 35.66376876831055 88.50419616699219 30.17950439453125 C 86.26304626464844 24.88084411621094 83.05401611328125 20.12152099609375 78.96624755859375 16.03375244140625 C 74.87847900390625 11.94598388671875 70.11915588378906 8.736953735351562 64.82049560546875 6.495796203613281 C 59.33623123168945 4.176155090332031 53.50878524780273 3 47.5 3 M 47.5 0 C 73.7335205078125 0 95 21.2664794921875 95 47.5 C 95 73.7335205078125 73.7335205078125 95 47.5 95 C 21.2664794921875 95 0 73.7335205078125 0 47.5 C 0 21.2664794921875 21.2664794921875 0 47.5 0 Z" stroke="none" fill="#5692e8"/>
            </g>
          </g>
        </g>
      </g>
    </g>
    <g id="g5124" transform="translate(15.095 696.093)">
      <g id="g5126" transform="translate(0 -682.665)">
        <g id="g5128" clip-path="url(#clip-path)">
          <g id="g5134" transform="translate(25.066 54.175)">
            <path id="path5136" d="M-88.528,0h-2.192l-7.094,4.407V8.5l1.427,1.179h15.722a9.917,9.917,0,0,0-2.159-6.17A9.809,9.809,0,0,0-88.528,0" transform="translate(97.814)" fill="#ff8e9e"/>
          </g>
          <g id="g5138" transform="translate(22.595 53.979)">
            <path id="path5140" d="M-93.518,0a9.683,9.683,0,0,0-4.794,1.266,9.907,9.907,0,0,0-2.856,2.443,9.918,9.918,0,0,0-2.159,6.17h3.9A9.88,9.88,0,0,1-91.571.2,9.732,9.732,0,0,0-93.518,0" transform="translate(103.328)" fill="#ea5b70"/>
          </g>
          <g id="g5142" transform="translate(27.611 52.477)">
            <path id="path5144" d="M-45.706,0-50.5,2.768a7.416,7.416,0,0,0,4.794,5.46,7.415,7.415,0,0,0,4.8-5.46Z" transform="translate(50.5)" fill="#ffbf9d"/>
          </g>
          <g id="g5146" transform="translate(9.467 32.94)">
            <path id="path5148" d="M-43.541,0a4.567,4.567,0,0,0-4.567,4.567,4.567,4.567,0,0,0,4.567,4.567,4.567,4.567,0,0,0,4.567-4.567A4.567,4.567,0,0,0-43.541,0" transform="translate(48.108)" fill="#ffbf9d"/>
          </g>
          <g id="g5150" transform="translate(46.208 32.94)">
            <path id="path5152" d="M-43.542,0a4.567,4.567,0,0,0-4.567,4.567,4.567,4.567,0,0,0,4.567,4.567,4.567,4.567,0,0,0,4.567-4.567A4.567,4.567,0,0,0-43.542,0" transform="translate(48.109)" fill="#ffbf9d"/>
          </g>
          <g id="g5154" transform="translate(14.034 26.115)">
            <path id="path5156" d="M0-108.607,15.738-90.489h5.677q.89-.149,1.751-.381a18.378,18.378,0,0,0,13.575-17.737L18.371-120Z" transform="translate(0 120)" fill="#ffd4bd"/>
          </g>
          <g id="g5158" transform="translate(14.034 34.463)">
            <path id="path5160" d="M-58.054-29.028-61.1-32.073l-3.045,3.045A18.377,18.377,0,0,0-50.568-11.291a18.385,18.385,0,0,0,4.794.633,18.47,18.47,0,0,0,3.045-.252A18.375,18.375,0,0,1-58.054-29.028" transform="translate(64.144 32.073)" fill="#ffbf9d"/>
          </g>
          <g id="g5162" transform="translate(52.62 48.86)">
            <path id="path5164" d="M-18.1,0-20,1.9V14.229h4.747A5.7,5.7,0,0,0-12.405,9.3V5.7A5.7,5.7,0,0,0-18.1,0" transform="translate(20)" fill="#8288cb"/>
          </g>
          <g id="g5166" transform="translate(48.824 48.86)">
            <path id="path5168" d="M-54.29,0a5.712,5.712,0,0,0-5.695,5.7l2.847,2.532L-54.29,5.7Z" transform="translate(59.985)" fill="#676fb2"/>
          </g>
          <g id="g5170" transform="translate(48.822 54.557)">
            <path id="path5172" d="M-54.3-34.373v-3.606H-60c0,.018,0,.036,0,.054v3.55a5.7,5.7,0,0,0,5.7,5.7,5.659,5.659,0,0,0,2.848-.766A5.7,5.7,0,0,1-54.3-34.373" transform="translate(60 37.979)" fill="#4c5699"/>
          </g>
          <g id="g5174" transform="translate(52.62 52.658)">
            <path id="path5176" d="M-17.225-.021a1.934,1.934,0,0,0-1.807,1.95V3.2a1.9,1.9,0,0,0,1.9,1.9,1.9,1.9,0,0,0,1.9-1.9V1.876a1.9,1.9,0,0,0-1.991-1.9" transform="translate(19.032 0.023)" fill="#9ea2e3"/>
          </g>
          <g id="g5178" transform="translate(21.266 19.137)">
            <path id="path5180" d="M-212.387-35.865a18.286,18.286,0,0,0-11.139-3.762,18.288,18.288,0,0,0-11.139,3.763v6.928h16.042l6.236-5.894Z" transform="translate(234.665 39.627)" fill="#ce857a"/>
          </g>
          <g id="g5182" transform="translate(37.308 23.934)">
            <path id="path5184" d="M-71.256,0h-1.238L-78.73,5.894-75.249,9.3a14.409,14.409,0,0,0,9.985,4.269A18.322,18.322,0,0,0-71.256,0" transform="translate(78.73)" fill="#ce857a"/>
          </g>
          <g id="g5186" transform="translate(20.115 20.618)">
            <path id="path5188" d="M-259.079-2.621a24.223,24.223,0,0,1-12.826,3.952h-4.12A24.337,24.337,0,0,1-280.658.8l-5.6,1.266V13.992l10.59,0A20.3,20.3,0,0,0-256.6-.785a1.646,1.646,0,0,0-2.481-1.835" transform="translate(286.255 2.896)" fill="#d6948c"/>
          </g>
          <g id="g5190" transform="translate(14.034 22.9)">
            <path id="path5192" d="M-111.336-13.458a24.119,24.119,0,0,1-4.447-1.412A18.332,18.332,0,0,0-123.014-.262h6.081a18.3,18.3,0,0,1,5.6-13.194" transform="translate(123.014 14.869)" fill="#ce857a"/>
          </g>
          <g id="g5194" transform="translate(18.065 39.08)">
            <path id="path5196" d="M-37.333,0c-2.163,0-3.916,1.4-3.916,3.119s1.753,3.119,3.916,3.119,3.916-1.4,3.916-3.119S-35.17,0-37.333,0" transform="translate(41.249)" fill="#ff8e9e"/>
          </g>
          <g id="g5198" transform="translate(38.912 39.08)">
            <path id="path5200" d="M-37.334,0c-2.163,0-3.916,1.4-3.916,3.119s1.753,3.119,3.916,3.119,3.916-1.4,3.916-3.119S-35.172,0-37.334,0" transform="translate(41.251)" fill="#ff8e9e"/>
          </g>
          <g id="g5202" transform="translate(30.389 40.261)">
            <path id="path5204" d="M-19.817,0A2.213,2.213,0,0,0-21.9,2.326a2.213,2.213,0,0,0,2.079,2.326,2.213,2.213,0,0,0,2.079-2.326A2.213,2.213,0,0,0-19.817,0" transform="translate(21.896 0)" fill="#4c5699"/>
          </g>
          <g id="g5206" transform="translate(16.024 6.886)">
            <path id="path5208" d="M-51.409,0a1.89,1.89,0,0,0-1.3.521H-56.8V5.544A1.749,1.749,0,0,1-55.054,3.8a1.749,1.749,0,0,1,1.747,1.747,1.749,1.749,0,0,1-1.747,1.747A1.749,1.749,0,0,1-56.8,5.544v5.024h4.089a1.891,1.891,0,0,0,1.3.521,1.9,1.9,0,0,0,1.9-1.9V1.9a1.9,1.9,0,0,0-1.9-1.9" transform="translate(56.801)" fill="#ffce71"/>
          </g>
          <g id="g5210" transform="translate(12.227 6.886)">
            <path id="path5212" d="M-36.2-52.857a5.131,5.131,0,0,1,4.089-5.024,5.512,5.512,0,0,0-2.342-.521A5.551,5.551,0,0,0-40-52.857a5.551,5.551,0,0,0,5.544,5.544,5.512,5.512,0,0,0,2.342-.521A5.131,5.131,0,0,1-36.2-52.857" transform="translate(40 58.401)" fill="#ffb357"/>
          </g>
          <g id="g5214" transform="translate(28.389 4.139)">
            <path id="path5216" d="M-44.4,0h-3.391V3.8H-44.4a1.725,1.725,0,0,1,1.7,1.747,1.725,1.725,0,0,1-1.7,1.747h-4.657l2.565,2.952a2.455,2.455,0,0,0,1.853.845h.239a5.526,5.526,0,0,0,5.5-5.544A5.526,5.526,0,0,0-44.4,0" transform="translate(49.053)" fill="#7ce3ff"/>
          </g>
          <g id="g5218" transform="translate(27.123 0.949)">
            <path id="path5220" d="M-36.2-18.1A1.9,1.9,0,0,0-38.1-20,1.9,1.9,0,0,0-40-18.1V-7.62c0,.006,0,.012,0,.018a1.9,1.9,0,0,0,1.9,1.88h3.785A1.907,1.907,0,0,1-36.2-7.611V-9.52h0Z" transform="translate(40 20)" fill="#55dafe"/>
          </g>
          <g id="g5222" transform="translate(46.147 11.262)">
            <path id="path5224" d="M-39.612-19.114a1.97,1.97,0,0,0-1.864-.341,1.751,1.751,0,0,1-2.291-1.664v5.229h3.605a1.889,1.889,0,0,0,.55-3.224" transform="translate(43.767 21.119)" fill="#ff8e9e"/>
          </g>
          <g id="g5226" transform="translate(46.147 6.033)">
            <path id="path5228" d="M0-49.853v-5.229H3.605a1.889,1.889,0,0,1,.55,3.224,1.969,1.969,0,0,1-1.864.341A1.751,1.751,0,0,0,0-49.853" transform="translate(0 55.083)" fill="#ff8e9e"/>
          </g>
          <g id="g5230" transform="translate(42.348 5.712)">
            <path id="path5232" d="M-36.217-52.916a5.6,5.6,0,0,1,3.605-5.229,5.552,5.552,0,0,0-7.4,5.229,5.552,5.552,0,0,0,7.4,5.229,5.6,5.6,0,0,1-3.605-5.229" transform="translate(40.016 58.467)" fill="#ea5b70"/>
          </g>
          <g id="g5234" transform="translate(7.042 44.026)">
            <path id="path5236" d="M-48.674-55.339l-3.881-5.8H-53.78v9.071h2.366l1.266-1.11.792-.242a1.266,1.266,0,0,0,.682-1.914" transform="translate(53.78 61.144)" fill="#efedff"/>
          </g>
          <g id="g5238" transform="translate(4.595 41.636)">
            <path id="path5240" d="M-62.891-114.862l-.519-1.7a1.863,1.863,0,0,1-2.407-1.781v-6.18l-1.191-1.781a1.352,1.352,0,0,0-2.48.764v9.126a1.281,1.281,0,0,0,1.654,1.205l.792-.242.5,1.646a1.965,1.965,0,0,0,1.835,1.394,1.875,1.875,0,0,0,.463-.057,1.9,1.9,0,0,0,1.349-2.4" transform="translate(69.488 126.91)" fill="#d4d4ff"/>
          </g>
          <g id="g5242" transform="translate(21.925 38.504)">
            <path id="path5244" d="M-25.662,0a2.7,2.7,0,0,0-2.692,2.692.949.949,0,0,0,.949.949.949.949,0,0,0,.949-.949.794.794,0,0,1,.793-.793.794.794,0,0,1,.793.793.949.949,0,0,0,.949.949.949.949,0,0,0,.949-.949A2.7,2.7,0,0,0-25.662,0" transform="translate(28.353)"/>
          </g>
          <g id="g5246" transform="translate(37.501 38.504)">
            <path id="path5248" d="M-9.051-34.713a.949.949,0,0,0,.949-.949.794.794,0,0,1,.793-.793.794.794,0,0,1,.793.793.949.949,0,0,0,.949.949.949.949,0,0,0,.949-.949,2.7,2.7,0,0,0-2.692-2.692A2.7,2.7,0,0,0-10-35.663a.949.949,0,0,0,.949.949" transform="translate(10 38.355)"/>
          </g>
          <g id="g5250" transform="translate(29.44 39.312)">
            <path id="path5252" d="M-18.1-31.227A1.273,1.273,0,0,1-16.972-32.6a1.273,1.273,0,0,1,1.129,1.377,1.273,1.273,0,0,1-1.129,1.377A1.273,1.273,0,0,1-18.1-31.227m4.158,0A3.163,3.163,0,0,0-16.972-34.5,3.163,3.163,0,0,0-20-31.227a3.163,3.163,0,0,0,3.028,3.276,3.163,3.163,0,0,0,3.028-3.276" transform="translate(20 34.503)"/>
          </g>
          <g id="g5254" transform="translate(11.277 5.934)">
            <path id="path5256" d="M-61.907-18.123a4.543,4.543,0,0,1,1.939.431.949.949,0,0,0,1.055-.17.949.949,0,0,1,1.6.688v7.291a.949.949,0,0,1-1.6.688.95.95,0,0,0-1.055-.17,4.542,4.542,0,0,1-1.939.431,4.6,4.6,0,0,1-4.6-4.6,4.6,4.6,0,0,1,4.6-4.595m0,11.089A6.424,6.424,0,0,0-59.7-7.423a2.851,2.851,0,0,0,4.282-2.46v-7.291a2.851,2.851,0,0,0-4.282-2.46,6.422,6.422,0,0,0-2.211-.388A6.5,6.5,0,0,0-68.4-13.528a6.5,6.5,0,0,0,6.494,6.494" transform="translate(68.401 20.024)"/>
          </g>
          <g id="g5258" transform="translate(15.075 9.734)">
            <path id="path5260" d="M-25.7-18.1a.8.8,0,0,1,.8.8.8.8,0,0,1-.8.8.8.8,0,0,1-.8-.8.8.8,0,0,1,.8-.8m0,3.494a2.7,2.7,0,0,0,2.7-2.7A2.7,2.7,0,0,0-25.7-20a2.7,2.7,0,0,0-2.7,2.7,2.7,2.7,0,0,0,2.7,2.7" transform="translate(28.401 20)"/>
          </g>
          <g id="g5262" transform="translate(41.397 4.765)">
            <path id="path5264" d="M-19.62-50.588a4.6,4.6,0,0,1,5.98-3.143.889.889,0,0,1,.583.7.963.963,0,0,1-1.288,1.072A2.7,2.7,0,0,0-17.786-50.1a2.7,2.7,0,0,0,3.536,3.235.949.949,0,0,1,1.222.565.951.951,0,0,1-.566,1.217A4.594,4.594,0,0,1-19.158-47.1a4.562,4.562,0,0,1-.462-3.49m6.677,7.292a2.851,2.851,0,0,0,1.7-3.651,2.846,2.846,0,0,0-3.666-1.694.8.8,0,0,1-1.042-.963.8.8,0,0,1,1.023-.553,2.863,2.863,0,0,0,3.741-3.215,2.772,2.772,0,0,0-1.817-2.148,6.5,6.5,0,0,0-8.448,4.442,6.448,6.448,0,0,0,.652,4.932A6.49,6.49,0,0,0-12.943-43.3" transform="translate(21.678 55.894)"/>
          </g>
          <g id="g5266" transform="translate(26.174 0)">
            <path id="path5268" d="M-18.1-27.152a.95.95,0,0,1,.949-.949.95.95,0,0,1,.949.949v1.29a.949.949,0,0,0,.949.949h2.125a4.576,4.576,0,0,1,4.546,4.6,4.576,4.576,0,0,1-4.546,4.595h-4.04a.954.954,0,0,1-.933-.949Zm.949,13.329h4.024a6.476,6.476,0,0,0,6.444-6.494,6.477,6.477,0,0,0-6.444-6.494H-14.3v-.341A2.851,2.851,0,0,0-17.152-30,2.851,2.851,0,0,0-20-27.152v10.509a2.857,2.857,0,0,0,2.848,2.821" transform="translate(20 30)"/>
          </g>
          <g id="g5270" transform="translate(29.971 6.987)">
            <path id="path5272" d="M-18.1-18.1h1.176a.775.775,0,0,1,.748.8.775.775,0,0,1-.748.8H-18.1Zm-.949,3.494h2.125a2.675,2.675,0,0,0,2.647-2.7A2.675,2.675,0,0,0-16.925-20h-2.125a.949.949,0,0,0-.949.949v3.494a.949.949,0,0,0,.949.949" transform="translate(20 20)"/>
          </g>
          <g id="g5274" transform="translate(8.519 18.187)">
            <path id="path5276" d="M-61.892-193.232l15.7,0h.018A20.821,20.821,0,0,0-35.32-196.5a15.251,15.251,0,0,0,8.22,3.236A17.444,17.444,0,0,1-44.5-176.76a17.443,17.443,0,0,1-17.395-16.472m28.31-4.5a21.475,21.475,0,0,0,4.414-4.721,17.324,17.324,0,0,1,2.061,7.282,13.273,13.273,0,0,1-6.581-2.479l.106-.082M-44.493-172a6.453,6.453,0,0,1-3.36-3.156,19.355,19.355,0,0,0,3.357.293,19.358,19.358,0,0,0,3.358-.293A6.461,6.461,0,0,1-44.493-172m-18.992-18.617a3.622,3.622,0,0,1-3-3.566,3.622,3.622,0,0,1,3-3.566,19.3,19.3,0,0,0-.334,3.566h0a19.351,19.351,0,0,0,.331,3.566m37.978-7.132a3.622,3.622,0,0,1,3,3.566,3.622,3.622,0,0,1-3,3.566,19.349,19.349,0,0,0,.331-3.566h0a19.407,19.407,0,0,0-.33-3.564m-24.326,22.8c1.244,3.206,4.246,4.849,5.336,4.849,1.071,0,4.5-1.761,5.585-5.586a19.4,19.4,0,0,0,12.933-12.984,5.513,5.513,0,0,0,5.37-5.512,5.514,5.514,0,0,0-5.366-5.512,19.207,19.207,0,0,0-2.059-4.6,21.331,21.331,0,0,0,1.819-4.406,2.594,2.594,0,0,0-3.914-2.891,23.453,23.453,0,0,1-3.106,1.709A19.135,19.135,0,0,0-44.5-213.5a19.129,19.129,0,0,0-11.774,4,.973.973,0,0,0-.269,1.257.95.95,0,0,0,1.4.269A17.248,17.248,0,0,1-44.5-211.6a17.25,17.25,0,0,1,9.118,2.573,23.206,23.206,0,0,1-7.048,1.236.971.971,0,0,0-.958.935.947.947,0,0,0,.967.964A25.179,25.179,0,0,0-29.091-210a.7.7,0,0,1,1.049.78,19.238,19.238,0,0,1-18.164,14.087l-15.687,0a17.426,17.426,0,0,1,4.125-10.336.974.974,0,0,0-.058-1.343.949.949,0,0,0-1.363.083,19.31,19.31,0,0,0-3.825,7.034,5.514,5.514,0,0,0-5.371,5.512,5.513,5.513,0,0,0,5.37,5.512,19.409,19.409,0,0,0,11.626,12.536,10.911,10.911,0,0,0-3.867,8.29.974.974,0,0,0,1.012.962l19.5,0a.959.959,0,0,0,1-.99,10.957,10.957,0,0,0-2.018-6.257.949.949,0,0,0-1.393-.177.942.942,0,0,0-.159,1.261,8.87,8.87,0,0,1,1.62,4.261h-2v-.875a.976.976,0,0,0-.92-.989.949.949,0,0,0-.979.949v.915h-9.873v-.875a.976.976,0,0,0-.92-.989.949.949,0,0,0-.979.949v.915H-53.3a9.006,9.006,0,0,1,3.471-6.169" transform="translate(68.384 213.501)"/>
          </g>
          <g id="g5278" transform="translate(47.873 47.911)">
            <path id="path5280" d="M-108.607-97.706a4.752,4.752,0,0,1-4.747,4.747,4.752,4.752,0,0,1-4.747-4.747v-2.6h1.9v.322a2.851,2.851,0,0,0,2.848,2.848,2.851,2.851,0,0,0,2.848-2.848v-.375h1.9Zm-5.7-8.253v1.966a2.87,2.87,0,0,0-1.74,1.789h-1.964a4.788,4.788,0,0,1,3.7-3.754m.949,3.7a.949.949,0,0,1,.95.949v1.325a.95.95,0,0,1-.949.949.95.95,0,0,1-.949-.949v-1.271a.984.984,0,0,1,.949-1m.95-3.7a4.761,4.761,0,0,1,3.7,3.7h-1.968A2.845,2.845,0,0,0-112.4-104Zm-.949-1.994a6.68,6.68,0,0,0-6.646,6.7v3.55a6.653,6.653,0,0,0,6.646,6.646,6.653,6.653,0,0,0,6.646-6.646v-3.6a6.653,6.653,0,0,0-6.646-6.646" transform="translate(120 107.954)"/>
          </g>
          <g id="g5282" transform="translate(3.646 40.684)">
            <path id="path5284" d="M-71.9-96.788l-.792.242a.949.949,0,0,0-.63,1.185l.519,1.7a.949.949,0,0,1-.675,1.2.993.993,0,0,1-1.156-.694l-.5-1.646a.95.95,0,0,0-1.185-.63l-.792.242a.332.332,0,0,1-.427-.3v-9.13a.4.4,0,0,1,.741-.232l5.072,7.586h0a.316.316,0,0,1-.171.478m-3.323-9.12a2.3,2.3,0,0,0-4.218,1.292v9.129a2.23,2.23,0,0,0,2.765,2.142l.227.742a2.883,2.883,0,0,0,3.441,1.979,2.848,2.848,0,0,0,2.022-3.593l-.242-.793a2.214,2.214,0,0,0,1.079-3.311Z" transform="translate(79.441 106.94)"/>
          </g>
        </g>
      </g>
    </g>
  </g>
</svg>
