<svg xmlns="http://www.w3.org/2000/svg" xmlns:xlink="http://www.w3.org/1999/xlink" width="113" height="113" viewBox="0 0 113 113">
  <defs>
    <filter id="Trazado_982547" x="0" y="0" width="113" height="113" filterUnits="userSpaceOnUse">
      <feOffset dy="3" input="SourceAlpha"/>
      <feGaussianBlur stdDeviation="3" result="blur"/>
      <feFlood flood-opacity="0.161"/>
      <feComposite operator="in" in2="blur"/>
      <feComposite in="SourceGraphic"/>
    </filter>
  </defs>
  <g id="Grupo_1176739" data-name="Grupo 1176739" transform="translate(-587.5 -2607.015)">
    <g id="Grupo_1173989" data-name="Grupo 1173989" transform="translate(595.5 2613.015)">
      <g id="Grupo_1172010" data-name="Grupo 1172010">
        <g id="Grupo_1171046" data-name="Grupo 1171046" transform="translate(1)">
          <g id="Grupo_1148525" data-name="Grupo 1148525">
            <g transform="matrix(1, 0, 0, 1, -9, -6)" filter="url(#Trazado_982547)">
              <g id="Trazado_982547-2" data-name="Trazado 982547" transform="translate(9 6)" fill="#edf3fc">
                <path d="M 47.5 93.5 C 41.28937149047852 93.5 35.26533508300781 92.28397369384766 29.59518623352051 89.88570404052734 C 24.11771965026855 87.56893157958984 19.19813346862793 84.25196075439453 14.97309303283691 80.02691650390625 C 10.74804019927979 75.80186462402344 7.431066513061523 70.88229370117188 5.114293098449707 65.40481567382812 C 2.716026782989502 59.73468017578125 1.5 53.71062850952148 1.5 47.5 C 1.5 41.28937149047852 2.716026782989502 35.26533508300781 5.114293098449707 29.59518623352051 C 7.431066513061523 24.11771965026855 10.74804019927979 19.19813346862793 14.97309303283691 14.97309303283691 C 19.19813346862793 10.74804019927979 24.11771965026855 7.431066513061523 29.59518623352051 5.114293098449707 C 35.26533508300781 2.716026782989502 41.28937149047852 1.5 47.5 1.5 C 53.71062850952148 1.5 59.73468017578125 2.716026782989502 65.40481567382812 5.114293098449707 C 70.88229370117188 7.431066513061523 75.80186462402344 10.74804019927979 80.02691650390625 14.97309303283691 C 84.25196075439453 19.19813346862793 87.56893157958984 24.11771965026855 89.88570404052734 29.59518623352051 C 92.28397369384766 35.26533508300781 93.5 41.28937149047852 93.5 47.5 C 93.5 53.71062850952148 92.28397369384766 59.73468017578125 89.88570404052734 65.40481567382812 C 87.56893157958984 70.88229370117188 84.25196075439453 75.80186462402344 80.02691650390625 80.02691650390625 C 75.80186462402344 84.25196075439453 70.88229370117188 87.56893157958984 65.40481567382812 89.88570404052734 C 59.73468017578125 92.28397369384766 53.71062850952148 93.5 47.5 93.5 Z" stroke="none"/>
                <path d="M 47.5 3 C 41.49121475219727 3 35.66376876831055 4.176155090332031 30.17950439453125 6.495796203613281 C 24.88084411621094 8.736953735351562 20.12152099609375 11.94598388671875 16.03375244140625 16.03375244140625 C 11.94598388671875 20.12152099609375 8.736953735351562 24.88084411621094 6.495796203613281 30.17950439453125 C 4.176155090332031 35.66376876831055 3 41.49121475219727 3 47.5 C 3 53.50878524780273 4.176155090332031 59.33623123168945 6.495796203613281 64.82049560546875 C 8.736953735351562 70.11915588378906 11.94598388671875 74.87847900390625 16.03375244140625 78.96624755859375 C 20.12152099609375 83.05401611328125 24.88084411621094 86.26304626464844 30.17950439453125 88.50419616699219 C 35.66376876831055 90.82384490966797 41.49121475219727 92 47.5 92 C 53.50878524780273 92 59.33623123168945 90.82384490966797 64.82049560546875 88.50419616699219 C 70.11915588378906 86.26304626464844 74.87847900390625 83.05401611328125 78.96624755859375 78.96624755859375 C 83.05401611328125 74.87847900390625 86.26304626464844 70.11915588378906 88.50419616699219 64.82049560546875 C 90.82384490966797 59.33623123168945 92 53.50878524780273 92 47.5 C 92 41.49121475219727 90.82384490966797 35.66376876831055 88.50419616699219 30.17950439453125 C 86.26304626464844 24.88084411621094 83.05401611328125 20.12152099609375 78.96624755859375 16.03375244140625 C 74.87847900390625 11.94598388671875 70.11915588378906 8.736953735351562 64.82049560546875 6.495796203613281 C 59.33623123168945 4.176155090332031 53.50878524780273 3 47.5 3 M 47.5 0 C 73.7335205078125 0 95 21.2664794921875 95 47.5 C 95 73.7335205078125 73.7335205078125 95 47.5 95 C 21.2664794921875 95 0 73.7335205078125 0 47.5 C 0 21.2664794921875 21.2664794921875 0 47.5 0 Z" stroke="none" fill="#5692e8"/>
              </g>
            </g>
          </g>
        </g>
      </g>
    </g>
    <g id="storytelling_1702323" transform="translate(612.847 2627.68)">
      <path id="Trazado_1026345" data-name="Trazado 1026345" d="M281.067,250.38l-4.82-16.029a2.651,2.651,0,0,0-2.649-1.882h-6.649a10.788,10.788,0,0,1-1.519.679v1.546a3.6,3.6,0,0,1-2.512,3.426c0-.011,0-.021-.005-.031a8.2,8.2,0,0,1,.114,1.334h.64a1.855,1.855,0,0,1,1.859,1.84V242.8a1.855,1.855,0,0,1-1.859,1.84h-.9a7.788,7.788,0,0,1-1.408,2.81l12.048-6.939c.676-.389,1.23-.071,1.23.709v6.038h1.557a1.135,1.135,0,0,1,1.135,1.133v5.525a1.134,1.134,0,0,1-1.135,1.133h-1.557v2.532h1.261a5.409,5.409,0,0,0,4.408-2.112,5.681,5.681,0,0,0,.764-5.089Zm0,0" transform="translate(-225.439 -200.904)" fill="#ef5050"/>
      <path id="Trazado_1026346" data-name="Trazado 1026346" d="M181.453,96.931h-1.787V93.964a1.088,1.088,0,0,0-1.091-1.085H158.867a1.088,1.088,0,0,0-1.09,1.085v2.967H155.99a2.334,2.334,0,0,0-2.353,2.315V101.7a2.334,2.334,0,0,0,2.353,2.315h1.964a11.142,11.142,0,0,0,3.754,6.536,8.369,8.369,0,0,1,8.117,6.936,3.6,3.6,0,0,0,2.512-3.426v-1.546a11.1,11.1,0,0,0,7.151-8.5h1.964a2.333,2.333,0,0,0,2.352-2.315V99.246a2.334,2.334,0,0,0-2.352-2.315Zm0,0" transform="translate(-132.345 -80.269)" fill="#ffd5b3"/>
      <path id="Trazado_1026347" data-name="Trazado 1026347" d="M167.218,23.144H169V20.178a1.088,1.088,0,0,1,1.09-1.085H189.8a1.088,1.088,0,0,1,1.091,1.085v2.967h1.787a2.374,2.374,0,0,1,.589.076V15.549a5.787,5.787,0,0,0-9.084-4.721c-1.7-2.19-4.654-3.327-8.024-3.327a9.508,9.508,0,0,0-9.533,9.483v6.237a2.365,2.365,0,0,1,.589-.076Zm0,0" transform="translate(-143.573 -6.482)" fill="#f7931e"/>
      <path id="Trazado_1026348" data-name="Trazado 1026348" d="M167.218,23.144H169V20.177a1.088,1.088,0,0,1,1.09-1.085h.7V16.984a9.5,9.5,0,0,1,7.65-9.3,13.744,13.744,0,0,0-2.281-.186,9.508,9.508,0,0,0-9.533,9.483v6.237a2.366,2.366,0,0,1,.589-.076Zm0,0" transform="translate(-143.574 -6.482)" fill="#de841b"/>
      <path id="Trazado_1026349" data-name="Trazado 1026349" d="M240.144,190.424a4.037,4.037,0,0,1-3.863-4.182.547.547,0,0,1,.552-.543h6.623a.548.548,0,0,1,.552.543A4.037,4.037,0,0,1,240.144,190.424Zm0,0" transform="translate(-203.769 -160.487)" fill="#fb8276"/>
      <path id="Trazado_1026350" data-name="Trazado 1026350" d="M239.134,186.242a.547.547,0,0,1,.552-.543h-2.853a.548.548,0,0,0-.552.543,4.037,4.037,0,0,0,3.863,4.182,3.583,3.583,0,0,0,1.427-.3A4.2,4.2,0,0,1,239.134,186.242Zm0,0" transform="translate(-203.769 -160.487)" fill="#e1756a"/>
      <path id="Trazado_1026351" data-name="Trazado 1026351" d="M133.814,241.52a2.737,2.737,0,0,0,2.46,0l3.941-2.27a7.788,7.788,0,0,0,1.408-2.81h.9a1.855,1.855,0,0,0,1.859-1.84v-1.539a1.855,1.855,0,0,0-1.859-1.84h-.64a8.343,8.343,0,0,0-8.423-8.244H132.1a8.343,8.343,0,0,0-8.422,8.244h-.64a1.855,1.855,0,0,0-1.859,1.84v1.184Zm0,0" transform="translate(-104.298 -192.703)" fill="#ffd5b3"/>
      <path id="Trazado_1026352" data-name="Trazado 1026352" d="M156.67,224.71a8.493,8.493,0,0,0-5.16-1.733h-1.358a8.4,8.4,0,0,0-8.086,5.949,1.811,1.811,0,0,0,2.366-.165l1-1a1.808,1.808,0,0,0,3.069,1.017l1-1a1.79,1.79,0,0,0,.51,1.017,1.812,1.812,0,0,0,2.559,0Zm0,0" transform="translate(-122.346 -192.703)" fill="#f7931e"/>
      <path id="Trazado_1026353" data-name="Trazado 1026353" d="M142.887,261.687a8.1,8.1,0,0,1,.56-2.964,1.835,1.835,0,0,1-.155-.512l-1,1a1.812,1.812,0,0,1-2.366.164,8.1,8.1,0,0,0-.337,2.311v3.195a7.814,7.814,0,0,0,.113,1.317l3.227,1.859c-.025-1.358-.039-2.917-.039-3.176Zm0,0" transform="translate(-120.202 -223.153)" fill="#e5bfa1"/>
      <path id="Trazado_1026354" data-name="Trazado 1026354" d="M152.479,223.034a8.571,8.571,0,0,0-.968-.057h-1.358a8.4,8.4,0,0,0-8.086,5.949,1.811,1.811,0,0,0,2.366-.165l1-1a1.821,1.821,0,0,0,.155.512A8.4,8.4,0,0,1,152.479,223.034Zm0,0" transform="translate(-122.346 -192.703)" fill="#de841b"/>
      <path id="Trazado_1026355" data-name="Trazado 1026355" d="M123,297.408h1.283V291.37c0-.779-.554-1.1-1.23-.708l-15.989,9.209a2.733,2.733,0,0,1-2.46,0l-15.989-9.209c-.676-.389-1.23-.071-1.23.708v6.038h1.535a1.135,1.135,0,0,1,1.135,1.133v5.525a1.134,1.134,0,0,1-1.135,1.133H87.386v2.726a2.722,2.722,0,0,0,1.23,2.125l15.989,9.209a2.733,2.733,0,0,0,2.46,0l15.989-9.209a2.722,2.722,0,0,0,1.23-2.125V305.2H123a1.134,1.134,0,0,1-1.136-1.133v-5.525A1.135,1.135,0,0,1,123,297.408Zm0,0" transform="translate(-75.089 -251.055)" fill="#d5e962"/>
      <path id="Trazado_1026356" data-name="Trazado 1026356" d="M104.606,299.872l-15.989-9.21c-.676-.389-1.23-.071-1.23.709v6.038h1.535a1.135,1.135,0,0,1,1.135,1.133v5.525a1.134,1.134,0,0,1-1.135,1.133H87.386v2.725a2.722,2.722,0,0,0,1.23,2.125l15.989,9.209a2.52,2.52,0,0,0,1.23.292V300.163a2.524,2.524,0,0,1-1.23-.292Zm0,0" transform="translate(-75.09 -251.055)" fill="#89c947"/>
      <path id="Trazado_1026357" data-name="Trazado 1026357" d="M88.922,297.408a1.135,1.135,0,0,1,1.117.936v-5.458c0-.72.473-1.046,1.079-.783l-2.5-1.442c-.676-.389-1.23-.07-1.23.709v6.038Zm0,0" transform="translate(-75.09 -251.055)" fill="#7bb540"/>
      <path id="Trazado_1026358" data-name="Trazado 1026358" d="M90.483,376.023q-.209-.208-.425-.405v2.014a1.134,1.134,0,0,1-1.136,1.133H87.386v2.725a2.722,2.722,0,0,0,1.23,2.125l5.939,3.421a13.689,13.689,0,0,0-4.073-11.013Zm0,0" transform="translate(-75.09 -324.62)" fill="#ffc502"/>
      <path id="Trazado_1026359" data-name="Trazado 1026359" d="M91.981,399.611l-.712-.41a2.72,2.72,0,0,1-1.229-2.125V391.9a1.135,1.135,0,0,1-1.117.936H87.387v2.725a2.722,2.722,0,0,0,1.23,2.125l3.374,1.944Zm0,0" transform="translate(-75.09 -338.69)" fill="#e5b102"/>
      <path id="Trazado_1026360" data-name="Trazado 1026360" d="M253.9,371.8a1.421,1.421,0,0,0,.389-.278l2.3-2.283,2.3.137a.824.824,0,0,0,.39-.085,1.456,1.456,0,0,0,.492-.39,1.261,1.261,0,0,0,.334-.975l-.44-2.357,1.862-2.683a1.1,1.1,0,0,0,.212-.958.5.5,0,0,0-.676-.255l-2.573.826-1.151-1.795a.556.556,0,0,0-.751-.117,1.571,1.571,0,0,0-.751.817l-1.151,2.868-2.573,1.574a1.589,1.589,0,0,0-.676.885c-.1.352-.018.643.212.761l1.862.947-.439,2.767c-.054.342.073.6.333.664A.737.737,0,0,0,253.9,371.8Zm0,0" transform="translate(-216.83 -311.55)" fill="#ffc502"/>
      <path id="Trazado_1026361" data-name="Trazado 1026361" d="M255.637,395.56l.44-2.767-1.862-.946c-.23-.118-.311-.409-.212-.761a1.436,1.436,0,0,1,.129-.3l-2.019,1.235a1.589,1.589,0,0,0-.676.885c-.1.352-.018.643.212.76l1.862.947-.44,2.767c-.054.342.074.6.334.664a.739.739,0,0,0,.493-.07,1.435,1.435,0,0,0,.389-.278l1.545-1.532a.579.579,0,0,1-.195-.6Zm0,0" transform="translate(-216.831 -337.724)" fill="#e5b102"/>
      <path id="Trazado_1026362" data-name="Trazado 1026362" d="M74.522,348.067a1.135,1.135,0,0,1-1.135,1.133h-2.84a1.134,1.134,0,0,1-1.136-1.133v-5.524a1.135,1.135,0,0,1,1.136-1.133h2.84a1.134,1.134,0,0,1,1.135,1.133Zm0,0" transform="translate(-59.554 -295.056)" fill="#ffd5b3"/>
      <path id="Trazado_1026363" data-name="Trazado 1026363" d="M71.479,348.067v-5.524a1.135,1.135,0,0,1,1.136-1.133H70.546a1.134,1.134,0,0,0-1.136,1.133v5.524a1.135,1.135,0,0,0,1.136,1.133h2.068A1.134,1.134,0,0,1,71.479,348.067Zm0,0" transform="translate(-59.554 -295.056)" fill="#e5bfa1"/>
      <path id="Trazado_1026364" data-name="Trazado 1026364" d="M346.447,348.067a1.135,1.135,0,0,1-1.136,1.133h-2.84a1.134,1.134,0,0,1-1.136-1.133v-5.524a1.135,1.135,0,0,1,1.136-1.133h2.84a1.134,1.134,0,0,1,1.136,1.133Zm0,0" transform="translate(-294.56 -295.056)" fill="#ffd5b3"/>
      <path id="Trazado_1026365" data-name="Trazado 1026365" d="M343.414,348.067v-5.524a1.135,1.135,0,0,1,1.136-1.133h-2.078a1.134,1.134,0,0,0-1.136,1.133v5.524a1.135,1.135,0,0,0,1.136,1.133h2.078A1.134,1.134,0,0,1,343.414,348.067Zm0,0" transform="translate(-294.56 -295.056)" fill="#e5bfa1"/>
      <path id="Trazado_1026366" data-name="Trazado 1026366" d="M27.043,153.4l-2.071-1.307v-6.732A1.362,1.362,0,0,0,23.614,144H9.358A1.362,1.362,0,0,0,8,145.358V156.22a1.362,1.362,0,0,0,1.358,1.358H23.614a1.362,1.362,0,0,0,1.358-1.358v-.79l2.071-1.307A.4.4,0,0,0,27.043,153.4Zm0,0" transform="translate(-6.482 -124.449)" fill="#fcdb67"/>
      <path id="Trazado_1026367" data-name="Trazado 1026367" d="M12.113,156.219V145.358A1.362,1.362,0,0,1,13.471,144H9.358A1.362,1.362,0,0,0,8,145.358v10.862a1.362,1.362,0,0,0,1.358,1.358h4.113A1.362,1.362,0,0,1,12.113,156.219Zm0,0" transform="translate(-6.482 -124.449)" fill="#e2c55c"/>
      <path id="Trazado_1026368" data-name="Trazado 1026368" d="M193.88,100.379H191.7a.069.069,0,0,0-.072.067v8.069a10.133,10.133,0,0,0,3.31,7.511,9.534,9.534,0,0,1,2.221.405,11.146,11.146,0,0,1-3.28-7.917v-8.069C193.877,100.423,193.879,100.4,193.88,100.379Zm0,0" transform="translate(-165.175 -86.751)" fill="#e5bfa1"/>
      <path id="Trazado_1026369" data-name="Trazado 1026369" d="M109.676,49.183l-2.711-9.016a1.018,1.018,0,1,0-1.951.587l2.711,9.016a4.674,4.674,0,0,1-.605,4.187,4.4,4.4,0,0,1-3.591,1.7h-.243v-.5h.538a2.155,2.155,0,0,0,2.154-2.151V47.487a2.155,2.155,0,0,0-2.154-2.152h-.538v-5.02a1.746,1.746,0,0,0-1.7-1.893,2.107,2.107,0,0,0-1.055.3l-6.4,3.687a2.839,2.839,0,0,0,.049-.515V40.358A2.863,2.863,0,0,0,92.053,37.6a4.606,4.606,0,0,0,2.03-3.814v-.851c.258-.11.511-.228.76-.356h6.433a1.628,1.628,0,0,1,1.63,1.158l.721,2.4a1.018,1.018,0,0,0,1.951-.587l-.721-2.4a3.663,3.663,0,0,0-3.643-2.607H97.685a12.166,12.166,0,0,0,3.357-5.785h1.139a3.356,3.356,0,0,0,3.37-3.333V18.976a3.331,3.331,0,0,0-1.763-2.929V9.066a6.8,6.8,0,0,0-9.9-6.024A11.194,11.194,0,0,0,85.661,0,10.539,10.539,0,0,0,75.11,10.5v5.546a3.33,3.33,0,0,0-1.764,2.929v2.451a3.356,3.356,0,0,0,3.371,3.333h1.139a12.156,12.156,0,0,0,2.223,4.529A9.38,9.38,0,0,0,71.5,37.519a2.875,2.875,0,0,0-2.5,2.292l-1.886-1.086a2.1,2.1,0,0,0-1.054-.3,1.746,1.746,0,0,0-1.7,1.893v5.02h-.286a2.155,2.155,0,0,0-2.154,2.152v5.524a2.155,2.155,0,0,0,2.154,2.152h.286V56.87a3.73,3.73,0,0,0,1.74,3.008l15.989,9.209a3.742,3.742,0,0,0,3.476,0l15.989-9.209a3.756,3.756,0,0,0,1.62-2.182h.363a6.416,6.416,0,0,0,5.224-2.522,6.689,6.689,0,0,0,.923-5.991ZM92.141,40.358V41.9a.823.823,0,0,1-.512.756,8.848,8.848,0,0,0,.05-.923v-2.1a.819.819,0,0,1,.462.732Zm-.925-4.686a9.153,9.153,0,0,0-.834-1.823,11.787,11.787,0,0,0,1.664-.25v.191A2.554,2.554,0,0,1,91.215,35.672ZM102.18,17.68a1.317,1.317,0,0,1,1.334,1.3v2.451a1.317,1.317,0,0,1-1.334,1.3h-.806q.037-.475.038-.959V17.68ZM96.987,4.333a4.754,4.754,0,0,1,4.764,4.733v6.578h-.339V13.7a2.109,2.109,0,0,0-2.109-2.1H96.214V9.028A8.732,8.732,0,0,0,95.131,4.71a4.752,4.752,0,0,1,1.856-.377ZM76.717,22.724a1.318,1.318,0,0,1-1.334-1.3V18.977a1.318,1.318,0,0,1,1.334-1.3h.769v4.084c0,.323.013.643.038.96Zm.769-9.029v1.949h-.339V10.5a8.5,8.5,0,0,1,8.515-8.465,9.961,9.961,0,0,1,6.115,1.825,6.3,6.3,0,0,1,2.4,5.167v2.563H79.594a2.109,2.109,0,0,0-2.109,2.1Zm2.037,8.069V13.7a.07.07,0,0,1,.072-.067H99.3a.07.07,0,0,1,.073.067v8.069a10.019,10.019,0,0,1-9.927,10.086c-.235,0-.469-.01-.7-.027a9.481,9.481,0,0,0-5.916-2.548,10.133,10.133,0,0,1-3.311-7.511Zm1.357,9.527h1.358a7.492,7.492,0,0,1,3.546.886l-3.2,3.192a.8.8,0,0,1-1.121,0,.776.776,0,0,1-.221-.442,1.018,1.018,0,0,0-1.727-.575l-1,1a.8.8,0,0,1-1.121,0,.775.775,0,0,1-.221-.443,1.019,1.019,0,0,0-1.727-.575l-1,1a.78.78,0,0,1-.29.18,7.424,7.424,0,0,1,6.729-4.225Zm-7.4,7.242a7.129,7.129,0,0,1,.067-.957,2.83,2.83,0,0,0,2.337-.8l.029-.029.045.046a2.834,2.834,0,0,0,4,0l.03-.029.045.045a2.834,2.834,0,0,0,4,0l3.426-3.418a7.141,7.141,0,0,1,2.194,5.14v3.195a6.74,6.74,0,0,1-1.343,4.04L84.54,47.934a1.746,1.746,0,0,1-1.443,0L73.51,42.412a6.769,6.769,0,0,1-.036-.684Zm-2.5,1.824a.82.82,0,0,1,.462-.732v1.594l-.462-.266ZM64.065,53.126a.116.116,0,0,1-.118-.115V47.487a.116.116,0,0,1,.118-.115H66.9a.116.116,0,0,1,.117.115v5.524a.116.116,0,0,1-.117.115Zm3.043,4.987a1.72,1.72,0,0,1-.72-1.243V55.163H66.9a2.155,2.155,0,0,0,2.083-1.615,12.552,12.552,0,0,1,2.589,7.139Zm34.141-1.243a1.719,1.719,0,0,1-.72,1.243L84.837,67.151v-1.3a1.018,1.018,0,0,0-2.037,0v1.3l-9.2-5.3a14.681,14.681,0,0,0-4.417-11.171c-.041-.041-.085-.079-.126-.119V47.487A2.155,2.155,0,0,0,66.9,45.335h-.517V40.66L82.081,49.7a3.077,3.077,0,0,0,.72.293V61.1a1.018,1.018,0,0,0,2.037,0V49.991a3.055,3.055,0,0,0,.72-.293l15.693-9.038v4.675h-.265a2.155,2.155,0,0,0-2.154,2.152v2.307a1.457,1.457,0,0,0-1.289-.733,1.787,1.787,0,0,0-.547.089l-1.827.587L94.439,48.6a1.459,1.459,0,0,0-1.253-.673,1.855,1.855,0,0,0-.785.183,2.6,2.6,0,0,0-1.266,1.361l-1.025,2.555-2.284,1.4A2.61,2.61,0,0,0,86.7,54.9a1.608,1.608,0,0,0,.731,1.945l1.2.61-.323,2.036A1.529,1.529,0,0,0,89.389,61.3a1.571,1.571,0,0,0,.4.05,1.857,1.857,0,0,0,.786-.183,2.464,2.464,0,0,0,.674-.477l1.978-1.962,1.849.11a1.829,1.829,0,0,0,.878-.179A2.489,2.489,0,0,0,96.794,58a2.26,2.26,0,0,0,.554-1.815l-.362-1.94,1.62-2.334a2.567,2.567,0,0,0,.224-.391v1.491a2.155,2.155,0,0,0,2.154,2.152h.265V56.87ZM94.907,54.2l.431,2.313a.541.541,0,0,1-.105.179.523.523,0,0,1-.119.108l-2.223-.132a1,1,0,0,0-.778.293l-1.592,1.58.238-1.5a1.018,1.018,0,0,0-.544-1.067l-1.431-.728a.494.494,0,0,1,.1-.088l2.573-1.574a1.02,1.02,0,0,0,.414-.49l1.15-2.867c0-.013.011-.025.017-.038l.834,1.3a1.018,1.018,0,0,0,1.169.42l1.392-.447-1.365,1.966a1.016,1.016,0,0,0-.164.767Zm6.078-1.074a.116.116,0,0,1-.118-.115V47.487a.116.116,0,0,1,.118-.115h2.84a.116.116,0,0,1,.117.115v5.524a.116.116,0,0,1-.117.115Zm0,0" transform="translate(-53.073)"/>
      <path id="Trazado_1026370" data-name="Trazado 1026370" d="M215.284,133.943a1.018,1.018,0,0,0,1.018-1.018v-1.391a1.018,1.018,0,0,0-2.037,0v1.391A1.019,1.019,0,0,0,215.284,133.943Zm0,0" transform="translate(-184.743 -112.796)"/>
      <path id="Trazado_1026371" data-name="Trazado 1026371" d="M301.221,133.943a1.018,1.018,0,0,0,1.018-1.018v-1.391a1.018,1.018,0,1,0-2.036,0v1.391A1.018,1.018,0,0,0,301.221,133.943Zm0,0" transform="translate(-259.012 -112.796)"/>
      <path id="Trazado_1026372" data-name="Trazado 1026372" d="M251.986,138.126h1.207a1.018,1.018,0,1,0,0-2.037h-.868v-2.453a1.018,1.018,0,0,0-2.037,0v2.793A1.7,1.7,0,0,0,251.986,138.126Zm0,0" transform="translate(-215.875 -114.612)"/>
      <path id="Trazado_1026373" data-name="Trazado 1026373" d="M233.662,184.961a5.054,5.054,0,0,0,4.882-5.2,1.567,1.567,0,0,0-1.57-1.561h-6.623a1.567,1.567,0,0,0-1.57,1.561A5.054,5.054,0,0,0,233.662,184.961Zm2.813-4.725a2.816,2.816,0,0,1-5.625,0Zm0,0" transform="translate(-197.287 -154.005)"/>
      <path id="Trazado_1026374" data-name="Trazado 1026374" d="M166.135,300.132a1.018,1.018,0,0,0,1.018-1.018v-.6a1.018,1.018,0,0,0-2.037,0v.6A1.018,1.018,0,0,0,166.135,300.132Zm0,0" transform="translate(-142.267 -257.101)"/>
      <path id="Trazado_1026375" data-name="Trazado 1026375" d="M234.151,300.132a1.018,1.018,0,0,0,1.018-1.018v-.6a1.018,1.018,0,0,0-2.037,0v.6A1.018,1.018,0,0,0,234.151,300.132Zm0,0" transform="translate(-201.048 -257.101)"/>
      <path id="Trazado_1026376" data-name="Trazado 1026376" d="M196.859,305.032h.517a1.018,1.018,0,0,0,0-2.037h-.014v-.406a1.018,1.018,0,1,0-2.037,0v.746A1.623,1.623,0,0,0,196.859,305.032Zm0,0" transform="translate(-168.373 -260.626)"/>
      <path id="Trazado_1026377" data-name="Trazado 1026377" d="M12.488,151.1a1.018,1.018,0,0,0-1.018-1.018H2.876a.344.344,0,0,1-.339-.339V138.876a.344.344,0,0,1,.339-.339H17.132a.344.344,0,0,1,.339.339v6.732a1.019,1.019,0,0,0,.475.861l1.281.809-1.281.809a1.017,1.017,0,0,0-.475.861v.79a.344.344,0,0,1-.339.339h-.911a1.018,1.018,0,1,0,0,2.037h.911a2.379,2.379,0,0,0,2.376-2.376v-.229l1.6-1.008a1.408,1.408,0,0,0,0-2.447l-1.6-1.008v-6.171a2.379,2.379,0,0,0-2.376-2.376H2.876A2.379,2.379,0,0,0,.5,138.876v10.862a2.379,2.379,0,0,0,2.376,2.376h8.593A1.018,1.018,0,0,0,12.488,151.1Zm0,0" transform="translate(0 -117.967)"/>
      <path id="Trazado_1026378" data-name="Trazado 1026378" d="M28.124,164.217h9.882a1.018,1.018,0,1,0,0-2.037H28.124a1.018,1.018,0,1,0,0,2.037Zm0,0" transform="translate(-22.993 -140.161)"/>
      <path id="Trazado_1026379" data-name="Trazado 1026379" d="M39.025,186.018A1.018,1.018,0,0,0,38.006,185H28.124a1.018,1.018,0,1,0,0,2.037h9.882A1.018,1.018,0,0,0,39.025,186.018Zm0,0" transform="translate(-22.993 -159.883)"/>
      <path id="Trazado_1026380" data-name="Trazado 1026380" d="M28.124,207.82a1.018,1.018,0,1,0,0,2.037H33.88a1.018,1.018,0,1,0,0-2.037Zm0,0" transform="translate(-22.993 -179.604)"/>
    </g>
  </g>
</svg>
