<svg xmlns="http://www.w3.org/2000/svg" xmlns:xlink="http://www.w3.org/1999/xlink" width="113" height="113" viewBox="0 0 113 113">
  <defs>
    <filter id="Trazado_982547" x="0" y="0" width="113" height="113" filterUnits="userSpaceOnUse">
      <feOffset dy="3" input="SourceAlpha"/>
      <feGaussianBlur stdDeviation="3" result="blur"/>
      <feFlood flood-opacity="0.161"/>
      <feComposite operator="in" in2="blur"/>
      <feComposite in="SourceGraphic"/>
    </filter>
  </defs>
  <g id="Grupo_1176885" data-name="Grupo 1176885" transform="translate(9 6)">
    <g id="Grupo_1172010" data-name="Grupo 1172010">
      <g id="Grupo_1171046" data-name="Grupo 1171046">
        <g id="Grupo_1148525" data-name="Grupo 1148525">
          <g transform="matrix(1, 0, 0, 1, -9, -6)" filter="url(#Trazado_982547)">
            <g id="Trazado_982547-2" data-name="Trazado 982547" transform="translate(9 6)" fill="#edf3fc">
              <path d="M 47.5 93.5 C 41.28937149047852 93.5 35.26533508300781 92.28397369384766 29.59518623352051 89.88570404052734 C 24.11771965026855 87.56893157958984 19.19813346862793 84.25196075439453 14.97309303283691 80.02691650390625 C 10.74804019927979 75.80186462402344 7.431066513061523 70.88229370117188 5.114293098449707 65.40481567382812 C 2.716026782989502 59.73468017578125 1.5 53.71062850952148 1.5 47.5 C 1.5 41.28937149047852 2.716026782989502 35.26533508300781 5.114293098449707 29.59518623352051 C 7.431066513061523 24.11771965026855 10.74804019927979 19.19813346862793 14.97309303283691 14.97309303283691 C 19.19813346862793 10.74804019927979 24.11771965026855 7.431066513061523 29.59518623352051 5.114293098449707 C 35.26533508300781 2.716026782989502 41.28937149047852 1.5 47.5 1.5 C 53.71062850952148 1.5 59.73468017578125 2.716026782989502 65.40481567382812 5.114293098449707 C 70.88229370117188 7.431066513061523 75.80186462402344 10.74804019927979 80.02691650390625 14.97309303283691 C 84.25196075439453 19.19813346862793 87.56893157958984 24.11771965026855 89.88570404052734 29.59518623352051 C 92.28397369384766 35.26533508300781 93.5 41.28937149047852 93.5 47.5 C 93.5 53.71062850952148 92.28397369384766 59.73468017578125 89.88570404052734 65.40481567382812 C 87.56893157958984 70.88229370117188 84.25196075439453 75.80186462402344 80.02691650390625 80.02691650390625 C 75.80186462402344 84.25196075439453 70.88229370117188 87.56893157958984 65.40481567382812 89.88570404052734 C 59.73468017578125 92.28397369384766 53.71062850952148 93.5 47.5 93.5 Z" stroke="none"/>
              <path d="M 47.5 3 C 41.49121475219727 3 35.66376876831055 4.176155090332031 30.17950439453125 6.495796203613281 C 24.88084411621094 8.736953735351562 20.12152099609375 11.94598388671875 16.03375244140625 16.03375244140625 C 11.94598388671875 20.12152099609375 8.736953735351562 24.88084411621094 6.495796203613281 30.17950439453125 C 4.176155090332031 35.66376876831055 3 41.49121475219727 3 47.5 C 3 53.50878524780273 4.176155090332031 59.33623123168945 6.495796203613281 64.82049560546875 C 8.736953735351562 70.11915588378906 11.94598388671875 74.87847900390625 16.03375244140625 78.96624755859375 C 20.12152099609375 83.05401611328125 24.88084411621094 86.26304626464844 30.17950439453125 88.50419616699219 C 35.66376876831055 90.82384490966797 41.49121475219727 92 47.5 92 C 53.50878524780273 92 59.33623123168945 90.82384490966797 64.82049560546875 88.50419616699219 C 70.11915588378906 86.26304626464844 74.87847900390625 83.05401611328125 78.96624755859375 78.96624755859375 C 83.05401611328125 74.87847900390625 86.26304626464844 70.11915588378906 88.50419616699219 64.82049560546875 C 90.82384490966797 59.33623123168945 92 53.50878524780273 92 47.5 C 92 41.49121475219727 90.82384490966797 35.66376876831055 88.50419616699219 30.17950439453125 C 86.26304626464844 24.88084411621094 83.05401611328125 20.12152099609375 78.96624755859375 16.03375244140625 C 74.87847900390625 11.94598388671875 70.11915588378906 8.736953735351562 64.82049560546875 6.495796203613281 C 59.33623123168945 4.176155090332031 53.50878524780273 3 47.5 3 M 47.5 0 C 73.7335205078125 0 95 21.2664794921875 95 47.5 C 95 73.7335205078125 73.7335205078125 95 47.5 95 C 21.2664794921875 95 0 73.7335205078125 0 47.5 C 0 21.2664794921875 21.2664794921875 0 47.5 0 Z" stroke="none" fill="#5692e8"/>
            </g>
          </g>
        </g>
      </g>
    </g>
    <g id="teacher_5190740" transform="translate(16.337 3.063)">
      <path id="Trazado_1034974" data-name="Trazado 1034974" d="M150.36,329.286a.609.609,0,0,1-.609-.609V312.308a5.5,5.5,0,0,1-3.247,1.055h-.619v4.773a.609.609,0,0,1-.914.526l-5.476-3.177a.609.609,0,0,0-.611,0l-5.476,3.177a.609.609,0,0,1-.914-.526v-4.773h-.619a5.5,5.5,0,0,1-3.247-1.055v16.369a.609.609,0,0,1-.609.609H123v4.108a.609.609,0,0,0,.609.609h31.163a.609.609,0,0,0,.609-.609v-4.108Z" transform="translate(-108.027 -262.017)" fill="#ffd15b"/>
      <path id="Trazado_1034975" data-name="Trazado 1034975" d="M127.869,455.888V451.78H123v4.108a.609.609,0,0,0,.609.609h4.869A.609.609,0,0,1,127.869,455.888Z" transform="translate(-108.027 -384.511)" fill="#fdb441"/>
      <path id="Trazado_1034976" data-name="Trazado 1034976" d="M236.911,337.815a.609.609,0,0,0-.611,0l-2.383,1.382,2.117,5.771a.609.609,0,0,0,1.143,0l2.117-5.771Z" transform="translate(-205.442 -284.347)" fill="#fff"/>
      <path id="Trazado_1034977" data-name="Trazado 1034977" d="M166.827,22.956a7.013,7.013,0,0,0-4.318-1.48h-2.651a9.358,9.358,0,0,0-9.358,9.358V50.479h1.673a.609.609,0,0,1,.609.609v5.791a5.5,5.5,0,0,0,3.247,1.055h.619V53.875a.609.609,0,0,1,.268-.5l2.667-1.8a8.537,8.537,0,0,0,3.017.548h1.486a8.54,8.54,0,0,0,3.017-.548l2.667,1.8a.609.609,0,0,1,.268.5v4.059h.619a5.5,5.5,0,0,0,3.247-1.055V51.088a.609.609,0,0,1,.609-.609h1.673V32.314A9.358,9.358,0,0,0,166.827,22.956Z" transform="translate(-132.18 -6.588)" fill="#fe7701"/>
      <g id="Grupo_1176890" data-name="Grupo 1176890" transform="translate(18.32 14.888)">
        <path id="Trazado_1034978" data-name="Trazado 1034978" d="M151.635,37.97h2.405c0,.006,0,.012,0,.017a2.627,2.627,0,0,1,2.365-2.614v-4.54a9.359,9.359,0,0,1,7.619-9.194,7.051,7.051,0,0,0-1.513-.164h-2.651a9.358,9.358,0,0,0-9.358,9.358V38.16a3.49,3.49,0,0,1,1.135-.19Z" transform="translate(-150.5 -21.476)" fill="#f46700"/>
        <path id="Trazado_1034979" data-name="Trazado 1034979" d="M156.647,230.379a5.527,5.527,0,0,1-.243-1.626V225.81a8.55,8.55,0,0,1-1.979-3.355h-2.79a3.489,3.489,0,0,1-1.135-.19v4.561h1.673a.609.609,0,0,1,.609.609v5.791a5.5,5.5,0,0,0,3.247,1.055h.619Z" transform="translate(-150.5 -197.824)" fill="#f46700"/>
      </g>
      <path id="Trazado_1034980" data-name="Trazado 1034980" d="M214.122,270.5l-2.667-1.8a8.538,8.538,0,0,1-3.017.548h-1.486a8.541,8.541,0,0,1-3.017-.548l-2.667,1.8a.609.609,0,0,0-.268.5v8.832a.609.609,0,0,0,.914.526l5.476-3.177a.609.609,0,0,1,.611,0l5.476,3.177a.609.609,0,0,0,.914-.526v-8.832A.608.608,0,0,0,214.122,270.5Z" transform="translate(-176.532 -223.72)" fill="#eaf6ff"/>
      <path id="Trazado_1034981" data-name="Trazado 1034981" d="M203.935,268.7l-2.667,1.8a.609.609,0,0,0-.268.5v8.832a.609.609,0,0,0,.914.526l2.129-1.236v-8.123a.609.609,0,0,1,.268-.5l1.9-1.285A8.51,8.51,0,0,1,203.935,268.7Z" transform="translate(-176.532 -223.72)" fill="#d8ecfe"/>
      <path id="Trazado_1034982" data-name="Trazado 1034982" d="M231.3,269.849h-1.486a8.544,8.544,0,0,1-2.784-.466v4.454l3.527,3.771,3.527-3.771v-4.454A8.544,8.544,0,0,1,231.3,269.849Z" transform="translate(-199.391 -224.318)" fill="#fed2a4"/>
      <path id="Trazado_1034983" data-name="Trazado 1034983" d="M230.074,269.849h-.263a8.544,8.544,0,0,1-2.784-.466v4.454l3.527,3.771,1.984-2.121-2.464-2.634Z" transform="translate(-199.391 -224.318)" fill="#ffbd86"/>
      <g id="Grupo_1176891" data-name="Grupo 1176891" transform="translate(15.961 31.382)">
        <path id="Trazado_1034984" data-name="Trazado 1034984" d="M137.014,162.564v-5.571c0-.006,0-.012,0-.017H134.61a3.5,3.5,0,0,0-3.495,3.495v1.147a3.5,3.5,0,0,0,3.495,3.495h2.79A8.553,8.553,0,0,1,137.014,162.564Z" transform="translate(-131.115 -156.975)" fill="#ffe5c2"/>
        <path id="Trazado_1034985" data-name="Trazado 1034985" d="M332.045,156.976h-2.4v5.589a8.554,8.554,0,0,1-.386,2.548h2.79a3.5,3.5,0,0,0,3.495-3.495v-1.147A3.5,3.5,0,0,0,332.045,156.976Z" transform="translate(-305.135 -156.976)" fill="#ffe5c2"/>
      </g>
      <g id="Grupo_1176892" data-name="Grupo 1176892" transform="translate(21.86 25.472)">
        <path id="Trazado_1034986" data-name="Trazado 1034986" d="M193.71,108.932a2.6,2.6,0,0,1,3.064-.013,3.494,3.494,0,0,1,1.409,2.806v8.2a8.56,8.56,0,0,1-8.56,8.56h-1.486a8.56,8.56,0,0,1-8.56-8.56v-5.571a2.627,2.627,0,0,1,2.627-2.627H189a2.627,2.627,0,0,0,1.541-.5Z" transform="translate(-179.577 -108.425)" fill="#ffe5c2"/>
      </g>
      <g id="Grupo_1176894" data-name="Grupo 1176894" transform="translate(21.86 28.773)">
        <g id="Grupo_1176893" data-name="Grupo 1176893">
          <path id="Trazado_1034987" data-name="Trazado 1034987" d="M183.663,143.734v-5.571a2.627,2.627,0,0,1,2.627-2.627H182.2a2.627,2.627,0,0,0-2.627,2.627v5.571a8.56,8.56,0,0,0,8.56,8.56h1.486a8.631,8.631,0,0,0,1.3-.1A8.562,8.562,0,0,1,183.663,143.734Z" transform="translate(-179.576 -135.536)" fill="#fed2a4"/>
        </g>
      </g>
      <path id="Trazado_1034988" data-name="Trazado 1034988" d="M225.217,216.388a.56.56,0,0,0-.552.659,3.559,3.559,0,0,0,3.5,2.9h.618a3.559,3.559,0,0,0,3.5-2.9.56.56,0,0,0-.552-.659Z" transform="translate(-197.309 -177.773)" fill="#fff"/>
      <g id="Grupo_1176898" data-name="Grupo 1176898" transform="translate(0.913 43.892)">
        <g id="Grupo_1176895" data-name="Grupo 1176895" transform="translate(1.551 0)">
          <path id="Trazado_1034989" data-name="Trazado 1034989" d="M37.772,259.736H20.852a.609.609,0,0,0-.609.609v17.363H22.89a1.4,1.4,0,0,1,1.4,1.4v4.007H37.772a.609.609,0,0,0,.609-.609v-22.16A.608.608,0,0,0,37.772,259.736Z" transform="translate(-20.243 -259.736)" fill="#d8ecfe"/>
          <path id="Trazado_1034990" data-name="Trazado 1034990" d="M25.2,282.5v-22.16a.609.609,0,0,1,.609-.609H20.852a.609.609,0,0,0-.609.609v17.363H22.89a1.4,1.4,0,0,1,1.4,1.4v4.007h1.523A.609.609,0,0,1,25.2,282.5Z" transform="translate(-20.243 -259.736)" fill="#c4e2ff"/>
        </g>
        <g id="Grupo_1176896" data-name="Grupo 1176896" transform="translate(0 17.971)">
          <path id="Trazado_1034991" data-name="Trazado 1034991" d="M11.7,414.507H8.9a1.4,1.4,0,0,1-1.4-1.4v-4.338a1.4,1.4,0,0,1,1.4-1.4h2.8a1.4,1.4,0,0,1,1.4,1.4v4.338A1.4,1.4,0,0,1,11.7,414.507Z" transform="translate(-7.5 -407.37)" fill="#ffe5c2"/>
        </g>
        <g id="Grupo_1176897" data-name="Grupo 1176897" transform="translate(0 17.971)">
          <path id="Trazado_1034992" data-name="Trazado 1034992" d="M10.361,413.108v-4.338a1.4,1.4,0,0,1,1.369-1.4l-.031,0H8.9a1.4,1.4,0,0,0-1.4,1.4v4.338a1.4,1.4,0,0,0,1.4,1.4h2.8l.031,0A1.4,1.4,0,0,1,10.361,413.108Z" transform="translate(-7.5 -407.37)" fill="#fed2a4"/>
        </g>
      </g>
      <g id="Grupo_1176907" data-name="Grupo 1176907" transform="translate(41.724 43.892)">
        <g id="Grupo_1176904" data-name="Grupo 1176904" transform="translate(0 0)">
          <path id="Trazado_1034993" data-name="Trazado 1034993" d="M356.848,279.107a1.4,1.4,0,0,1,1.4-1.4h2.647V260.345a.609.609,0,0,0-.609-.609h-16.92a.609.609,0,0,0-.609.609V282.5a.609.609,0,0,0,.609.609h13.482v-4.007Z" transform="translate(-342.757 -259.736)" fill="#0593fc"/>
          <g id="Grupo_1176899" data-name="Grupo 1176899">
            <path id="Trazado_1034994" data-name="Trazado 1034994" d="M348.143,282.5v-22.16a.609.609,0,0,1,.609-.609h-5.386a.609.609,0,0,0-.609.609V282.5a.609.609,0,0,0,.609.609h5.386A.609.609,0,0,1,348.143,282.5Z" transform="translate(-342.757 -259.736)" fill="#0182fc"/>
          </g>
          <g id="Grupo_1176903" data-name="Grupo 1176903" transform="translate(3.352 6.201)">
            <path id="Trazado_1034995" data-name="Trazado 1034995" d="M379.193,327.113a1.96,1.96,0,1,1-3.184,1.516l0,0a3.311,3.311,0,0,0-2.854-1.563c-1.826.126-3.093,2.153-2.829,4.527s1.957,4.2,3.783,4.071h3.8c1.826.126,3.519-1.7,3.783-4.071C381.937,329.367,380.837,327.446,379.193,327.113Z" transform="translate(-370.289 -325.067)" fill="#fb2b3a"/>
            <g id="Grupo_1176901" data-name="Grupo 1176901" transform="translate(0 1.994)">
              <g id="Grupo_1176900" data-name="Grupo 1176900">
                <path id="Trazado_1034996" data-name="Trazado 1034996" d="M374.435,331.594a4.623,4.623,0,0,1,1.013-3.611,3.044,3.044,0,0,0-2.3-.916c-1.826.126-3.093,2.153-2.829,4.527s1.957,4.2,3.783,4.071h3.759C376.179,335.552,374.682,333.815,374.435,331.594Z" transform="translate(-370.289 -327.061)" fill="#e41f2d"/>
              </g>
            </g>
            <g id="Grupo_1176902" data-name="Grupo 1176902" transform="translate(4.912 0)">
              <ellipse id="Elipse_12445" data-name="Elipse 12445" cx="2.241" cy="1.198" rx="2.241" ry="1.198" transform="translate(0 3.169) rotate(-45)" fill="#97d729"/>
            </g>
          </g>
        </g>
        <g id="Grupo_1176905" data-name="Grupo 1176905" transform="translate(14.091 17.971)">
          <path id="Trazado_1034997" data-name="Trazado 1034997" d="M462.713,414.507h-2.8a1.4,1.4,0,0,1-1.4-1.4v-4.338a1.4,1.4,0,0,1,1.4-1.4h2.8a1.4,1.4,0,0,1,1.4,1.4v4.338A1.4,1.4,0,0,1,462.713,414.507Z" transform="translate(-458.515 -407.37)" fill="#ffe5c2"/>
        </g>
        <g id="Grupo_1176906" data-name="Grupo 1176906" transform="translate(14.091 17.971)">
          <path id="Trazado_1034998" data-name="Trazado 1034998" d="M461.376,413.108v-4.338a1.4,1.4,0,0,1,1.369-1.4l-.031,0h-2.8a1.4,1.4,0,0,0-1.4,1.4v4.338a1.4,1.4,0,0,0,1.4,1.4h2.8l.031,0A1.4,1.4,0,0,1,461.376,413.108Z" transform="translate(-458.515 -407.37)" fill="#fed2a4"/>
        </g>
      </g>
      <g id="Grupo_1176908" data-name="Grupo 1176908" transform="translate(0 13.975)">
        <path id="Trazado_1034999" data-name="Trazado 1034999" d="M225.138,208.889H218.63a1.472,1.472,0,0,0-1.449,1.739,4.471,4.471,0,0,0,4.395,3.644h.618a4.471,4.471,0,0,0,4.395-3.644,1.472,1.472,0,0,0-1.449-1.739Zm-2.945,3.558h-.618a2.646,2.646,0,0,1-2.484-1.732h5.585A2.646,2.646,0,0,1,222.193,212.447Z" transform="translate(-190.721 -185.162)"/>
        <path id="Trazado_1035000" data-name="Trazado 1035000" d="M213.518,150.414v-2.3a.913.913,0,1,0-1.826,0v2.3a.913.913,0,0,0,1.826,0Z" transform="translate(-185.923 -130.98)"/>
        <path id="Trazado_1035001" data-name="Trazado 1035001" d="M286.221,147.2a.913.913,0,0,0-.913.913v2.3a.913.913,0,1,0,1.826,0v-2.3A.913.913,0,0,0,286.221,147.2Z" transform="translate(-250.577 -130.98)"/>
        <path id="Trazado_1035002" data-name="Trazado 1035002" d="M239.494,162.518a.913.913,0,1,0,1.365-1.213l-.768-.865.8-1a.913.913,0,1,0-1.426-1.141l-1.28,1.6a.913.913,0,0,0,.031,1.177Z" transform="translate(-209.014 -140.431)"/>
        <path id="Trazado_1035003" data-name="Trazado 1035003" d="M57.854,309.014a.913.913,0,0,0-.836.546l-4.2,9.554a.913.913,0,1,0,1.672.735l.991-2.254h4.746l.991,2.254a.913.913,0,1,0,1.672-.735l-4.2-9.554A.913.913,0,0,0,57.854,309.014Zm1.57,6.755H56.283l1.57-3.573Z" transform="translate(-46.321 -273.099)"/>
        <path id="Trazado_1035004" data-name="Trazado 1035004" d="M373.6,308.191a3.628,3.628,0,0,0-.067-.76.913.913,0,0,0-.718-.718,3.608,3.608,0,0,0-2.486.4.913.913,0,0,0-1.825.017v1.17a3.694,3.694,0,0,0-2-.45,3.647,3.647,0,0,0-2.548,1.348,5.58,5.58,0,0,0-1.125,4.19c.305,2.753,2.3,4.889,4.517,4.889.067,0,.135,0,.2-.006h3.742c.068,0,.135.006.2.006,2.212,0,4.211-2.136,4.517-4.889a5.579,5.579,0,0,0-1.125-4.19,3.849,3.849,0,0,0-1.281-1.011Zm-2.749.8a.525.525,0,1,1-.482.885A1.778,1.778,0,0,1,370.853,308.992Zm3.341,4.2c-.2,1.8-1.42,3.265-2.7,3.265-.038,0-.076,0-.115,0l-.063,0h-3.8l-.063,0c-1.321.09-2.607-1.4-2.813-3.261a3.809,3.809,0,0,1,.712-2.818,1.835,1.835,0,0,1,1.273-.7q.056,0,.112,0a2.4,2.4,0,0,1,1.791,1c.011.1.025.192.044.288a.913.913,0,0,0,.718.718A3.608,3.608,0,0,0,373.085,310a2.2,2.2,0,0,1,.4.373A3.81,3.81,0,0,1,374.194,313.191Z" transform="translate(-318.625 -270.646)"/>
        <path id="Trazado_1035005" data-name="Trazado 1035005" d="M60.774,61.081V51.349a.913.913,0,1,0-1.826,0v9.6H57.214A2.315,2.315,0,0,0,54.9,63.262v3.094H42.637V44.8H58.949v2.284a.913.913,0,0,0,1.826,0V44.5a1.523,1.523,0,0,0-1.522-1.522H44.918V39.926a4.411,4.411,0,0,0,2.36-3.9V34.877a4.412,4.412,0,0,0-2.36-3.9v-5.25A10.283,10.283,0,0,0,34.957,15.46a7.874,7.874,0,0,0-4.627-1.485H27.678A10.283,10.283,0,0,0,17.407,24.246v6.73a4.411,4.411,0,0,0-2.36,3.9v1.147a4.411,4.411,0,0,0,2.36,3.9v3.052H15.947a.913.913,0,1,0,0,1.826h3.742V66.356H7.424V63.262A2.315,2.315,0,0,0,5.111,60.95H3.377V44.8h8.309a.913.913,0,0,0,0-1.826H3.073A1.523,1.523,0,0,0,1.551,44.5V61.081A2.315,2.315,0,0,0,0,63.262V67.6a2.315,2.315,0,0,0,2.312,2.312h2.8a2.314,2.314,0,0,0,2.235-1.731H14.06v3.195A1.523,1.523,0,0,0,15.581,72.9H36.641a.913.913,0,0,0,0-1.826H15.886v-2.89h4.108a1.523,1.523,0,0,0,1.522-1.522V51.82a6.387,6.387,0,0,0,2.04.432v3.867a1.522,1.522,0,0,0,2.285,1.316l2.152-1.249,1.742,4.75a1.522,1.522,0,0,0,2.857,0l1.742-4.75,2.152,1.249a1.522,1.522,0,0,0,2.285-1.316V52.252a6.386,6.386,0,0,0,2.04-.432V66.66a1.523,1.523,0,0,0,1.522,1.522H46.44v2.89H40.9a.913.913,0,0,0,0,1.826h5.843a1.523,1.523,0,0,0,1.522-1.522V68.182h6.713a2.314,2.314,0,0,0,2.235,1.731h2.8A2.315,2.315,0,0,0,62.326,67.6V63.262a2.315,2.315,0,0,0-1.551-2.181ZM5.6,67.6a.487.487,0,0,1-.487.486h-2.8a.487.487,0,0,1-.486-.486V63.262a.487.487,0,0,1,.486-.486h2.8a.487.487,0,0,1,.487.486V67.6ZM45.452,36.025a2.585,2.585,0,0,1-2.582,2.582H41.237a9.493,9.493,0,0,0,.142-1.635V32.3H42.87a2.585,2.585,0,0,1,2.582,2.582ZM19.233,24.246A8.455,8.455,0,0,1,27.678,15.8h2.651a6.071,6.071,0,0,1,3.758,1.288.913.913,0,0,0,.56.192,8.455,8.455,0,0,1,8.445,8.445v4.749q-.11-.005-.222-.006H41.379v-1.7A4.434,4.434,0,0,0,39.6,25.235a3.485,3.485,0,0,0-4.145.006l-3.167,2.294a1.7,1.7,0,0,1-1.006.326h-6.8a3.546,3.546,0,0,0-3.415,2.61H19.456q-.112,0-.222.006V24.246ZM31.906,44.618H30.42a7.656,7.656,0,0,1-7.647-7.647V31.4a1.716,1.716,0,0,1,1.714-1.714h6.8a3.519,3.519,0,0,0,2.077-.673l3.167-2.294a1.689,1.689,0,0,1,1.982-.021,2.566,2.566,0,0,1,1.042,2.074v8.2A7.656,7.656,0,0,1,31.906,44.618Zm1.871,1.64v2.9l-2.614,2.795L28.549,49.16v-2.9a9.478,9.478,0,0,0,1.871.186h1.486A9.478,9.478,0,0,0,33.777,46.258Zm-16.9-11.381A2.585,2.585,0,0,1,19.455,32.3h1.491v4.676a9.493,9.493,0,0,0,.142,1.635H19.455a2.585,2.585,0,0,1-2.582-2.582Zm7.352,11.149a1.52,1.52,0,0,0-.67,1.261v3.135a4.58,4.58,0,0,1-2.04-.626V44.5a1.523,1.523,0,0,0-1.522-1.522h-.76V40.427q.11.005.222.006H21.6a9.53,9.53,0,0,0,3.978,4.679Zm1.156,9.565V47.449l1.342-.906V49.52a.913.913,0,0,0,.246.624l2.743,2.933Zm5.782,3.938L29.6,55.256l1.567-.909,1.567.909Zm5.782-3.938-4.332-2.514,2.743-2.933a.913.913,0,0,0,.246-.624V46.544l1.342.906ZM40.811,44.5v5.3a4.581,4.581,0,0,1-2.04.626V47.288a1.52,1.52,0,0,0-.67-1.261l-1.356-.915a9.531,9.531,0,0,0,3.978-4.679H42.87q.112,0,.222-.006v2.551h-.76A1.523,1.523,0,0,0,40.811,44.5ZM60.5,67.6a.487.487,0,0,1-.486.486h-2.8a.487.487,0,0,1-.487-.486V63.262a.487.487,0,0,1,.487-.486h2.8a.487.487,0,0,1,.486.486Z" transform="translate(0 -13.975)"/>
      </g>
    </g>
  </g>
</svg>
