<svg xmlns="http://www.w3.org/2000/svg" xmlns:xlink="http://www.w3.org/1999/xlink" width="103" height="103" viewBox="0 0 103 103">
  <defs>
    <filter id="Trazado_978624" x="0" y="0" width="103" height="103" filterUnits="userSpaceOnUse">
      <feOffset dy="3" input="SourceAlpha"/>
      <feGaussianBlur stdDeviation="3" result="blur"/>
      <feFlood flood-opacity="0.161"/>
      <feComposite operator="in" in2="blur"/>
      <feComposite in="SourceGraphic"/>
    </filter>
  </defs>
  <g id="Grupo_1176882" data-name="Grupo 1176882" transform="translate(-185 -3098)">
    <g id="Grupo_1176440" data-name="Grupo 1176440" transform="translate(14 232)">
      <g id="Grupo_1175148" data-name="Grupo 1175148" transform="translate(0 1580)">
        <g id="Grupo_1173798" data-name="Grupo 1173798" transform="translate(-3 -3520)">
          <g id="Grupo_1171925" data-name="Grupo 1171925" transform="translate(-22 -2246)">
            <g id="Grupo_1164524" data-name="Grupo 1164524" transform="translate(205 7058)">
              <g id="Grupo_1144123" data-name="Grupo 1144123">
                <g transform="matrix(1, 0, 0, 1, -9, -6)" filter="url(#Trazado_978624)">
                  <g id="Trazado_978624-2" data-name="Trazado 978624" transform="translate(9 6)" fill="#edf3fc">
                    <path d="M 42.5 83.5 C 36.96437835693359 83.5 31.59512901306152 82.41617584228516 26.54141235351562 80.27863311767578 C 21.65934181213379 78.21369171142578 17.27447128295898 75.25723266601562 13.50862312316895 71.49137878417969 C 9.742764472961426 67.72553253173828 6.786305904388428 63.34066009521484 4.721364498138428 58.45858764648438 C 2.583823442459106 53.40486907958984 1.5 48.03562164306641 1.5 42.5 C 1.5 36.96437835693359 2.583823442459106 31.59512901306152 4.721364498138428 26.54141235351562 C 6.786305904388428 21.65934181213379 9.742764472961426 17.27447128295898 13.50862312316895 13.50862312316895 C 17.27447128295898 9.742764472961426 21.65934181213379 6.786305904388428 26.54141235351562 4.721364498138428 C 31.59512901306152 2.583823442459106 36.96437835693359 1.5 42.5 1.5 C 48.03562164306641 1.5 53.40486907958984 2.583823442459106 58.45858764648438 4.721364498138428 C 63.34066009521484 6.786305904388428 67.72553253173828 9.742764472961426 71.49137878417969 13.50862312316895 C 75.25723266601562 17.27447128295898 78.21369171142578 21.65934181213379 80.27863311767578 26.54141235351562 C 82.41617584228516 31.59512901306152 83.5 36.96437835693359 83.5 42.5 C 83.5 48.03562164306641 82.41617584228516 53.40486907958984 80.27863311767578 58.45858764648438 C 78.21369171142578 63.34066009521484 75.25723266601562 67.72553253173828 71.49137878417969 71.49137878417969 C 67.72553253173828 75.25723266601562 63.34066009521484 78.21369171142578 58.45858764648438 80.27863311767578 C 53.40486907958984 82.41617584228516 48.03562164306641 83.5 42.5 83.5 Z" stroke="none"/>
                    <path d="M 42.5 3 C 37.16621398925781 3 31.99356079101562 4.043960571289062 27.125732421875 6.102882385253906 C 22.42246627807617 8.092185974121094 18.19785308837891 10.94070434570312 14.56928253173828 14.56928253173828 C 10.94070434570312 18.19785308837891 8.092185974121094 22.42246627807617 6.102882385253906 27.125732421875 C 4.043960571289062 31.99356079101562 3 37.16621398925781 3 42.5 C 3 47.83378601074219 4.043960571289062 53.00643920898438 6.102882385253906 57.87425231933594 C 8.092185974121094 62.57753372192383 10.94070434570312 66.80213165283203 14.56928253173828 70.43071746826172 C 18.19786834716797 74.05929565429688 22.42246627807617 76.90781402587891 27.125732421875 78.89711761474609 C 31.99356079101562 80.95603942871094 37.16621398925781 82 42.5 82 C 47.83378601074219 82 53.00642395019531 80.95603942871094 57.87425231933594 78.89711761474609 C 62.57753372192383 76.90781402587891 66.80213165283203 74.05929565429688 70.43071746826172 70.43071746826172 C 74.05929565429688 66.80213165283203 76.90781402587891 62.57753372192383 78.89711761474609 57.87425231933594 C 80.95603942871094 53.00642395019531 82 47.83378601074219 82 42.5 C 82 37.16621398925781 80.95603942871094 31.99356079101562 78.89711761474609 27.125732421875 C 76.90781402587891 22.42246627807617 74.05929565429688 18.19786834716797 70.43071746826172 14.56928253173828 C 66.80213165283203 10.94070434570312 62.57753372192383 8.092185974121094 57.87425231933594 6.102882385253906 C 53.00643920898438 4.043960571289062 47.83378601074219 3 42.5 3 M 42.5 0 C 65.97209167480469 0 85 19.02789306640625 85 42.5 C 85 65.97209167480469 65.97209167480469 85 42.5 85 C 19.02789306640625 85 0 65.97209167480469 0 42.5 C 0 19.02789306640625 19.02789306640625 0 42.5 0 Z" stroke="none" fill="#5692e8"/>
                  </g>
                </g>
              </g>
            </g>
          </g>
        </g>
      </g>
    </g>
    <g id="book_1963590" transform="translate(208 3118)">
      <path id="Trazado_1034948" data-name="Trazado 1034948" d="M3,18H53.629V53.789H3Z" transform="translate(-0.127 -1.779)" fill="#ff5023"/>
      <path id="Trazado_1034949" data-name="Trazado 1034949" d="M53.823,14V49.789H35.492A3.492,3.492,0,0,0,32,53.281V17.492A3.492,3.492,0,0,1,35.492,14Z" transform="translate(-3.813 -1.271)" fill="#ffdaaa"/>
      <path id="Trazado_1034950" data-name="Trazado 1034950" d="M28.823,17.492V53.281a3.492,3.492,0,0,0-3.492-3.492H7V14H25.331A3.492,3.492,0,0,1,28.823,17.492Z" transform="translate(-0.635 -1.271)" fill="#ffb655"/>
      <circle id="Elipse_12426" data-name="Elipse 12426" cx="5.5" cy="5.5" r="5.5" transform="translate(18.187 34.441)" fill="#bdfdff"/>
      <circle id="Elipse_12427" data-name="Elipse 12427" cx="5.5" cy="5.5" r="5.5" transform="translate(32.187 34.441)" fill="#bdfdff"/>
      <path id="Trazado_1034951" data-name="Trazado 1034951" d="M11,11h5.237v3.492H11Z" transform="translate(-1.144 -0.89)" fill="#a7adf0"/>
      <path id="Trazado_1034952" data-name="Trazado 1034952" d="M16.237,7.619v2.619H11V7.619a2.619,2.619,0,0,1,5.237,0Z" transform="translate(-1.144 -0.127)" fill="#57565c"/>
      <path id="Trazado_1034953" data-name="Trazado 1034953" d="M16,37l-2.339,5.237L11.32,37Z" transform="translate(-1.185 -4.194)" fill="#57565c"/>
      <path id="Trazado_1034954" data-name="Trazado 1034954" d="M16.237,15V33.636l-.279.568H11.279L11,33.636V15Z" transform="translate(-1.144 -1.398)" fill="#d80027"/>
      <path id="Trazado_1034955" data-name="Trazado 1034955" d="M13,15h1.746V34.2H13Z" transform="translate(-1.398 -1.398)" fill="#e03352"/>
      <path id="Trazado_1034956" data-name="Trazado 1034956" d="M53.5,15.348H50.883V12.729a.873.873,0,0,0-.873-.873H31.679a4.349,4.349,0,0,0-3.492,1.773A4.349,4.349,0,0,0,24.7,11.856H15.967V7.492a3.492,3.492,0,1,0-6.983,0v4.365H6.365a.873.873,0,0,0-.873.873v2.619H2.873A.873.873,0,0,0,2,16.221V52.01a.873.873,0,0,0,.873.873H53.5a.873.873,0,0,0,.873-.873V16.221A.873.873,0,0,0,53.5,15.348ZM31.679,13.6H49.137V47.645H31.679a4.341,4.341,0,0,0-2.619.873v-5.6a6.062,6.062,0,0,0,.8-2.258h1.885a6.1,6.1,0,0,0,12.081,0h2.008l.436,1.746h-1.5v1.746h2.619a.873.873,0,0,0,.847-1.084l-.873-3.492a.873.873,0,0,0-.847-.662H43.83a6.1,6.1,0,0,0-12.081,0H29.863a6.062,6.062,0,0,0-.8-2.258V16.221A2.619,2.619,0,0,1,31.679,13.6ZM28.187,39.789a4.365,4.365,0,1,1-4.365-4.365A4.365,4.365,0,0,1,28.187,39.789Zm5.237,0a4.365,4.365,0,1,1,4.365,4.365,4.365,4.365,0,0,1-4.365-4.365Zm-19.2-27.06H10.729V10.983h3.492Zm0,19.2H10.729V14.475h3.492Zm-.75,1.746-1,2.227-1-2.227Zm-1-27.933a1.746,1.746,0,0,1,1.746,1.746V9.237H10.729V7.492A1.746,1.746,0,0,1,12.475,5.746ZM7.237,13.6H8.983V32.19a.862.862,0,0,0,.076.356L11.678,38.4a.873.873,0,0,0,1.594,0l2.619-5.854a.862.862,0,0,0,.076-.356V13.6H24.7a2.619,2.619,0,0,1,2.619,2.619V34.782a6.1,6.1,0,0,0-9.532,4.134H15.094a.873.873,0,0,0-.847.662l-.873,3.492a.873.873,0,0,0,.847,1.084h2.619V42.408h-1.5l.436-1.746h2.008A6.1,6.1,0,0,0,27.314,44.8v3.745a4.319,4.319,0,0,0-2.619-.9H7.237ZM3.746,17.094H5.492V48.518a.873.873,0,0,0,.873.873H24.7a2.619,2.619,0,0,1,2.458,1.746H3.746ZM52.629,51.137H29.221a2.619,2.619,0,0,1,2.458-1.746H50.01a.873.873,0,0,0,.873-.873V17.094h1.746Z"/>
      <path id="Trazado_1034957" data-name="Trazado 1034957" d="M23,44.492h1.746a1.746,1.746,0,0,1,1.746-1.746V41A3.492,3.492,0,0,0,23,44.492Z" transform="translate(-2.669 -4.702)"/>
      <path id="Trazado_1034958" data-name="Trazado 1034958" d="M42.492,42.746V41A3.492,3.492,0,0,0,39,44.492h1.746A1.746,1.746,0,0,1,42.492,42.746Z" transform="translate(-4.702 -4.702)"/>
      <path id="Trazado_1034959" data-name="Trazado 1034959" d="M35,17H51.585v1.746H35Z" transform="translate(-4.194 -1.652)"/>
      <path id="Trazado_1034960" data-name="Trazado 1034960" d="M35,23h6.983v1.746H35Z" transform="translate(-4.194 -2.415)"/>
      <path id="Trazado_1034961" data-name="Trazado 1034961" d="M35,29H46.348v1.746H35Z" transform="translate(-4.194 -3.177)"/>
      <path id="Trazado_1034962" data-name="Trazado 1034962" d="M35,35h3.492v1.746H35Z" transform="translate(-4.194 -3.94)"/>
      <path id="Trazado_1034963" data-name="Trazado 1034963" d="M45,23h7.856v1.746H45Z" transform="translate(-5.465 -2.415)"/>
      <path id="Trazado_1034964" data-name="Trazado 1034964" d="M50,29h3.492v1.746H50Z" transform="translate(-6.1 -3.177)"/>
      <path id="Trazado_1034965" data-name="Trazado 1034965" d="M41,35H52.348v1.746H41Z" transform="translate(-4.957 -3.94)"/>
    </g>
  </g>
</svg>
